  0
SECTION
  2
HEADER
  9
$ANGBASE
  50
0.0
  9
$ANGDIR
  70
1
  9
$MEASUREMENT
  70
0
  0
ENDSEC
  0
SECTION
  2
TABLES
  0
TABLE
  2
LTYPE
  70
4
  0
LTYPE
  5
40F
  2
CONTINUOUS
  70
0
  3
Solid line
  72
65
  73
0
  40
0.0
  0
LTYPE
  5
410
  2
DASHDOT
 70
0
  3
Dash Dot ____ _ ____ _
 72
65
 73
4
 40
2.0
 49
1.25
 49
-0.25
 49
0.25
 49
-0.25
  0
LTYPE
  5
411
  2
DASHED
 70
0
  3
Dashed __ __ __ __ __
 72
65
 73
2
 40
0.75
 49
0.5
 49
-0.25
  0
LTYPE
  5
43B
  2
DOTTED
 70
0
  3
Dotted .  .  .  .
 72
65
 73
2
 40
0.2
 49
0.0
 49
-0.2
  0
ENDTAB
  0
TABLE
  2
STYLE
  70
4
  0
STYLE
  2
KICAD
  70
0
  40
0
  41
1
  42
1
  50
0
  71
0
  3
isocp.shx
  0
STYLE
  2
KICADB
  70
0
  40
0
  41
1
  42
1
  50
0
  71
0
  3
isocp.shx
  0
STYLE
  2
KICADI
  70
0
  40
0
  41
1
  42
1
  50
15
  71
0
  3
isocp.shx
  0
STYLE
  2
KICADBI
  70
0
  40
0
  41
1
  42
1
  50
15
  71
0
  3
isocp.shx
  0
ENDTAB
  0
TABLE
  2
LAYER
  70
1
  0
LAYER
  2
BLACK
  70
0
  62
7
  6
CONTINUOUS
  0
ENDTAB
  0
ENDSEC
  0
SECTION
  2
ENTITIES
0
LINE
8
BLACK
6
CONTINUOUS
10
3.58632
20
-7.56275
11
3.59316
21
-7.56524
0
LINE
8
BLACK
6
CONTINUOUS
10
3.59316
20
-7.56524
11
3.59946
21
-7.56888
0
LINE
8
BLACK
6
CONTINUOUS
10
3.59946
20
-7.56888
11
3.60503
21
-7.57355
0
LINE
8
BLACK
6
CONTINUOUS
10
3.60503
20
-7.57355
11
3.60503
21
-7.57355
0
LINE
8
BLACK
6
CONTINUOUS
10
3.60503
20
-7.57355
11
3.65514
21
-7.62366
0
LINE
8
BLACK
6
CONTINUOUS
10
3.65514
20
-7.62366
11
3.65514
21
-7.62366
0
LINE
8
BLACK
6
CONTINUOUS
10
3.65514
20
-7.62366
11
3.65981
21
-7.62924
0
LINE
8
BLACK
6
CONTINUOUS
10
3.65981
20
-7.62924
11
3.66345
21
-7.63554
0
LINE
8
BLACK
6
CONTINUOUS
10
3.66345
20
-7.63554
11
3.66594
21
-7.64237
0
LINE
8
BLACK
6
CONTINUOUS
10
3.66594
20
-7.64237
11
3.6672
21
-7.64954
0
LINE
8
BLACK
6
CONTINUOUS
10
3.6672
20
-7.64954
11
3.6672
21
-7.65681
0
LINE
8
BLACK
6
CONTINUOUS
10
3.6672
20
-7.65681
11
3.66594
21
-7.66397
0
LINE
8
BLACK
6
CONTINUOUS
10
3.66594
20
-7.66397
11
3.66345
21
-7.67081
0
LINE
8
BLACK
6
CONTINUOUS
10
3.66345
20
-7.67081
11
3.65981
21
-7.67711
0
LINE
8
BLACK
6
CONTINUOUS
10
3.65981
20
-7.67711
11
3.65514
21
-7.68268
0
LINE
8
BLACK
6
CONTINUOUS
10
3.65514
20
-7.68268
11
3.65514
21
-7.68268
0
LINE
8
BLACK
6
CONTINUOUS
10
3.65514
20
-7.68268
11
3.65514
21
-7.68268
0
LINE
8
BLACK
6
CONTINUOUS
10
3.65514
20
-7.68268
11
3.60503
21
-7.73279
0
LINE
8
BLACK
6
CONTINUOUS
10
3.60503
20
-7.73279
11
3.60503
21
-7.73279
0
LINE
8
BLACK
6
CONTINUOUS
10
3.60503
20
-7.73279
11
3.60503
21
-7.73279
0
LINE
8
BLACK
6
CONTINUOUS
10
3.60503
20
-7.73279
11
3.59946
21
-7.73747
0
LINE
8
BLACK
6
CONTINUOUS
10
3.59946
20
-7.73747
11
3.59316
21
-7.74111
0
LINE
8
BLACK
6
CONTINUOUS
10
3.59316
20
-7.74111
11
3.58632
21
-7.74359
0
LINE
8
BLACK
6
CONTINUOUS
10
3.58632
20
-7.74359
11
3.57916
21
-7.74486
0
LINE
8
BLACK
6
CONTINUOUS
10
3.57916
20
-7.74486
11
3.57188
21
-7.74486
0
LINE
8
BLACK
6
CONTINUOUS
10
3.57188
20
-7.74486
11
3.56472
21
-7.74359
0
LINE
8
BLACK
6
CONTINUOUS
10
3.56472
20
-7.74359
11
3.55788
21
-7.74111
0
LINE
8
BLACK
6
CONTINUOUS
10
3.55788
20
-7.74111
11
3.55158
21
-7.73747
0
LINE
8
BLACK
6
CONTINUOUS
10
3.55158
20
-7.73747
11
3.54601
21
-7.73279
0
LINE
8
BLACK
6
CONTINUOUS
10
3.54601
20
-7.73279
11
3.54601
21
-7.73279
0
LINE
8
BLACK
6
CONTINUOUS
10
3.54601
20
-7.73279
11
3.54601
21
-7.73279
0
LINE
8
BLACK
6
CONTINUOUS
10
3.54601
20
-7.73279
11
3.54601
21
-7.73279
0
LINE
8
BLACK
6
CONTINUOUS
10
3.54601
20
-7.73279
11
3.4959
21
-7.68268
0
LINE
8
BLACK
6
CONTINUOUS
10
3.4959
20
-7.68268
11
3.4959
21
-7.68268
0
LINE
8
BLACK
6
CONTINUOUS
10
3.4959
20
-7.68268
11
3.4959
21
-7.68268
0
LINE
8
BLACK
6
CONTINUOUS
10
3.4959
20
-7.68268
11
3.49122
21
-7.67711
0
LINE
8
BLACK
6
CONTINUOUS
10
3.49122
20
-7.67711
11
3.48759
21
-7.67081
0
LINE
8
BLACK
6
CONTINUOUS
10
3.48759
20
-7.67081
11
3.4851
21
-7.66397
0
LINE
8
BLACK
6
CONTINUOUS
10
3.4851
20
-7.66397
11
3.48384
21
-7.65681
0
LINE
8
BLACK
6
CONTINUOUS
10
3.48384
20
-7.65681
11
3.48384
21
-7.64954
0
LINE
8
BLACK
6
CONTINUOUS
10
3.48384
20
-7.64954
11
3.4851
21
-7.64237
0
LINE
8
BLACK
6
CONTINUOUS
10
3.4851
20
-7.64237
11
3.48759
21
-7.63554
0
LINE
8
BLACK
6
CONTINUOUS
10
3.48759
20
-7.63554
11
3.49122
21
-7.62924
0
LINE
8
BLACK
6
CONTINUOUS
10
3.49122
20
-7.62924
11
3.4959
21
-7.62366
0
LINE
8
BLACK
6
CONTINUOUS
10
3.4959
20
-7.62366
11
3.4959
21
-7.62366
0
LINE
8
BLACK
6
CONTINUOUS
10
3.4959
20
-7.62366
11
3.4959
21
-7.62366
0
LINE
8
BLACK
6
CONTINUOUS
10
3.4959
20
-7.62366
11
3.54601
21
-7.57355
0
LINE
8
BLACK
6
CONTINUOUS
10
3.54601
20
-7.57355
11
3.54601
21
-7.57355
0
LINE
8
BLACK
6
CONTINUOUS
10
3.54601
20
-7.57355
11
3.55158
21
-7.56888
0
LINE
8
BLACK
6
CONTINUOUS
10
3.55158
20
-7.56888
11
3.55788
21
-7.56524
0
LINE
8
BLACK
6
CONTINUOUS
10
3.55788
20
-7.56524
11
3.56472
21
-7.56275
0
LINE
8
BLACK
6
CONTINUOUS
10
3.56472
20
-7.56275
11
3.57188
21
-7.56149
0
LINE
8
BLACK
6
CONTINUOUS
10
3.57188
20
-7.56149
11
3.57916
21
-7.56149
0
LINE
8
BLACK
6
CONTINUOUS
10
3.57916
20
-7.56149
11
3.58632
21
-7.56275
0
LINE
8
BLACK
6
CONTINUOUS
10
3.56907
20
-7.56648
11
3.56281
21
-7.56815
0
LINE
8
BLACK
6
CONTINUOUS
10
3.56281
20
-7.56815
11
3.55695
21
-7.57089
0
LINE
8
BLACK
6
CONTINUOUS
10
3.55695
20
-7.57089
11
3.55164
21
-7.57461
0
LINE
8
BLACK
6
CONTINUOUS
10
3.55164
20
-7.57461
11
3.54935
21
-7.57689
0
LINE
8
BLACK
6
CONTINUOUS
10
3.54935
20
-7.57689
11
3.54935
21
-7.57689
0
LINE
8
BLACK
6
CONTINUOUS
10
3.54935
20
-7.57689
11
3.49924
21
-7.627
0
LINE
8
BLACK
6
CONTINUOUS
10
3.49924
20
-7.627
11
3.49924
21
-7.627
0
LINE
8
BLACK
6
CONTINUOUS
10
3.49924
20
-7.627
11
3.49924
21
-7.627
0
LINE
8
BLACK
6
CONTINUOUS
10
3.49924
20
-7.627
11
3.49695
21
-7.62929
0
LINE
8
BLACK
6
CONTINUOUS
10
3.49695
20
-7.62929
11
3.49324
21
-7.6346
0
LINE
8
BLACK
6
CONTINUOUS
10
3.49324
20
-7.6346
11
3.4905
21
-7.64047
0
LINE
8
BLACK
6
CONTINUOUS
10
3.4905
20
-7.64047
11
3.48882
21
-7.64672
0
LINE
8
BLACK
6
CONTINUOUS
10
3.48882
20
-7.64672
11
3.48826
21
-7.65317
0
LINE
8
BLACK
6
CONTINUOUS
10
3.48826
20
-7.65317
11
3.48882
21
-7.65962
0
LINE
8
BLACK
6
CONTINUOUS
10
3.48882
20
-7.65962
11
3.4905
21
-7.66588
0
LINE
8
BLACK
6
CONTINUOUS
10
3.4905
20
-7.66588
11
3.49324
21
-7.67175
0
LINE
8
BLACK
6
CONTINUOUS
10
3.49324
20
-7.67175
11
3.49695
21
-7.67705
0
LINE
8
BLACK
6
CONTINUOUS
10
3.49695
20
-7.67705
11
3.49924
21
-7.67934
0
LINE
8
BLACK
6
CONTINUOUS
10
3.49924
20
-7.67934
11
3.49924
21
-7.67934
0
LINE
8
BLACK
6
CONTINUOUS
10
3.49924
20
-7.67934
11
3.49924
21
-7.67934
0
LINE
8
BLACK
6
CONTINUOUS
10
3.49924
20
-7.67934
11
3.54935
21
-7.72945
0
LINE
8
BLACK
6
CONTINUOUS
10
3.54935
20
-7.72945
11
3.54935
21
-7.72945
0
LINE
8
BLACK
6
CONTINUOUS
10
3.54935
20
-7.72945
11
3.55164
21
-7.73174
0
LINE
8
BLACK
6
CONTINUOUS
10
3.55164
20
-7.73174
11
3.55695
21
-7.73546
0
LINE
8
BLACK
6
CONTINUOUS
10
3.55695
20
-7.73546
11
3.56281
21
-7.73819
0
LINE
8
BLACK
6
CONTINUOUS
10
3.56281
20
-7.73819
11
3.56907
21
-7.73987
0
LINE
8
BLACK
6
CONTINUOUS
10
3.56907
20
-7.73987
11
3.57552
21
-7.74043
0
LINE
8
BLACK
6
CONTINUOUS
10
3.57552
20
-7.74043
11
3.58197
21
-7.73987
0
LINE
8
BLACK
6
CONTINUOUS
10
3.58197
20
-7.73987
11
3.58823
21
-7.73819
0
LINE
8
BLACK
6
CONTINUOUS
10
3.58823
20
-7.73819
11
3.59409
21
-7.73546
0
LINE
8
BLACK
6
CONTINUOUS
10
3.59409
20
-7.73546
11
3.5994
21
-7.73174
0
LINE
8
BLACK
6
CONTINUOUS
10
3.5994
20
-7.73174
11
3.60169
21
-7.72945
0
LINE
8
BLACK
6
CONTINUOUS
10
3.60169
20
-7.72945
11
3.60169
21
-7.72945
0
LINE
8
BLACK
6
CONTINUOUS
10
3.60169
20
-7.72945
11
3.60169
21
-7.72945
0
LINE
8
BLACK
6
CONTINUOUS
10
3.60169
20
-7.72945
11
3.6518
21
-7.67934
0
LINE
8
BLACK
6
CONTINUOUS
10
3.6518
20
-7.67934
11
3.6518
21
-7.67934
0
LINE
8
BLACK
6
CONTINUOUS
10
3.6518
20
-7.67934
11
3.6518
21
-7.67934
0
LINE
8
BLACK
6
CONTINUOUS
10
3.6518
20
-7.67934
11
3.65409
21
-7.67705
0
LINE
8
BLACK
6
CONTINUOUS
10
3.65409
20
-7.67705
11
3.6578
21
-7.67175
0
LINE
8
BLACK
6
CONTINUOUS
10
3.6578
20
-7.67175
11
3.66054
21
-7.66588
0
LINE
8
BLACK
6
CONTINUOUS
10
3.66054
20
-7.66588
11
3.66221
21
-7.65962
0
LINE
8
BLACK
6
CONTINUOUS
10
3.66221
20
-7.65962
11
3.66278
21
-7.65317
0
LINE
8
BLACK
6
CONTINUOUS
10
3.66278
20
-7.65317
11
3.66221
21
-7.64672
0
LINE
8
BLACK
6
CONTINUOUS
10
3.66221
20
-7.64672
11
3.66054
21
-7.64047
0
LINE
8
BLACK
6
CONTINUOUS
10
3.66054
20
-7.64047
11
3.6578
21
-7.6346
0
LINE
8
BLACK
6
CONTINUOUS
10
3.6578
20
-7.6346
11
3.65409
21
-7.62929
0
LINE
8
BLACK
6
CONTINUOUS
10
3.65409
20
-7.62929
11
3.6518
21
-7.627
0
LINE
8
BLACK
6
CONTINUOUS
10
3.6518
20
-7.627
11
3.6518
21
-7.627
0
LINE
8
BLACK
6
CONTINUOUS
10
3.6518
20
-7.627
11
3.60169
21
-7.57689
0
LINE
8
BLACK
6
CONTINUOUS
10
3.60169
20
-7.57689
11
3.60169
21
-7.57689
0
LINE
8
BLACK
6
CONTINUOUS
10
3.60169
20
-7.57689
11
3.5994
21
-7.57461
0
LINE
8
BLACK
6
CONTINUOUS
10
3.5994
20
-7.57461
11
3.59409
21
-7.57089
0
LINE
8
BLACK
6
CONTINUOUS
10
3.59409
20
-7.57089
11
3.58823
21
-7.56815
0
LINE
8
BLACK
6
CONTINUOUS
10
3.58823
20
-7.56815
11
3.58197
21
-7.56648
0
LINE
8
BLACK
6
CONTINUOUS
10
3.58197
20
-7.56648
11
3.57552
21
-7.56591
0
LINE
8
BLACK
6
CONTINUOUS
10
3.57552
20
-7.56591
11
3.56907
21
-7.56648
0
LINE
8
BLACK
6
CONTINUOUS
10
3.32057
20
-7.56275
11
3.32741
21
-7.56524
0
LINE
8
BLACK
6
CONTINUOUS
10
3.32741
20
-7.56524
11
3.33371
21
-7.56888
0
LINE
8
BLACK
6
CONTINUOUS
10
3.33371
20
-7.56888
11
3.33928
21
-7.57355
0
LINE
8
BLACK
6
CONTINUOUS
10
3.33928
20
-7.57355
11
3.33928
21
-7.57355
0
LINE
8
BLACK
6
CONTINUOUS
10
3.33928
20
-7.57355
11
3.38939
21
-7.62366
0
LINE
8
BLACK
6
CONTINUOUS
10
3.38939
20
-7.62366
11
3.38939
21
-7.62366
0
LINE
8
BLACK
6
CONTINUOUS
10
3.38939
20
-7.62366
11
3.39407
21
-7.62924
0
LINE
8
BLACK
6
CONTINUOUS
10
3.39407
20
-7.62924
11
3.3977
21
-7.63554
0
LINE
8
BLACK
6
CONTINUOUS
10
3.3977
20
-7.63554
11
3.40019
21
-7.64237
0
LINE
8
BLACK
6
CONTINUOUS
10
3.40019
20
-7.64237
11
3.40146
21
-7.64954
0
LINE
8
BLACK
6
CONTINUOUS
10
3.40146
20
-7.64954
11
3.40146
21
-7.65681
0
LINE
8
BLACK
6
CONTINUOUS
10
3.40146
20
-7.65681
11
3.40019
21
-7.66397
0
LINE
8
BLACK
6
CONTINUOUS
10
3.40019
20
-7.66397
11
3.3977
21
-7.67081
0
LINE
8
BLACK
6
CONTINUOUS
10
3.3977
20
-7.67081
11
3.39407
21
-7.67711
0
LINE
8
BLACK
6
CONTINUOUS
10
3.39407
20
-7.67711
11
3.38939
21
-7.68268
0
LINE
8
BLACK
6
CONTINUOUS
10
3.38939
20
-7.68268
11
3.38939
21
-7.68268
0
LINE
8
BLACK
6
CONTINUOUS
10
3.38939
20
-7.68268
11
3.38939
21
-7.68268
0
LINE
8
BLACK
6
CONTINUOUS
10
3.38939
20
-7.68268
11
3.33928
21
-7.73279
0
LINE
8
BLACK
6
CONTINUOUS
10
3.33928
20
-7.73279
11
3.33928
21
-7.73279
0
LINE
8
BLACK
6
CONTINUOUS
10
3.33928
20
-7.73279
11
3.33928
21
-7.73279
0
LINE
8
BLACK
6
CONTINUOUS
10
3.33928
20
-7.73279
11
3.33371
21
-7.73747
0
LINE
8
BLACK
6
CONTINUOUS
10
3.33371
20
-7.73747
11
3.32741
21
-7.74111
0
LINE
8
BLACK
6
CONTINUOUS
10
3.32741
20
-7.74111
11
3.32057
21
-7.74359
0
LINE
8
BLACK
6
CONTINUOUS
10
3.32057
20
-7.74359
11
3.31341
21
-7.74486
0
LINE
8
BLACK
6
CONTINUOUS
10
3.31341
20
-7.74486
11
3.30613
21
-7.74486
0
LINE
8
BLACK
6
CONTINUOUS
10
3.30613
20
-7.74486
11
3.29897
21
-7.74359
0
LINE
8
BLACK
6
CONTINUOUS
10
3.29897
20
-7.74359
11
3.29214
21
-7.74111
0
LINE
8
BLACK
6
CONTINUOUS
10
3.29214
20
-7.74111
11
3.28584
21
-7.73747
0
LINE
8
BLACK
6
CONTINUOUS
10
3.28584
20
-7.73747
11
3.28026
21
-7.73279
0
LINE
8
BLACK
6
CONTINUOUS
10
3.28026
20
-7.73279
11
3.28026
21
-7.73279
0
LINE
8
BLACK
6
CONTINUOUS
10
3.28026
20
-7.73279
11
3.28026
21
-7.73279
0
LINE
8
BLACK
6
CONTINUOUS
10
3.28026
20
-7.73279
11
3.28026
21
-7.73279
0
LINE
8
BLACK
6
CONTINUOUS
10
3.28026
20
-7.73279
11
3.23015
21
-7.68268
0
LINE
8
BLACK
6
CONTINUOUS
10
3.23015
20
-7.68268
11
3.23015
21
-7.68268
0
LINE
8
BLACK
6
CONTINUOUS
10
3.23015
20
-7.68268
11
3.23015
21
-7.68268
0
LINE
8
BLACK
6
CONTINUOUS
10
3.23015
20
-7.68268
11
3.22548
21
-7.67711
0
LINE
8
BLACK
6
CONTINUOUS
10
3.22548
20
-7.67711
11
3.22184
21
-7.67081
0
LINE
8
BLACK
6
CONTINUOUS
10
3.22184
20
-7.67081
11
3.21935
21
-7.66397
0
LINE
8
BLACK
6
CONTINUOUS
10
3.21935
20
-7.66397
11
3.21809
21
-7.65681
0
LINE
8
BLACK
6
CONTINUOUS
10
3.21809
20
-7.65681
11
3.21809
21
-7.64954
0
LINE
8
BLACK
6
CONTINUOUS
10
3.21809
20
-7.64954
11
3.21935
21
-7.64237
0
LINE
8
BLACK
6
CONTINUOUS
10
3.21935
20
-7.64237
11
3.22184
21
-7.63554
0
LINE
8
BLACK
6
CONTINUOUS
10
3.22184
20
-7.63554
11
3.22548
21
-7.62924
0
LINE
8
BLACK
6
CONTINUOUS
10
3.22548
20
-7.62924
11
3.23015
21
-7.62366
0
LINE
8
BLACK
6
CONTINUOUS
10
3.23015
20
-7.62366
11
3.23015
21
-7.62366
0
LINE
8
BLACK
6
CONTINUOUS
10
3.23015
20
-7.62366
11
3.23015
21
-7.62366
0
LINE
8
BLACK
6
CONTINUOUS
10
3.23015
20
-7.62366
11
3.28026
21
-7.57355
0
LINE
8
BLACK
6
CONTINUOUS
10
3.28026
20
-7.57355
11
3.28026
21
-7.57355
0
LINE
8
BLACK
6
CONTINUOUS
10
3.28026
20
-7.57355
11
3.28584
21
-7.56888
0
LINE
8
BLACK
6
CONTINUOUS
10
3.28584
20
-7.56888
11
3.29213
21
-7.56524
0
LINE
8
BLACK
6
CONTINUOUS
10
3.29213
20
-7.56524
11
3.29897
21
-7.56275
0
LINE
8
BLACK
6
CONTINUOUS
10
3.29897
20
-7.56275
11
3.30613
21
-7.56149
0
LINE
8
BLACK
6
CONTINUOUS
10
3.30613
20
-7.56149
11
3.31341
21
-7.56149
0
LINE
8
BLACK
6
CONTINUOUS
10
3.31341
20
-7.56149
11
3.32057
21
-7.56275
0
LINE
8
BLACK
6
CONTINUOUS
10
3.30332
20
-7.56648
11
3.29707
21
-7.56815
0
LINE
8
BLACK
6
CONTINUOUS
10
3.29707
20
-7.56815
11
3.2912
21
-7.57089
0
LINE
8
BLACK
6
CONTINUOUS
10
3.2912
20
-7.57089
11
3.28589
21
-7.57461
0
LINE
8
BLACK
6
CONTINUOUS
10
3.28589
20
-7.57461
11
3.2836
21
-7.57689
0
LINE
8
BLACK
6
CONTINUOUS
10
3.2836
20
-7.57689
11
3.2836
21
-7.57689
0
LINE
8
BLACK
6
CONTINUOUS
10
3.2836
20
-7.57689
11
3.23349
21
-7.627
0
LINE
8
BLACK
6
CONTINUOUS
10
3.23349
20
-7.627
11
3.23349
21
-7.627
0
LINE
8
BLACK
6
CONTINUOUS
10
3.23349
20
-7.627
11
3.23349
21
-7.627
0
LINE
8
BLACK
6
CONTINUOUS
10
3.23349
20
-7.627
11
3.2312
21
-7.62929
0
LINE
8
BLACK
6
CONTINUOUS
10
3.2312
20
-7.62929
11
3.22749
21
-7.6346
0
LINE
8
BLACK
6
CONTINUOUS
10
3.22749
20
-7.6346
11
3.22475
21
-7.64047
0
LINE
8
BLACK
6
CONTINUOUS
10
3.22475
20
-7.64047
11
3.22308
21
-7.64672
0
LINE
8
BLACK
6
CONTINUOUS
10
3.22308
20
-7.64672
11
3.22251
21
-7.65317
0
LINE
8
BLACK
6
CONTINUOUS
10
3.22251
20
-7.65317
11
3.22308
21
-7.65962
0
LINE
8
BLACK
6
CONTINUOUS
10
3.22308
20
-7.65962
11
3.22475
21
-7.66588
0
LINE
8
BLACK
6
CONTINUOUS
10
3.22475
20
-7.66588
11
3.22749
21
-7.67175
0
LINE
8
BLACK
6
CONTINUOUS
10
3.22749
20
-7.67175
11
3.2312
21
-7.67705
0
LINE
8
BLACK
6
CONTINUOUS
10
3.2312
20
-7.67705
11
3.23349
21
-7.67934
0
LINE
8
BLACK
6
CONTINUOUS
10
3.23349
20
-7.67934
11
3.23349
21
-7.67934
0
LINE
8
BLACK
6
CONTINUOUS
10
3.23349
20
-7.67934
11
3.23349
21
-7.67934
0
LINE
8
BLACK
6
CONTINUOUS
10
3.23349
20
-7.67934
11
3.2836
21
-7.72945
0
LINE
8
BLACK
6
CONTINUOUS
10
3.2836
20
-7.72945
11
3.2836
21
-7.72945
0
LINE
8
BLACK
6
CONTINUOUS
10
3.2836
20
-7.72945
11
3.28589
21
-7.73174
0
LINE
8
BLACK
6
CONTINUOUS
10
3.28589
20
-7.73174
11
3.2912
21
-7.73546
0
LINE
8
BLACK
6
CONTINUOUS
10
3.2912
20
-7.73546
11
3.29707
21
-7.73819
0
LINE
8
BLACK
6
CONTINUOUS
10
3.29707
20
-7.73819
11
3.30332
21
-7.73987
0
LINE
8
BLACK
6
CONTINUOUS
10
3.30332
20
-7.73987
11
3.30977
21
-7.74043
0
LINE
8
BLACK
6
CONTINUOUS
10
3.30977
20
-7.74043
11
3.31622
21
-7.73987
0
LINE
8
BLACK
6
CONTINUOUS
10
3.31622
20
-7.73987
11
3.32248
21
-7.73819
0
LINE
8
BLACK
6
CONTINUOUS
10
3.32248
20
-7.73819
11
3.32835
21
-7.73546
0
LINE
8
BLACK
6
CONTINUOUS
10
3.32835
20
-7.73546
11
3.33365
21
-7.73174
0
LINE
8
BLACK
6
CONTINUOUS
10
3.33365
20
-7.73174
11
3.33594
21
-7.72945
0
LINE
8
BLACK
6
CONTINUOUS
10
3.33594
20
-7.72945
11
3.33594
21
-7.72945
0
LINE
8
BLACK
6
CONTINUOUS
10
3.33594
20
-7.72945
11
3.33594
21
-7.72945
0
LINE
8
BLACK
6
CONTINUOUS
10
3.33594
20
-7.72945
11
3.38605
21
-7.67934
0
LINE
8
BLACK
6
CONTINUOUS
10
3.38605
20
-7.67934
11
3.38605
21
-7.67934
0
LINE
8
BLACK
6
CONTINUOUS
10
3.38605
20
-7.67934
11
3.38605
21
-7.67934
0
LINE
8
BLACK
6
CONTINUOUS
10
3.38605
20
-7.67934
11
3.38834
21
-7.67705
0
LINE
8
BLACK
6
CONTINUOUS
10
3.38834
20
-7.67705
11
3.39205
21
-7.67175
0
LINE
8
BLACK
6
CONTINUOUS
10
3.39205
20
-7.67175
11
3.39479
21
-7.66588
0
LINE
8
BLACK
6
CONTINUOUS
10
3.39479
20
-7.66588
11
3.39647
21
-7.65962
0
LINE
8
BLACK
6
CONTINUOUS
10
3.39647
20
-7.65962
11
3.39703
21
-7.65317
0
LINE
8
BLACK
6
CONTINUOUS
10
3.39703
20
-7.65317
11
3.39647
21
-7.64672
0
LINE
8
BLACK
6
CONTINUOUS
10
3.39647
20
-7.64672
11
3.39479
21
-7.64047
0
LINE
8
BLACK
6
CONTINUOUS
10
3.39479
20
-7.64047
11
3.39205
21
-7.6346
0
LINE
8
BLACK
6
CONTINUOUS
10
3.39205
20
-7.6346
11
3.38834
21
-7.62929
0
LINE
8
BLACK
6
CONTINUOUS
10
3.38834
20
-7.62929
11
3.38605
21
-7.627
0
LINE
8
BLACK
6
CONTINUOUS
10
3.38605
20
-7.627
11
3.38605
21
-7.627
0
LINE
8
BLACK
6
CONTINUOUS
10
3.38605
20
-7.627
11
3.33594
21
-7.57689
0
LINE
8
BLACK
6
CONTINUOUS
10
3.33594
20
-7.57689
11
3.33594
21
-7.57689
0
LINE
8
BLACK
6
CONTINUOUS
10
3.33594
20
-7.57689
11
3.33365
21
-7.57461
0
LINE
8
BLACK
6
CONTINUOUS
10
3.33365
20
-7.57461
11
3.32835
21
-7.57089
0
LINE
8
BLACK
6
CONTINUOUS
10
3.32835
20
-7.57089
11
3.32248
21
-7.56815
0
LINE
8
BLACK
6
CONTINUOUS
10
3.32248
20
-7.56815
11
3.31622
21
-7.56648
0
LINE
8
BLACK
6
CONTINUOUS
10
3.31622
20
-7.56648
11
3.30977
21
-7.56591
0
LINE
8
BLACK
6
CONTINUOUS
10
3.30977
20
-7.56591
11
3.30332
21
-7.56648
0
LINE
8
BLACK
6
CONTINUOUS
10
3.05482
20
-7.56275
11
3.06166
21
-7.56524
0
LINE
8
BLACK
6
CONTINUOUS
10
3.06166
20
-7.56524
11
3.06796
21
-7.56888
0
LINE
8
BLACK
6
CONTINUOUS
10
3.06796
20
-7.56888
11
3.07353
21
-7.57355
0
LINE
8
BLACK
6
CONTINUOUS
10
3.07353
20
-7.57355
11
3.07353
21
-7.57355
0
LINE
8
BLACK
6
CONTINUOUS
10
3.07353
20
-7.57355
11
3.12364
21
-7.62366
0
LINE
8
BLACK
6
CONTINUOUS
10
3.12364
20
-7.62366
11
3.12364
21
-7.62366
0
LINE
8
BLACK
6
CONTINUOUS
10
3.12364
20
-7.62366
11
3.12832
21
-7.62924
0
LINE
8
BLACK
6
CONTINUOUS
10
3.12832
20
-7.62924
11
3.13196
21
-7.63554
0
LINE
8
BLACK
6
CONTINUOUS
10
3.13196
20
-7.63554
11
3.13444
21
-7.64237
0
LINE
8
BLACK
6
CONTINUOUS
10
3.13444
20
-7.64237
11
3.13571
21
-7.64954
0
LINE
8
BLACK
6
CONTINUOUS
10
3.13571
20
-7.64954
11
3.13571
21
-7.65681
0
LINE
8
BLACK
6
CONTINUOUS
10
3.13571
20
-7.65681
11
3.13444
21
-7.66397
0
LINE
8
BLACK
6
CONTINUOUS
10
3.13444
20
-7.66397
11
3.13196
21
-7.67081
0
LINE
8
BLACK
6
CONTINUOUS
10
3.13196
20
-7.67081
11
3.12832
21
-7.67711
0
LINE
8
BLACK
6
CONTINUOUS
10
3.12832
20
-7.67711
11
3.12364
21
-7.68268
0
LINE
8
BLACK
6
CONTINUOUS
10
3.12364
20
-7.68268
11
3.12364
21
-7.68268
0
LINE
8
BLACK
6
CONTINUOUS
10
3.12364
20
-7.68268
11
3.12364
21
-7.68268
0
LINE
8
BLACK
6
CONTINUOUS
10
3.12364
20
-7.68268
11
3.07353
21
-7.73279
0
LINE
8
BLACK
6
CONTINUOUS
10
3.07353
20
-7.73279
11
3.07353
21
-7.73279
0
LINE
8
BLACK
6
CONTINUOUS
10
3.07353
20
-7.73279
11
3.07353
21
-7.73279
0
LINE
8
BLACK
6
CONTINUOUS
10
3.07353
20
-7.73279
11
3.06796
21
-7.73747
0
LINE
8
BLACK
6
CONTINUOUS
10
3.06796
20
-7.73747
11
3.06166
21
-7.74111
0
LINE
8
BLACK
6
CONTINUOUS
10
3.06166
20
-7.74111
11
3.05482
21
-7.74359
0
LINE
8
BLACK
6
CONTINUOUS
10
3.05482
20
-7.74359
11
3.04766
21
-7.74486
0
LINE
8
BLACK
6
CONTINUOUS
10
3.04766
20
-7.74486
11
3.04039
21
-7.74486
0
LINE
8
BLACK
6
CONTINUOUS
10
3.04039
20
-7.74486
11
3.03322
21
-7.74359
0
LINE
8
BLACK
6
CONTINUOUS
10
3.03322
20
-7.74359
11
3.02639
21
-7.74111
0
LINE
8
BLACK
6
CONTINUOUS
10
3.02639
20
-7.74111
11
3.02009
21
-7.73747
0
LINE
8
BLACK
6
CONTINUOUS
10
3.02009
20
-7.73747
11
3.01451
21
-7.73279
0
LINE
8
BLACK
6
CONTINUOUS
10
3.01451
20
-7.73279
11
3.01451
21
-7.73279
0
LINE
8
BLACK
6
CONTINUOUS
10
3.01451
20
-7.73279
11
3.01451
21
-7.73279
0
LINE
8
BLACK
6
CONTINUOUS
10
3.01451
20
-7.73279
11
3.01451
21
-7.73279
0
LINE
8
BLACK
6
CONTINUOUS
10
3.01451
20
-7.73279
11
2.9644
21
-7.68268
0
LINE
8
BLACK
6
CONTINUOUS
10
2.9644
20
-7.68268
11
2.9644
21
-7.68268
0
LINE
8
BLACK
6
CONTINUOUS
10
2.9644
20
-7.68268
11
2.9644
21
-7.68268
0
LINE
8
BLACK
6
CONTINUOUS
10
2.9644
20
-7.68268
11
2.95973
21
-7.67711
0
LINE
8
BLACK
6
CONTINUOUS
10
2.95973
20
-7.67711
11
2.95609
21
-7.67081
0
LINE
8
BLACK
6
CONTINUOUS
10
2.95609
20
-7.67081
11
2.9536
21
-7.66397
0
LINE
8
BLACK
6
CONTINUOUS
10
2.9536
20
-7.66397
11
2.95234
21
-7.65681
0
LINE
8
BLACK
6
CONTINUOUS
10
2.95234
20
-7.65681
11
2.95234
21
-7.64954
0
LINE
8
BLACK
6
CONTINUOUS
10
2.95234
20
-7.64954
11
2.9536
21
-7.64237
0
LINE
8
BLACK
6
CONTINUOUS
10
2.9536
20
-7.64237
11
2.95609
21
-7.63554
0
LINE
8
BLACK
6
CONTINUOUS
10
2.95609
20
-7.63554
11
2.95973
21
-7.62924
0
LINE
8
BLACK
6
CONTINUOUS
10
2.95973
20
-7.62924
11
2.9644
21
-7.62366
0
LINE
8
BLACK
6
CONTINUOUS
10
2.9644
20
-7.62366
11
2.9644
21
-7.62366
0
LINE
8
BLACK
6
CONTINUOUS
10
2.9644
20
-7.62366
11
2.9644
21
-7.62366
0
LINE
8
BLACK
6
CONTINUOUS
10
2.9644
20
-7.62366
11
3.01451
21
-7.57355
0
LINE
8
BLACK
6
CONTINUOUS
10
3.01451
20
-7.57355
11
3.01451
21
-7.57355
0
LINE
8
BLACK
6
CONTINUOUS
10
3.01451
20
-7.57355
11
3.02009
21
-7.56888
0
LINE
8
BLACK
6
CONTINUOUS
10
3.02009
20
-7.56888
11
3.02639
21
-7.56524
0
LINE
8
BLACK
6
CONTINUOUS
10
3.02639
20
-7.56524
11
3.03322
21
-7.56275
0
LINE
8
BLACK
6
CONTINUOUS
10
3.03322
20
-7.56275
11
3.04039
21
-7.56149
0
LINE
8
BLACK
6
CONTINUOUS
10
3.04039
20
-7.56149
11
3.04766
21
-7.56149
0
LINE
8
BLACK
6
CONTINUOUS
10
3.04766
20
-7.56149
11
3.05482
21
-7.56275
0
LINE
8
BLACK
6
CONTINUOUS
10
3.03757
20
-7.56648
11
3.03132
21
-7.56815
0
LINE
8
BLACK
6
CONTINUOUS
10
3.03132
20
-7.56815
11
3.02545
21
-7.57089
0
LINE
8
BLACK
6
CONTINUOUS
10
3.02545
20
-7.57089
11
3.02014
21
-7.57461
0
LINE
8
BLACK
6
CONTINUOUS
10
3.02014
20
-7.57461
11
3.01786
21
-7.57689
0
LINE
8
BLACK
6
CONTINUOUS
10
3.01786
20
-7.57689
11
3.01786
21
-7.57689
0
LINE
8
BLACK
6
CONTINUOUS
10
3.01786
20
-7.57689
11
2.96775
21
-7.627
0
LINE
8
BLACK
6
CONTINUOUS
10
2.96775
20
-7.627
11
2.96775
21
-7.627
0
LINE
8
BLACK
6
CONTINUOUS
10
2.96775
20
-7.627
11
2.96775
21
-7.627
0
LINE
8
BLACK
6
CONTINUOUS
10
2.96775
20
-7.627
11
2.96546
21
-7.62929
0
LINE
8
BLACK
6
CONTINUOUS
10
2.96546
20
-7.62929
11
2.96174
21
-7.6346
0
LINE
8
BLACK
6
CONTINUOUS
10
2.96174
20
-7.6346
11
2.959
21
-7.64047
0
LINE
8
BLACK
6
CONTINUOUS
10
2.959
20
-7.64047
11
2.95733
21
-7.64672
0
LINE
8
BLACK
6
CONTINUOUS
10
2.95733
20
-7.64672
11
2.95676
21
-7.65317
0
LINE
8
BLACK
6
CONTINUOUS
10
2.95676
20
-7.65317
11
2.95733
21
-7.65962
0
LINE
8
BLACK
6
CONTINUOUS
10
2.95733
20
-7.65962
11
2.959
21
-7.66588
0
LINE
8
BLACK
6
CONTINUOUS
10
2.959
20
-7.66588
11
2.96174
21
-7.67175
0
LINE
8
BLACK
6
CONTINUOUS
10
2.96174
20
-7.67175
11
2.96546
21
-7.67705
0
LINE
8
BLACK
6
CONTINUOUS
10
2.96546
20
-7.67705
11
2.96775
21
-7.67934
0
LINE
8
BLACK
6
CONTINUOUS
10
2.96775
20
-7.67934
11
2.96775
21
-7.67934
0
LINE
8
BLACK
6
CONTINUOUS
10
2.96775
20
-7.67934
11
2.96775
21
-7.67934
0
LINE
8
BLACK
6
CONTINUOUS
10
2.96775
20
-7.67934
11
3.01786
21
-7.72945
0
LINE
8
BLACK
6
CONTINUOUS
10
3.01786
20
-7.72945
11
3.01786
21
-7.72945
0
LINE
8
BLACK
6
CONTINUOUS
10
3.01786
20
-7.72945
11
3.02014
21
-7.73174
0
LINE
8
BLACK
6
CONTINUOUS
10
3.02014
20
-7.73174
11
3.02545
21
-7.73546
0
LINE
8
BLACK
6
CONTINUOUS
10
3.02545
20
-7.73546
11
3.03132
21
-7.73819
0
LINE
8
BLACK
6
CONTINUOUS
10
3.03132
20
-7.73819
11
3.03757
21
-7.73987
0
LINE
8
BLACK
6
CONTINUOUS
10
3.03757
20
-7.73987
11
3.04402
21
-7.74043
0
LINE
8
BLACK
6
CONTINUOUS
10
3.04402
20
-7.74043
11
3.05047
21
-7.73987
0
LINE
8
BLACK
6
CONTINUOUS
10
3.05047
20
-7.73987
11
3.05673
21
-7.73819
0
LINE
8
BLACK
6
CONTINUOUS
10
3.05673
20
-7.73819
11
3.0626
21
-7.73546
0
LINE
8
BLACK
6
CONTINUOUS
10
3.0626
20
-7.73546
11
3.0679
21
-7.73174
0
LINE
8
BLACK
6
CONTINUOUS
10
3.0679
20
-7.73174
11
3.07019
21
-7.72945
0
LINE
8
BLACK
6
CONTINUOUS
10
3.07019
20
-7.72945
11
3.07019
21
-7.72945
0
LINE
8
BLACK
6
CONTINUOUS
10
3.07019
20
-7.72945
11
3.07019
21
-7.72945
0
LINE
8
BLACK
6
CONTINUOUS
10
3.07019
20
-7.72945
11
3.1203
21
-7.67934
0
LINE
8
BLACK
6
CONTINUOUS
10
3.1203
20
-7.67934
11
3.1203
21
-7.67934
0
LINE
8
BLACK
6
CONTINUOUS
10
3.1203
20
-7.67934
11
3.1203
21
-7.67934
0
LINE
8
BLACK
6
CONTINUOUS
10
3.1203
20
-7.67934
11
3.12259
21
-7.67705
0
LINE
8
BLACK
6
CONTINUOUS
10
3.12259
20
-7.67705
11
3.12631
21
-7.67175
0
LINE
8
BLACK
6
CONTINUOUS
10
3.12631
20
-7.67175
11
3.12904
21
-7.66588
0
LINE
8
BLACK
6
CONTINUOUS
10
3.12904
20
-7.66588
11
3.13072
21
-7.65962
0
LINE
8
BLACK
6
CONTINUOUS
10
3.13072
20
-7.65962
11
3.13128
21
-7.65317
0
LINE
8
BLACK
6
CONTINUOUS
10
3.13128
20
-7.65317
11
3.13072
21
-7.64672
0
LINE
8
BLACK
6
CONTINUOUS
10
3.13072
20
-7.64672
11
3.12904
21
-7.64047
0
LINE
8
BLACK
6
CONTINUOUS
10
3.12904
20
-7.64047
11
3.12631
21
-7.6346
0
LINE
8
BLACK
6
CONTINUOUS
10
3.12631
20
-7.6346
11
3.12259
21
-7.62929
0
LINE
8
BLACK
6
CONTINUOUS
10
3.12259
20
-7.62929
11
3.1203
21
-7.627
0
LINE
8
BLACK
6
CONTINUOUS
10
3.1203
20
-7.627
11
3.1203
21
-7.627
0
LINE
8
BLACK
6
CONTINUOUS
10
3.1203
20
-7.627
11
3.07019
21
-7.57689
0
LINE
8
BLACK
6
CONTINUOUS
10
3.07019
20
-7.57689
11
3.07019
21
-7.57689
0
LINE
8
BLACK
6
CONTINUOUS
10
3.07019
20
-7.57689
11
3.0679
21
-7.57461
0
LINE
8
BLACK
6
CONTINUOUS
10
3.0679
20
-7.57461
11
3.0626
21
-7.57089
0
LINE
8
BLACK
6
CONTINUOUS
10
3.0626
20
-7.57089
11
3.05673
21
-7.56815
0
LINE
8
BLACK
6
CONTINUOUS
10
3.05673
20
-7.56815
11
3.05047
21
-7.56648
0
LINE
8
BLACK
6
CONTINUOUS
10
3.05047
20
-7.56648
11
3.04402
21
-7.56591
0
LINE
8
BLACK
6
CONTINUOUS
10
3.04402
20
-7.56591
11
3.03757
21
-7.56648
0
LINE
8
BLACK
6
CONTINUOUS
10
2.78908
20
-7.56275
11
2.79591
21
-7.56524
0
LINE
8
BLACK
6
CONTINUOUS
10
2.79591
20
-7.56524
11
2.80221
21
-7.56888
0
LINE
8
BLACK
6
CONTINUOUS
10
2.80221
20
-7.56888
11
2.80778
21
-7.57355
0
LINE
8
BLACK
6
CONTINUOUS
10
2.80778
20
-7.57355
11
2.80778
21
-7.57355
0
LINE
8
BLACK
6
CONTINUOUS
10
2.80778
20
-7.57355
11
2.85789
21
-7.62366
0
LINE
8
BLACK
6
CONTINUOUS
10
2.85789
20
-7.62366
11
2.85789
21
-7.62366
0
LINE
8
BLACK
6
CONTINUOUS
10
2.85789
20
-7.62366
11
2.86257
21
-7.62924
0
LINE
8
BLACK
6
CONTINUOUS
10
2.86257
20
-7.62924
11
2.86621
21
-7.63554
0
LINE
8
BLACK
6
CONTINUOUS
10
2.86621
20
-7.63554
11
2.8687
21
-7.64237
0
LINE
8
BLACK
6
CONTINUOUS
10
2.8687
20
-7.64237
11
2.86996
21
-7.64954
0
LINE
8
BLACK
6
CONTINUOUS
10
2.86996
20
-7.64954
11
2.86996
21
-7.65681
0
LINE
8
BLACK
6
CONTINUOUS
10
2.86996
20
-7.65681
11
2.8687
21
-7.66397
0
LINE
8
BLACK
6
CONTINUOUS
10
2.8687
20
-7.66397
11
2.86621
21
-7.67081
0
LINE
8
BLACK
6
CONTINUOUS
10
2.86621
20
-7.67081
11
2.86257
21
-7.67711
0
LINE
8
BLACK
6
CONTINUOUS
10
2.86257
20
-7.67711
11
2.85789
21
-7.68268
0
LINE
8
BLACK
6
CONTINUOUS
10
2.85789
20
-7.68268
11
2.85789
21
-7.68268
0
LINE
8
BLACK
6
CONTINUOUS
10
2.85789
20
-7.68268
11
2.85789
21
-7.68268
0
LINE
8
BLACK
6
CONTINUOUS
10
2.85789
20
-7.68268
11
2.80778
21
-7.73279
0
LINE
8
BLACK
6
CONTINUOUS
10
2.80778
20
-7.73279
11
2.80778
21
-7.73279
0
LINE
8
BLACK
6
CONTINUOUS
10
2.80778
20
-7.73279
11
2.80778
21
-7.73279
0
LINE
8
BLACK
6
CONTINUOUS
10
2.80778
20
-7.73279
11
2.80221
21
-7.73747
0
LINE
8
BLACK
6
CONTINUOUS
10
2.80221
20
-7.73747
11
2.79591
21
-7.74111
0
LINE
8
BLACK
6
CONTINUOUS
10
2.79591
20
-7.74111
11
2.78908
21
-7.74359
0
LINE
8
BLACK
6
CONTINUOUS
10
2.78908
20
-7.74359
11
2.78191
21
-7.74486
0
LINE
8
BLACK
6
CONTINUOUS
10
2.78191
20
-7.74486
11
2.77464
21
-7.74486
0
LINE
8
BLACK
6
CONTINUOUS
10
2.77464
20
-7.74486
11
2.76747
21
-7.74359
0
LINE
8
BLACK
6
CONTINUOUS
10
2.76747
20
-7.74359
11
2.76064
21
-7.74111
0
LINE
8
BLACK
6
CONTINUOUS
10
2.76064
20
-7.74111
11
2.75434
21
-7.73747
0
LINE
8
BLACK
6
CONTINUOUS
10
2.75434
20
-7.73747
11
2.74877
21
-7.73279
0
LINE
8
BLACK
6
CONTINUOUS
10
2.74877
20
-7.73279
11
2.74877
21
-7.73279
0
LINE
8
BLACK
6
CONTINUOUS
10
2.74877
20
-7.73279
11
2.74877
21
-7.73279
0
LINE
8
BLACK
6
CONTINUOUS
10
2.74877
20
-7.73279
11
2.74877
21
-7.73279
0
LINE
8
BLACK
6
CONTINUOUS
10
2.74877
20
-7.73279
11
2.69866
21
-7.68268
0
LINE
8
BLACK
6
CONTINUOUS
10
2.69866
20
-7.68268
11
2.69866
21
-7.68268
0
LINE
8
BLACK
6
CONTINUOUS
10
2.69866
20
-7.68268
11
2.69866
21
-7.68268
0
LINE
8
BLACK
6
CONTINUOUS
10
2.69866
20
-7.68268
11
2.69398
21
-7.67711
0
LINE
8
BLACK
6
CONTINUOUS
10
2.69398
20
-7.67711
11
2.69034
21
-7.67081
0
LINE
8
BLACK
6
CONTINUOUS
10
2.69034
20
-7.67081
11
2.68786
21
-7.66397
0
LINE
8
BLACK
6
CONTINUOUS
10
2.68786
20
-7.66397
11
2.68659
21
-7.65681
0
LINE
8
BLACK
6
CONTINUOUS
10
2.68659
20
-7.65681
11
2.68659
21
-7.64954
0
LINE
8
BLACK
6
CONTINUOUS
10
2.68659
20
-7.64954
11
2.68786
21
-7.64237
0
LINE
8
BLACK
6
CONTINUOUS
10
2.68786
20
-7.64237
11
2.69034
21
-7.63554
0
LINE
8
BLACK
6
CONTINUOUS
10
2.69034
20
-7.63554
11
2.69398
21
-7.62924
0
LINE
8
BLACK
6
CONTINUOUS
10
2.69398
20
-7.62924
11
2.69866
21
-7.62366
0
LINE
8
BLACK
6
CONTINUOUS
10
2.69866
20
-7.62366
11
2.69866
21
-7.62366
0
LINE
8
BLACK
6
CONTINUOUS
10
2.69866
20
-7.62366
11
2.69866
21
-7.62366
0
LINE
8
BLACK
6
CONTINUOUS
10
2.69866
20
-7.62366
11
2.74877
21
-7.57355
0
LINE
8
BLACK
6
CONTINUOUS
10
2.74877
20
-7.57355
11
2.74877
21
-7.57355
0
LINE
8
BLACK
6
CONTINUOUS
10
2.74877
20
-7.57355
11
2.75434
21
-7.56888
0
LINE
8
BLACK
6
CONTINUOUS
10
2.75434
20
-7.56888
11
2.76064
21
-7.56524
0
LINE
8
BLACK
6
CONTINUOUS
10
2.76064
20
-7.56524
11
2.76747
21
-7.56275
0
LINE
8
BLACK
6
CONTINUOUS
10
2.76747
20
-7.56275
11
2.77464
21
-7.56149
0
LINE
8
BLACK
6
CONTINUOUS
10
2.77464
20
-7.56149
11
2.78191
21
-7.56149
0
LINE
8
BLACK
6
CONTINUOUS
10
2.78191
20
-7.56149
11
2.78908
21
-7.56275
0
LINE
8
BLACK
6
CONTINUOUS
10
2.77182
20
-7.56648
11
2.76557
21
-7.56815
0
LINE
8
BLACK
6
CONTINUOUS
10
2.76557
20
-7.56815
11
2.7597
21
-7.57089
0
LINE
8
BLACK
6
CONTINUOUS
10
2.7597
20
-7.57089
11
2.7544
21
-7.57461
0
LINE
8
BLACK
6
CONTINUOUS
10
2.7544
20
-7.57461
11
2.75211
21
-7.57689
0
LINE
8
BLACK
6
CONTINUOUS
10
2.75211
20
-7.57689
11
2.75211
21
-7.57689
0
LINE
8
BLACK
6
CONTINUOUS
10
2.75211
20
-7.57689
11
2.702
21
-7.627
0
LINE
8
BLACK
6
CONTINUOUS
10
2.702
20
-7.627
11
2.702
21
-7.627
0
LINE
8
BLACK
6
CONTINUOUS
10
2.702
20
-7.627
11
2.702
21
-7.627
0
LINE
8
BLACK
6
CONTINUOUS
10
2.702
20
-7.627
11
2.69971
21
-7.62929
0
LINE
8
BLACK
6
CONTINUOUS
10
2.69971
20
-7.62929
11
2.69599
21
-7.6346
0
LINE
8
BLACK
6
CONTINUOUS
10
2.69599
20
-7.6346
11
2.69326
21
-7.64047
0
LINE
8
BLACK
6
CONTINUOUS
10
2.69326
20
-7.64047
11
2.69158
21
-7.64672
0
LINE
8
BLACK
6
CONTINUOUS
10
2.69158
20
-7.64672
11
2.69102
21
-7.65317
0
LINE
8
BLACK
6
CONTINUOUS
10
2.69102
20
-7.65317
11
2.69158
21
-7.65962
0
LINE
8
BLACK
6
CONTINUOUS
10
2.69158
20
-7.65962
11
2.69326
21
-7.66588
0
LINE
8
BLACK
6
CONTINUOUS
10
2.69326
20
-7.66588
11
2.69599
21
-7.67175
0
LINE
8
BLACK
6
CONTINUOUS
10
2.69599
20
-7.67175
11
2.69971
21
-7.67705
0
LINE
8
BLACK
6
CONTINUOUS
10
2.69971
20
-7.67705
11
2.702
21
-7.67934
0
LINE
8
BLACK
6
CONTINUOUS
10
2.702
20
-7.67934
11
2.702
21
-7.67934
0
LINE
8
BLACK
6
CONTINUOUS
10
2.702
20
-7.67934
11
2.702
21
-7.67934
0
LINE
8
BLACK
6
CONTINUOUS
10
2.702
20
-7.67934
11
2.75211
21
-7.72945
0
LINE
8
BLACK
6
CONTINUOUS
10
2.75211
20
-7.72945
11
2.75211
21
-7.72945
0
LINE
8
BLACK
6
CONTINUOUS
10
2.75211
20
-7.72945
11
2.7544
21
-7.73174
0
LINE
8
BLACK
6
CONTINUOUS
10
2.7544
20
-7.73174
11
2.7597
21
-7.73546
0
LINE
8
BLACK
6
CONTINUOUS
10
2.7597
20
-7.73546
11
2.76557
21
-7.73819
0
LINE
8
BLACK
6
CONTINUOUS
10
2.76557
20
-7.73819
11
2.77182
21
-7.73987
0
LINE
8
BLACK
6
CONTINUOUS
10
2.77182
20
-7.73987
11
2.77828
21
-7.74043
0
LINE
8
BLACK
6
CONTINUOUS
10
2.77828
20
-7.74043
11
2.78473
21
-7.73987
0
LINE
8
BLACK
6
CONTINUOUS
10
2.78473
20
-7.73987
11
2.79098
21
-7.73819
0
LINE
8
BLACK
6
CONTINUOUS
10
2.79098
20
-7.73819
11
2.79685
21
-7.73546
0
LINE
8
BLACK
6
CONTINUOUS
10
2.79685
20
-7.73546
11
2.80215
21
-7.73174
0
LINE
8
BLACK
6
CONTINUOUS
10
2.80215
20
-7.73174
11
2.80444
21
-7.72945
0
LINE
8
BLACK
6
CONTINUOUS
10
2.80444
20
-7.72945
11
2.80444
21
-7.72945
0
LINE
8
BLACK
6
CONTINUOUS
10
2.80444
20
-7.72945
11
2.80444
21
-7.72945
0
LINE
8
BLACK
6
CONTINUOUS
10
2.80444
20
-7.72945
11
2.85455
21
-7.67934
0
LINE
8
BLACK
6
CONTINUOUS
10
2.85455
20
-7.67934
11
2.85455
21
-7.67934
0
LINE
8
BLACK
6
CONTINUOUS
10
2.85455
20
-7.67934
11
2.85455
21
-7.67934
0
LINE
8
BLACK
6
CONTINUOUS
10
2.85455
20
-7.67934
11
2.85684
21
-7.67705
0
LINE
8
BLACK
6
CONTINUOUS
10
2.85684
20
-7.67705
11
2.86056
21
-7.67175
0
LINE
8
BLACK
6
CONTINUOUS
10
2.86056
20
-7.67175
11
2.86329
21
-7.66588
0
LINE
8
BLACK
6
CONTINUOUS
10
2.86329
20
-7.66588
11
2.86497
21
-7.65962
0
LINE
8
BLACK
6
CONTINUOUS
10
2.86497
20
-7.65962
11
2.86553
21
-7.65317
0
LINE
8
BLACK
6
CONTINUOUS
10
2.86553
20
-7.65317
11
2.86497
21
-7.64672
0
LINE
8
BLACK
6
CONTINUOUS
10
2.86497
20
-7.64672
11
2.86329
21
-7.64047
0
LINE
8
BLACK
6
CONTINUOUS
10
2.86329
20
-7.64047
11
2.86056
21
-7.6346
0
LINE
8
BLACK
6
CONTINUOUS
10
2.86056
20
-7.6346
11
2.85684
21
-7.62929
0
LINE
8
BLACK
6
CONTINUOUS
10
2.85684
20
-7.62929
11
2.85455
21
-7.627
0
LINE
8
BLACK
6
CONTINUOUS
10
2.85455
20
-7.627
11
2.85455
21
-7.627
0
LINE
8
BLACK
6
CONTINUOUS
10
2.85455
20
-7.627
11
2.80444
21
-7.57689
0
LINE
8
BLACK
6
CONTINUOUS
10
2.80444
20
-7.57689
11
2.80444
21
-7.57689
0
LINE
8
BLACK
6
CONTINUOUS
10
2.80444
20
-7.57689
11
2.80215
21
-7.57461
0
LINE
8
BLACK
6
CONTINUOUS
10
2.80215
20
-7.57461
11
2.79685
21
-7.57089
0
LINE
8
BLACK
6
CONTINUOUS
10
2.79685
20
-7.57089
11
2.79098
21
-7.56815
0
LINE
8
BLACK
6
CONTINUOUS
10
2.79098
20
-7.56815
11
2.78473
21
-7.56648
0
LINE
8
BLACK
6
CONTINUOUS
10
2.78473
20
-7.56648
11
2.77828
21
-7.56591
0
LINE
8
BLACK
6
CONTINUOUS
10
2.77828
20
-7.56591
11
2.77182
21
-7.56648
0
LINE
8
BLACK
6
CONTINUOUS
10
3.58632
20
-7.297
11
3.59316
21
-7.29949
0
LINE
8
BLACK
6
CONTINUOUS
10
3.59316
20
-7.29949
11
3.59946
21
-7.30313
0
LINE
8
BLACK
6
CONTINUOUS
10
3.59946
20
-7.30313
11
3.60503
21
-7.30781
0
LINE
8
BLACK
6
CONTINUOUS
10
3.60503
20
-7.30781
11
3.65514
21
-7.35792
0
LINE
8
BLACK
6
CONTINUOUS
10
3.65514
20
-7.35792
11
3.65514
21
-7.35792
0
LINE
8
BLACK
6
CONTINUOUS
10
3.65514
20
-7.35792
11
3.65981
21
-7.36349
0
LINE
8
BLACK
6
CONTINUOUS
10
3.65981
20
-7.36349
11
3.66345
21
-7.36979
0
LINE
8
BLACK
6
CONTINUOUS
10
3.66345
20
-7.36979
11
3.66594
21
-7.37662
0
LINE
8
BLACK
6
CONTINUOUS
10
3.66594
20
-7.37662
11
3.6672
21
-7.38379
0
LINE
8
BLACK
6
CONTINUOUS
10
3.6672
20
-7.38379
11
3.6672
21
-7.39106
0
LINE
8
BLACK
6
CONTINUOUS
10
3.6672
20
-7.39106
11
3.66594
21
-7.39823
0
LINE
8
BLACK
6
CONTINUOUS
10
3.66594
20
-7.39823
11
3.66345
21
-7.40506
0
LINE
8
BLACK
6
CONTINUOUS
10
3.66345
20
-7.40506
11
3.65981
21
-7.41136
0
LINE
8
BLACK
6
CONTINUOUS
10
3.65981
20
-7.41136
11
3.65514
21
-7.41693
0
LINE
8
BLACK
6
CONTINUOUS
10
3.65514
20
-7.41693
11
3.65514
21
-7.41693
0
LINE
8
BLACK
6
CONTINUOUS
10
3.65514
20
-7.41693
11
3.65514
21
-7.41693
0
LINE
8
BLACK
6
CONTINUOUS
10
3.65514
20
-7.41693
11
3.60503
21
-7.46704
0
LINE
8
BLACK
6
CONTINUOUS
10
3.60503
20
-7.46704
11
3.60503
21
-7.46704
0
LINE
8
BLACK
6
CONTINUOUS
10
3.60503
20
-7.46704
11
3.60503
21
-7.46704
0
LINE
8
BLACK
6
CONTINUOUS
10
3.60503
20
-7.46704
11
3.59946
21
-7.47172
0
LINE
8
BLACK
6
CONTINUOUS
10
3.59946
20
-7.47172
11
3.59316
21
-7.47536
0
LINE
8
BLACK
6
CONTINUOUS
10
3.59316
20
-7.47536
11
3.58632
21
-7.47785
0
LINE
8
BLACK
6
CONTINUOUS
10
3.58632
20
-7.47785
11
3.57916
21
-7.47911
0
LINE
8
BLACK
6
CONTINUOUS
10
3.57916
20
-7.47911
11
3.57188
21
-7.47911
0
LINE
8
BLACK
6
CONTINUOUS
10
3.57188
20
-7.47911
11
3.56472
21
-7.47785
0
LINE
8
BLACK
6
CONTINUOUS
10
3.56472
20
-7.47785
11
3.55788
21
-7.47536
0
LINE
8
BLACK
6
CONTINUOUS
10
3.55788
20
-7.47536
11
3.55158
21
-7.47172
0
LINE
8
BLACK
6
CONTINUOUS
10
3.55158
20
-7.47172
11
3.54601
21
-7.46704
0
LINE
8
BLACK
6
CONTINUOUS
10
3.54601
20
-7.46704
11
3.54601
21
-7.46704
0
LINE
8
BLACK
6
CONTINUOUS
10
3.54601
20
-7.46704
11
3.54601
21
-7.46704
0
LINE
8
BLACK
6
CONTINUOUS
10
3.54601
20
-7.46704
11
3.54601
21
-7.46704
0
LINE
8
BLACK
6
CONTINUOUS
10
3.54601
20
-7.46704
11
3.4959
21
-7.41693
0
LINE
8
BLACK
6
CONTINUOUS
10
3.4959
20
-7.41693
11
3.4959
21
-7.41693
0
LINE
8
BLACK
6
CONTINUOUS
10
3.4959
20
-7.41693
11
3.4959
21
-7.41693
0
LINE
8
BLACK
6
CONTINUOUS
10
3.4959
20
-7.41693
11
3.49122
21
-7.41136
0
LINE
8
BLACK
6
CONTINUOUS
10
3.49122
20
-7.41136
11
3.48759
21
-7.40506
0
LINE
8
BLACK
6
CONTINUOUS
10
3.48759
20
-7.40506
11
3.4851
21
-7.39823
0
LINE
8
BLACK
6
CONTINUOUS
10
3.4851
20
-7.39823
11
3.48384
21
-7.39106
0
LINE
8
BLACK
6
CONTINUOUS
10
3.48384
20
-7.39106
11
3.48384
21
-7.38379
0
LINE
8
BLACK
6
CONTINUOUS
10
3.48384
20
-7.38379
11
3.4851
21
-7.37662
0
LINE
8
BLACK
6
CONTINUOUS
10
3.4851
20
-7.37662
11
3.48759
21
-7.36979
0
LINE
8
BLACK
6
CONTINUOUS
10
3.48759
20
-7.36979
11
3.49122
21
-7.36349
0
LINE
8
BLACK
6
CONTINUOUS
10
3.49122
20
-7.36349
11
3.4959
21
-7.35792
0
LINE
8
BLACK
6
CONTINUOUS
10
3.4959
20
-7.35792
11
3.4959
21
-7.35792
0
LINE
8
BLACK
6
CONTINUOUS
10
3.4959
20
-7.35792
11
3.4959
21
-7.35792
0
LINE
8
BLACK
6
CONTINUOUS
10
3.4959
20
-7.35792
11
3.54601
21
-7.30781
0
LINE
8
BLACK
6
CONTINUOUS
10
3.54601
20
-7.30781
11
3.54601
21
-7.30781
0
LINE
8
BLACK
6
CONTINUOUS
10
3.54601
20
-7.30781
11
3.55158
21
-7.30313
0
LINE
8
BLACK
6
CONTINUOUS
10
3.55158
20
-7.30313
11
3.55788
21
-7.29949
0
LINE
8
BLACK
6
CONTINUOUS
10
3.55788
20
-7.29949
11
3.56472
21
-7.297
0
LINE
8
BLACK
6
CONTINUOUS
10
3.56472
20
-7.297
11
3.57188
21
-7.29574
0
LINE
8
BLACK
6
CONTINUOUS
10
3.57188
20
-7.29574
11
3.57916
21
-7.29574
0
LINE
8
BLACK
6
CONTINUOUS
10
3.57916
20
-7.29574
11
3.58632
21
-7.297
0
LINE
8
BLACK
6
CONTINUOUS
10
3.56907
20
-7.30073
11
3.56281
21
-7.30241
0
LINE
8
BLACK
6
CONTINUOUS
10
3.56281
20
-7.30241
11
3.55695
21
-7.30514
0
LINE
8
BLACK
6
CONTINUOUS
10
3.55695
20
-7.30514
11
3.55164
21
-7.30886
0
LINE
8
BLACK
6
CONTINUOUS
10
3.55164
20
-7.30886
11
3.54935
21
-7.31115
0
LINE
8
BLACK
6
CONTINUOUS
10
3.54935
20
-7.31115
11
3.54935
21
-7.31115
0
LINE
8
BLACK
6
CONTINUOUS
10
3.54935
20
-7.31115
11
3.49924
21
-7.36126
0
LINE
8
BLACK
6
CONTINUOUS
10
3.49924
20
-7.36126
11
3.49924
21
-7.36126
0
LINE
8
BLACK
6
CONTINUOUS
10
3.49924
20
-7.36126
11
3.49924
21
-7.36126
0
LINE
8
BLACK
6
CONTINUOUS
10
3.49924
20
-7.36126
11
3.49695
21
-7.36355
0
LINE
8
BLACK
6
CONTINUOUS
10
3.49695
20
-7.36355
11
3.49324
21
-7.36885
0
LINE
8
BLACK
6
CONTINUOUS
10
3.49324
20
-7.36885
11
3.4905
21
-7.37472
0
LINE
8
BLACK
6
CONTINUOUS
10
3.4905
20
-7.37472
11
3.48882
21
-7.38097
0
LINE
8
BLACK
6
CONTINUOUS
10
3.48882
20
-7.38097
11
3.48826
21
-7.38743
0
LINE
8
BLACK
6
CONTINUOUS
10
3.48826
20
-7.38743
11
3.48882
21
-7.39388
0
LINE
8
BLACK
6
CONTINUOUS
10
3.48882
20
-7.39388
11
3.4905
21
-7.40013
0
LINE
8
BLACK
6
CONTINUOUS
10
3.4905
20
-7.40013
11
3.49324
21
-7.406
0
LINE
8
BLACK
6
CONTINUOUS
10
3.49324
20
-7.406
11
3.49695
21
-7.4113
0
LINE
8
BLACK
6
CONTINUOUS
10
3.49695
20
-7.4113
11
3.49924
21
-7.41359
0
LINE
8
BLACK
6
CONTINUOUS
10
3.49924
20
-7.41359
11
3.49924
21
-7.41359
0
LINE
8
BLACK
6
CONTINUOUS
10
3.49924
20
-7.41359
11
3.49924
21
-7.41359
0
LINE
8
BLACK
6
CONTINUOUS
10
3.49924
20
-7.41359
11
3.54935
21
-7.4637
0
LINE
8
BLACK
6
CONTINUOUS
10
3.54935
20
-7.4637
11
3.54935
21
-7.4637
0
LINE
8
BLACK
6
CONTINUOUS
10
3.54935
20
-7.4637
11
3.55164
21
-7.46599
0
LINE
8
BLACK
6
CONTINUOUS
10
3.55164
20
-7.46599
11
3.55695
21
-7.46971
0
LINE
8
BLACK
6
CONTINUOUS
10
3.55695
20
-7.46971
11
3.56281
21
-7.47244
0
LINE
8
BLACK
6
CONTINUOUS
10
3.56281
20
-7.47244
11
3.56907
21
-7.47412
0
LINE
8
BLACK
6
CONTINUOUS
10
3.56907
20
-7.47412
11
3.57552
21
-7.47468
0
LINE
8
BLACK
6
CONTINUOUS
10
3.57552
20
-7.47468
11
3.58197
21
-7.47412
0
LINE
8
BLACK
6
CONTINUOUS
10
3.58197
20
-7.47412
11
3.58823
21
-7.47244
0
LINE
8
BLACK
6
CONTINUOUS
10
3.58823
20
-7.47244
11
3.59409
21
-7.46971
0
LINE
8
BLACK
6
CONTINUOUS
10
3.59409
20
-7.46971
11
3.5994
21
-7.46599
0
LINE
8
BLACK
6
CONTINUOUS
10
3.5994
20
-7.46599
11
3.60169
21
-7.4637
0
LINE
8
BLACK
6
CONTINUOUS
10
3.60169
20
-7.4637
11
3.60169
21
-7.4637
0
LINE
8
BLACK
6
CONTINUOUS
10
3.60169
20
-7.4637
11
3.60169
21
-7.4637
0
LINE
8
BLACK
6
CONTINUOUS
10
3.60169
20
-7.4637
11
3.6518
21
-7.41359
0
LINE
8
BLACK
6
CONTINUOUS
10
3.6518
20
-7.41359
11
3.6518
21
-7.41359
0
LINE
8
BLACK
6
CONTINUOUS
10
3.6518
20
-7.41359
11
3.6518
21
-7.41359
0
LINE
8
BLACK
6
CONTINUOUS
10
3.6518
20
-7.41359
11
3.65409
21
-7.4113
0
LINE
8
BLACK
6
CONTINUOUS
10
3.65409
20
-7.4113
11
3.6578
21
-7.406
0
LINE
8
BLACK
6
CONTINUOUS
10
3.6578
20
-7.406
11
3.66054
21
-7.40013
0
LINE
8
BLACK
6
CONTINUOUS
10
3.66054
20
-7.40013
11
3.66221
21
-7.39388
0
LINE
8
BLACK
6
CONTINUOUS
10
3.66221
20
-7.39388
11
3.66278
21
-7.38743
0
LINE
8
BLACK
6
CONTINUOUS
10
3.66278
20
-7.38743
11
3.66221
21
-7.38097
0
LINE
8
BLACK
6
CONTINUOUS
10
3.66221
20
-7.38097
11
3.66054
21
-7.37472
0
LINE
8
BLACK
6
CONTINUOUS
10
3.66054
20
-7.37472
11
3.6578
21
-7.36885
0
LINE
8
BLACK
6
CONTINUOUS
10
3.6578
20
-7.36885
11
3.65409
21
-7.36355
0
LINE
8
BLACK
6
CONTINUOUS
10
3.65409
20
-7.36355
11
3.6518
21
-7.36126
0
LINE
8
BLACK
6
CONTINUOUS
10
3.6518
20
-7.36126
11
3.6518
21
-7.36126
0
LINE
8
BLACK
6
CONTINUOUS
10
3.6518
20
-7.36126
11
3.60169
21
-7.31115
0
LINE
8
BLACK
6
CONTINUOUS
10
3.60169
20
-7.31115
11
3.60169
21
-7.31115
0
LINE
8
BLACK
6
CONTINUOUS
10
3.60169
20
-7.31115
11
3.5994
21
-7.30886
0
LINE
8
BLACK
6
CONTINUOUS
10
3.5994
20
-7.30886
11
3.59409
21
-7.30514
0
LINE
8
BLACK
6
CONTINUOUS
10
3.59409
20
-7.30514
11
3.58823
21
-7.30241
0
LINE
8
BLACK
6
CONTINUOUS
10
3.58823
20
-7.30241
11
3.58197
21
-7.30073
0
LINE
8
BLACK
6
CONTINUOUS
10
3.58197
20
-7.30073
11
3.57552
21
-7.30017
0
LINE
8
BLACK
6
CONTINUOUS
10
3.57552
20
-7.30017
11
3.56907
21
-7.30073
0
LINE
8
BLACK
6
CONTINUOUS
10
3.32057
20
-7.297
11
3.32741
21
-7.29949
0
LINE
8
BLACK
6
CONTINUOUS
10
3.32741
20
-7.29949
11
3.33371
21
-7.30313
0
LINE
8
BLACK
6
CONTINUOUS
10
3.33371
20
-7.30313
11
3.33928
21
-7.30781
0
LINE
8
BLACK
6
CONTINUOUS
10
3.33928
20
-7.30781
11
3.38939
21
-7.35792
0
LINE
8
BLACK
6
CONTINUOUS
10
3.38939
20
-7.35792
11
3.38939
21
-7.35792
0
LINE
8
BLACK
6
CONTINUOUS
10
3.38939
20
-7.35792
11
3.39407
21
-7.36349
0
LINE
8
BLACK
6
CONTINUOUS
10
3.39407
20
-7.36349
11
3.3977
21
-7.36979
0
LINE
8
BLACK
6
CONTINUOUS
10
3.3977
20
-7.36979
11
3.40019
21
-7.37662
0
LINE
8
BLACK
6
CONTINUOUS
10
3.40019
20
-7.37662
11
3.40146
21
-7.38379
0
LINE
8
BLACK
6
CONTINUOUS
10
3.40146
20
-7.38379
11
3.40146
21
-7.39106
0
LINE
8
BLACK
6
CONTINUOUS
10
3.40146
20
-7.39106
11
3.40019
21
-7.39823
0
LINE
8
BLACK
6
CONTINUOUS
10
3.40019
20
-7.39823
11
3.3977
21
-7.40506
0
LINE
8
BLACK
6
CONTINUOUS
10
3.3977
20
-7.40506
11
3.39407
21
-7.41136
0
LINE
8
BLACK
6
CONTINUOUS
10
3.39407
20
-7.41136
11
3.38939
21
-7.41693
0
LINE
8
BLACK
6
CONTINUOUS
10
3.38939
20
-7.41693
11
3.38939
21
-7.41693
0
LINE
8
BLACK
6
CONTINUOUS
10
3.38939
20
-7.41693
11
3.38939
21
-7.41693
0
LINE
8
BLACK
6
CONTINUOUS
10
3.38939
20
-7.41693
11
3.33928
21
-7.46704
0
LINE
8
BLACK
6
CONTINUOUS
10
3.33928
20
-7.46704
11
3.33928
21
-7.46704
0
LINE
8
BLACK
6
CONTINUOUS
10
3.33928
20
-7.46704
11
3.33928
21
-7.46704
0
LINE
8
BLACK
6
CONTINUOUS
10
3.33928
20
-7.46704
11
3.33371
21
-7.47172
0
LINE
8
BLACK
6
CONTINUOUS
10
3.33371
20
-7.47172
11
3.32741
21
-7.47536
0
LINE
8
BLACK
6
CONTINUOUS
10
3.32741
20
-7.47536
11
3.32057
21
-7.47785
0
LINE
8
BLACK
6
CONTINUOUS
10
3.32057
20
-7.47785
11
3.31341
21
-7.47911
0
LINE
8
BLACK
6
CONTINUOUS
10
3.31341
20
-7.47911
11
3.30613
21
-7.47911
0
LINE
8
BLACK
6
CONTINUOUS
10
3.30613
20
-7.47911
11
3.29897
21
-7.47785
0
LINE
8
BLACK
6
CONTINUOUS
10
3.29897
20
-7.47785
11
3.29214
21
-7.47536
0
LINE
8
BLACK
6
CONTINUOUS
10
3.29214
20
-7.47536
11
3.28584
21
-7.47172
0
LINE
8
BLACK
6
CONTINUOUS
10
3.28584
20
-7.47172
11
3.28026
21
-7.46704
0
LINE
8
BLACK
6
CONTINUOUS
10
3.28026
20
-7.46704
11
3.28026
21
-7.46704
0
LINE
8
BLACK
6
CONTINUOUS
10
3.28026
20
-7.46704
11
3.28026
21
-7.46704
0
LINE
8
BLACK
6
CONTINUOUS
10
3.28026
20
-7.46704
11
3.28026
21
-7.46704
0
LINE
8
BLACK
6
CONTINUOUS
10
3.28026
20
-7.46704
11
3.23015
21
-7.41693
0
LINE
8
BLACK
6
CONTINUOUS
10
3.23015
20
-7.41693
11
3.23015
21
-7.41693
0
LINE
8
BLACK
6
CONTINUOUS
10
3.23015
20
-7.41693
11
3.23015
21
-7.41693
0
LINE
8
BLACK
6
CONTINUOUS
10
3.23015
20
-7.41693
11
3.22548
21
-7.41136
0
LINE
8
BLACK
6
CONTINUOUS
10
3.22548
20
-7.41136
11
3.22184
21
-7.40506
0
LINE
8
BLACK
6
CONTINUOUS
10
3.22184
20
-7.40506
11
3.21935
21
-7.39823
0
LINE
8
BLACK
6
CONTINUOUS
10
3.21935
20
-7.39823
11
3.21809
21
-7.39106
0
LINE
8
BLACK
6
CONTINUOUS
10
3.21809
20
-7.39106
11
3.21809
21
-7.38379
0
LINE
8
BLACK
6
CONTINUOUS
10
3.21809
20
-7.38379
11
3.21935
21
-7.37662
0
LINE
8
BLACK
6
CONTINUOUS
10
3.21935
20
-7.37662
11
3.22184
21
-7.36979
0
LINE
8
BLACK
6
CONTINUOUS
10
3.22184
20
-7.36979
11
3.22548
21
-7.36349
0
LINE
8
BLACK
6
CONTINUOUS
10
3.22548
20
-7.36349
11
3.23015
21
-7.35792
0
LINE
8
BLACK
6
CONTINUOUS
10
3.23015
20
-7.35792
11
3.23015
21
-7.35792
0
LINE
8
BLACK
6
CONTINUOUS
10
3.23015
20
-7.35792
11
3.23015
21
-7.35792
0
LINE
8
BLACK
6
CONTINUOUS
10
3.23015
20
-7.35792
11
3.28026
21
-7.30781
0
LINE
8
BLACK
6
CONTINUOUS
10
3.28026
20
-7.30781
11
3.28026
21
-7.30781
0
LINE
8
BLACK
6
CONTINUOUS
10
3.28026
20
-7.30781
11
3.28584
21
-7.30313
0
LINE
8
BLACK
6
CONTINUOUS
10
3.28584
20
-7.30313
11
3.29213
21
-7.29949
0
LINE
8
BLACK
6
CONTINUOUS
10
3.29213
20
-7.29949
11
3.29897
21
-7.297
0
LINE
8
BLACK
6
CONTINUOUS
10
3.29897
20
-7.297
11
3.30613
21
-7.29574
0
LINE
8
BLACK
6
CONTINUOUS
10
3.30613
20
-7.29574
11
3.31341
21
-7.29574
0
LINE
8
BLACK
6
CONTINUOUS
10
3.31341
20
-7.29574
11
3.32057
21
-7.297
0
LINE
8
BLACK
6
CONTINUOUS
10
3.30332
20
-7.30073
11
3.29707
21
-7.30241
0
LINE
8
BLACK
6
CONTINUOUS
10
3.29707
20
-7.30241
11
3.2912
21
-7.30514
0
LINE
8
BLACK
6
CONTINUOUS
10
3.2912
20
-7.30514
11
3.28589
21
-7.30886
0
LINE
8
BLACK
6
CONTINUOUS
10
3.28589
20
-7.30886
11
3.2836
21
-7.31115
0
LINE
8
BLACK
6
CONTINUOUS
10
3.2836
20
-7.31115
11
3.2836
21
-7.31115
0
LINE
8
BLACK
6
CONTINUOUS
10
3.2836
20
-7.31115
11
3.23349
21
-7.36126
0
LINE
8
BLACK
6
CONTINUOUS
10
3.23349
20
-7.36126
11
3.23349
21
-7.36126
0
LINE
8
BLACK
6
CONTINUOUS
10
3.23349
20
-7.36126
11
3.23349
21
-7.36126
0
LINE
8
BLACK
6
CONTINUOUS
10
3.23349
20
-7.36126
11
3.2312
21
-7.36355
0
LINE
8
BLACK
6
CONTINUOUS
10
3.2312
20
-7.36355
11
3.22749
21
-7.36885
0
LINE
8
BLACK
6
CONTINUOUS
10
3.22749
20
-7.36885
11
3.22475
21
-7.37472
0
LINE
8
BLACK
6
CONTINUOUS
10
3.22475
20
-7.37472
11
3.22308
21
-7.38097
0
LINE
8
BLACK
6
CONTINUOUS
10
3.22308
20
-7.38097
11
3.22251
21
-7.38743
0
LINE
8
BLACK
6
CONTINUOUS
10
3.22251
20
-7.38743
11
3.22308
21
-7.39388
0
LINE
8
BLACK
6
CONTINUOUS
10
3.22308
20
-7.39388
11
3.22475
21
-7.40013
0
LINE
8
BLACK
6
CONTINUOUS
10
3.22475
20
-7.40013
11
3.22749
21
-7.406
0
LINE
8
BLACK
6
CONTINUOUS
10
3.22749
20
-7.406
11
3.2312
21
-7.4113
0
LINE
8
BLACK
6
CONTINUOUS
10
3.2312
20
-7.4113
11
3.23349
21
-7.41359
0
LINE
8
BLACK
6
CONTINUOUS
10
3.23349
20
-7.41359
11
3.23349
21
-7.41359
0
LINE
8
BLACK
6
CONTINUOUS
10
3.23349
20
-7.41359
11
3.23349
21
-7.41359
0
LINE
8
BLACK
6
CONTINUOUS
10
3.23349
20
-7.41359
11
3.2836
21
-7.4637
0
LINE
8
BLACK
6
CONTINUOUS
10
3.2836
20
-7.4637
11
3.2836
21
-7.4637
0
LINE
8
BLACK
6
CONTINUOUS
10
3.2836
20
-7.4637
11
3.28589
21
-7.46599
0
LINE
8
BLACK
6
CONTINUOUS
10
3.28589
20
-7.46599
11
3.2912
21
-7.46971
0
LINE
8
BLACK
6
CONTINUOUS
10
3.2912
20
-7.46971
11
3.29707
21
-7.47244
0
LINE
8
BLACK
6
CONTINUOUS
10
3.29707
20
-7.47244
11
3.30332
21
-7.47412
0
LINE
8
BLACK
6
CONTINUOUS
10
3.30332
20
-7.47412
11
3.30977
21
-7.47468
0
LINE
8
BLACK
6
CONTINUOUS
10
3.30977
20
-7.47468
11
3.31622
21
-7.47412
0
LINE
8
BLACK
6
CONTINUOUS
10
3.31622
20
-7.47412
11
3.32248
21
-7.47244
0
LINE
8
BLACK
6
CONTINUOUS
10
3.32248
20
-7.47244
11
3.32835
21
-7.46971
0
LINE
8
BLACK
6
CONTINUOUS
10
3.32835
20
-7.46971
11
3.33365
21
-7.46599
0
LINE
8
BLACK
6
CONTINUOUS
10
3.33365
20
-7.46599
11
3.33594
21
-7.4637
0
LINE
8
BLACK
6
CONTINUOUS
10
3.33594
20
-7.4637
11
3.33594
21
-7.4637
0
LINE
8
BLACK
6
CONTINUOUS
10
3.33594
20
-7.4637
11
3.33594
21
-7.4637
0
LINE
8
BLACK
6
CONTINUOUS
10
3.33594
20
-7.4637
11
3.38605
21
-7.41359
0
LINE
8
BLACK
6
CONTINUOUS
10
3.38605
20
-7.41359
11
3.38605
21
-7.41359
0
LINE
8
BLACK
6
CONTINUOUS
10
3.38605
20
-7.41359
11
3.38605
21
-7.41359
0
LINE
8
BLACK
6
CONTINUOUS
10
3.38605
20
-7.41359
11
3.38834
21
-7.4113
0
LINE
8
BLACK
6
CONTINUOUS
10
3.38834
20
-7.4113
11
3.39205
21
-7.406
0
LINE
8
BLACK
6
CONTINUOUS
10
3.39205
20
-7.406
11
3.39479
21
-7.40013
0
LINE
8
BLACK
6
CONTINUOUS
10
3.39479
20
-7.40013
11
3.39647
21
-7.39388
0
LINE
8
BLACK
6
CONTINUOUS
10
3.39647
20
-7.39388
11
3.39703
21
-7.38743
0
LINE
8
BLACK
6
CONTINUOUS
10
3.39703
20
-7.38743
11
3.39647
21
-7.38097
0
LINE
8
BLACK
6
CONTINUOUS
10
3.39647
20
-7.38097
11
3.39479
21
-7.37472
0
LINE
8
BLACK
6
CONTINUOUS
10
3.39479
20
-7.37472
11
3.39205
21
-7.36885
0
LINE
8
BLACK
6
CONTINUOUS
10
3.39205
20
-7.36885
11
3.38834
21
-7.36355
0
LINE
8
BLACK
6
CONTINUOUS
10
3.38834
20
-7.36355
11
3.38605
21
-7.36126
0
LINE
8
BLACK
6
CONTINUOUS
10
3.38605
20
-7.36126
11
3.38605
21
-7.36126
0
LINE
8
BLACK
6
CONTINUOUS
10
3.38605
20
-7.36126
11
3.33594
21
-7.31115
0
LINE
8
BLACK
6
CONTINUOUS
10
3.33594
20
-7.31115
11
3.33594
21
-7.31115
0
LINE
8
BLACK
6
CONTINUOUS
10
3.33594
20
-7.31115
11
3.33365
21
-7.30886
0
LINE
8
BLACK
6
CONTINUOUS
10
3.33365
20
-7.30886
11
3.32835
21
-7.30514
0
LINE
8
BLACK
6
CONTINUOUS
10
3.32835
20
-7.30514
11
3.32248
21
-7.30241
0
LINE
8
BLACK
6
CONTINUOUS
10
3.32248
20
-7.30241
11
3.31622
21
-7.30073
0
LINE
8
BLACK
6
CONTINUOUS
10
3.31622
20
-7.30073
11
3.30977
21
-7.30017
0
LINE
8
BLACK
6
CONTINUOUS
10
3.30977
20
-7.30017
11
3.30332
21
-7.30073
0
LINE
8
BLACK
6
CONTINUOUS
10
3.05482
20
-7.297
11
3.06166
21
-7.29949
0
LINE
8
BLACK
6
CONTINUOUS
10
3.06166
20
-7.29949
11
3.06796
21
-7.30313
0
LINE
8
BLACK
6
CONTINUOUS
10
3.06796
20
-7.30313
11
3.07353
21
-7.30781
0
LINE
8
BLACK
6
CONTINUOUS
10
3.07353
20
-7.30781
11
3.12364
21
-7.35792
0
LINE
8
BLACK
6
CONTINUOUS
10
3.12364
20
-7.35792
11
3.12364
21
-7.35792
0
LINE
8
BLACK
6
CONTINUOUS
10
3.12364
20
-7.35792
11
3.12832
21
-7.36349
0
LINE
8
BLACK
6
CONTINUOUS
10
3.12832
20
-7.36349
11
3.13196
21
-7.36979
0
LINE
8
BLACK
6
CONTINUOUS
10
3.13196
20
-7.36979
11
3.13444
21
-7.37662
0
LINE
8
BLACK
6
CONTINUOUS
10
3.13444
20
-7.37662
11
3.13571
21
-7.38379
0
LINE
8
BLACK
6
CONTINUOUS
10
3.13571
20
-7.38379
11
3.13571
21
-7.39106
0
LINE
8
BLACK
6
CONTINUOUS
10
3.13571
20
-7.39106
11
3.13444
21
-7.39823
0
LINE
8
BLACK
6
CONTINUOUS
10
3.13444
20
-7.39823
11
3.13196
21
-7.40506
0
LINE
8
BLACK
6
CONTINUOUS
10
3.13196
20
-7.40506
11
3.12832
21
-7.41136
0
LINE
8
BLACK
6
CONTINUOUS
10
3.12832
20
-7.41136
11
3.12364
21
-7.41693
0
LINE
8
BLACK
6
CONTINUOUS
10
3.12364
20
-7.41693
11
3.12364
21
-7.41693
0
LINE
8
BLACK
6
CONTINUOUS
10
3.12364
20
-7.41693
11
3.12364
21
-7.41693
0
LINE
8
BLACK
6
CONTINUOUS
10
3.12364
20
-7.41693
11
3.07353
21
-7.46704
0
LINE
8
BLACK
6
CONTINUOUS
10
3.07353
20
-7.46704
11
3.07353
21
-7.46704
0
LINE
8
BLACK
6
CONTINUOUS
10
3.07353
20
-7.46704
11
3.07353
21
-7.46704
0
LINE
8
BLACK
6
CONTINUOUS
10
3.07353
20
-7.46704
11
3.06796
21
-7.47172
0
LINE
8
BLACK
6
CONTINUOUS
10
3.06796
20
-7.47172
11
3.06166
21
-7.47536
0
LINE
8
BLACK
6
CONTINUOUS
10
3.06166
20
-7.47536
11
3.05482
21
-7.47785
0
LINE
8
BLACK
6
CONTINUOUS
10
3.05482
20
-7.47785
11
3.04766
21
-7.47911
0
LINE
8
BLACK
6
CONTINUOUS
10
3.04766
20
-7.47911
11
3.04039
21
-7.47911
0
LINE
8
BLACK
6
CONTINUOUS
10
3.04039
20
-7.47911
11
3.03322
21
-7.47785
0
LINE
8
BLACK
6
CONTINUOUS
10
3.03322
20
-7.47785
11
3.02639
21
-7.47536
0
LINE
8
BLACK
6
CONTINUOUS
10
3.02639
20
-7.47536
11
3.02009
21
-7.47172
0
LINE
8
BLACK
6
CONTINUOUS
10
3.02009
20
-7.47172
11
3.01451
21
-7.46704
0
LINE
8
BLACK
6
CONTINUOUS
10
3.01451
20
-7.46704
11
3.01451
21
-7.46704
0
LINE
8
BLACK
6
CONTINUOUS
10
3.01451
20
-7.46704
11
3.01451
21
-7.46704
0
LINE
8
BLACK
6
CONTINUOUS
10
3.01451
20
-7.46704
11
3.01451
21
-7.46704
0
LINE
8
BLACK
6
CONTINUOUS
10
3.01451
20
-7.46704
11
2.9644
21
-7.41693
0
LINE
8
BLACK
6
CONTINUOUS
10
2.9644
20
-7.41693
11
2.9644
21
-7.41693
0
LINE
8
BLACK
6
CONTINUOUS
10
2.9644
20
-7.41693
11
2.9644
21
-7.41693
0
LINE
8
BLACK
6
CONTINUOUS
10
2.9644
20
-7.41693
11
2.95973
21
-7.41136
0
LINE
8
BLACK
6
CONTINUOUS
10
2.95973
20
-7.41136
11
2.95609
21
-7.40506
0
LINE
8
BLACK
6
CONTINUOUS
10
2.95609
20
-7.40506
11
2.9536
21
-7.39823
0
LINE
8
BLACK
6
CONTINUOUS
10
2.9536
20
-7.39823
11
2.95234
21
-7.39106
0
LINE
8
BLACK
6
CONTINUOUS
10
2.95234
20
-7.39106
11
2.95234
21
-7.38379
0
LINE
8
BLACK
6
CONTINUOUS
10
2.95234
20
-7.38379
11
2.9536
21
-7.37662
0
LINE
8
BLACK
6
CONTINUOUS
10
2.9536
20
-7.37662
11
2.95609
21
-7.36979
0
LINE
8
BLACK
6
CONTINUOUS
10
2.95609
20
-7.36979
11
2.95973
21
-7.36349
0
LINE
8
BLACK
6
CONTINUOUS
10
2.95973
20
-7.36349
11
2.9644
21
-7.35792
0
LINE
8
BLACK
6
CONTINUOUS
10
2.9644
20
-7.35792
11
2.9644
21
-7.35792
0
LINE
8
BLACK
6
CONTINUOUS
10
2.9644
20
-7.35792
11
2.9644
21
-7.35792
0
LINE
8
BLACK
6
CONTINUOUS
10
2.9644
20
-7.35792
11
3.01451
21
-7.30781
0
LINE
8
BLACK
6
CONTINUOUS
10
3.01451
20
-7.30781
11
3.01451
21
-7.30781
0
LINE
8
BLACK
6
CONTINUOUS
10
3.01451
20
-7.30781
11
3.02009
21
-7.30313
0
LINE
8
BLACK
6
CONTINUOUS
10
3.02009
20
-7.30313
11
3.02639
21
-7.29949
0
LINE
8
BLACK
6
CONTINUOUS
10
3.02639
20
-7.29949
11
3.03322
21
-7.297
0
LINE
8
BLACK
6
CONTINUOUS
10
3.03322
20
-7.297
11
3.04039
21
-7.29574
0
LINE
8
BLACK
6
CONTINUOUS
10
3.04039
20
-7.29574
11
3.04766
21
-7.29574
0
LINE
8
BLACK
6
CONTINUOUS
10
3.04766
20
-7.29574
11
3.05482
21
-7.297
0
LINE
8
BLACK
6
CONTINUOUS
10
3.03757
20
-7.30073
11
3.03132
21
-7.30241
0
LINE
8
BLACK
6
CONTINUOUS
10
3.03132
20
-7.30241
11
3.02545
21
-7.30514
0
LINE
8
BLACK
6
CONTINUOUS
10
3.02545
20
-7.30514
11
3.02014
21
-7.30886
0
LINE
8
BLACK
6
CONTINUOUS
10
3.02014
20
-7.30886
11
3.01786
21
-7.31115
0
LINE
8
BLACK
6
CONTINUOUS
10
3.01786
20
-7.31115
11
3.01786
21
-7.31115
0
LINE
8
BLACK
6
CONTINUOUS
10
3.01786
20
-7.31115
11
2.96775
21
-7.36126
0
LINE
8
BLACK
6
CONTINUOUS
10
2.96775
20
-7.36126
11
2.96775
21
-7.36126
0
LINE
8
BLACK
6
CONTINUOUS
10
2.96775
20
-7.36126
11
2.96775
21
-7.36126
0
LINE
8
BLACK
6
CONTINUOUS
10
2.96775
20
-7.36126
11
2.96546
21
-7.36355
0
LINE
8
BLACK
6
CONTINUOUS
10
2.96546
20
-7.36355
11
2.96174
21
-7.36885
0
LINE
8
BLACK
6
CONTINUOUS
10
2.96174
20
-7.36885
11
2.959
21
-7.37472
0
LINE
8
BLACK
6
CONTINUOUS
10
2.959
20
-7.37472
11
2.95733
21
-7.38097
0
LINE
8
BLACK
6
CONTINUOUS
10
2.95733
20
-7.38097
11
2.95676
21
-7.38743
0
LINE
8
BLACK
6
CONTINUOUS
10
2.95676
20
-7.38743
11
2.95733
21
-7.39388
0
LINE
8
BLACK
6
CONTINUOUS
10
2.95733
20
-7.39388
11
2.959
21
-7.40013
0
LINE
8
BLACK
6
CONTINUOUS
10
2.959
20
-7.40013
11
2.96174
21
-7.406
0
LINE
8
BLACK
6
CONTINUOUS
10
2.96174
20
-7.406
11
2.96546
21
-7.4113
0
LINE
8
BLACK
6
CONTINUOUS
10
2.96546
20
-7.4113
11
2.96775
21
-7.41359
0
LINE
8
BLACK
6
CONTINUOUS
10
2.96775
20
-7.41359
11
2.96775
21
-7.41359
0
LINE
8
BLACK
6
CONTINUOUS
10
2.96775
20
-7.41359
11
2.96775
21
-7.41359
0
LINE
8
BLACK
6
CONTINUOUS
10
2.96775
20
-7.41359
11
3.01786
21
-7.4637
0
LINE
8
BLACK
6
CONTINUOUS
10
3.01786
20
-7.4637
11
3.01786
21
-7.4637
0
LINE
8
BLACK
6
CONTINUOUS
10
3.01786
20
-7.4637
11
3.02014
21
-7.46599
0
LINE
8
BLACK
6
CONTINUOUS
10
3.02014
20
-7.46599
11
3.02545
21
-7.46971
0
LINE
8
BLACK
6
CONTINUOUS
10
3.02545
20
-7.46971
11
3.03132
21
-7.47244
0
LINE
8
BLACK
6
CONTINUOUS
10
3.03132
20
-7.47244
11
3.03757
21
-7.47412
0
LINE
8
BLACK
6
CONTINUOUS
10
3.03757
20
-7.47412
11
3.04402
21
-7.47468
0
LINE
8
BLACK
6
CONTINUOUS
10
3.04402
20
-7.47468
11
3.05047
21
-7.47412
0
LINE
8
BLACK
6
CONTINUOUS
10
3.05047
20
-7.47412
11
3.05673
21
-7.47244
0
LINE
8
BLACK
6
CONTINUOUS
10
3.05673
20
-7.47244
11
3.0626
21
-7.46971
0
LINE
8
BLACK
6
CONTINUOUS
10
3.0626
20
-7.46971
11
3.0679
21
-7.46599
0
LINE
8
BLACK
6
CONTINUOUS
10
3.0679
20
-7.46599
11
3.07019
21
-7.4637
0
LINE
8
BLACK
6
CONTINUOUS
10
3.07019
20
-7.4637
11
3.07019
21
-7.4637
0
LINE
8
BLACK
6
CONTINUOUS
10
3.07019
20
-7.4637
11
3.07019
21
-7.4637
0
LINE
8
BLACK
6
CONTINUOUS
10
3.07019
20
-7.4637
11
3.1203
21
-7.41359
0
LINE
8
BLACK
6
CONTINUOUS
10
3.1203
20
-7.41359
11
3.1203
21
-7.41359
0
LINE
8
BLACK
6
CONTINUOUS
10
3.1203
20
-7.41359
11
3.1203
21
-7.41359
0
LINE
8
BLACK
6
CONTINUOUS
10
3.1203
20
-7.41359
11
3.12259
21
-7.4113
0
LINE
8
BLACK
6
CONTINUOUS
10
3.12259
20
-7.4113
11
3.12631
21
-7.406
0
LINE
8
BLACK
6
CONTINUOUS
10
3.12631
20
-7.406
11
3.12904
21
-7.40013
0
LINE
8
BLACK
6
CONTINUOUS
10
3.12904
20
-7.40013
11
3.13072
21
-7.39388
0
LINE
8
BLACK
6
CONTINUOUS
10
3.13072
20
-7.39388
11
3.13128
21
-7.38743
0
LINE
8
BLACK
6
CONTINUOUS
10
3.13128
20
-7.38743
11
3.13072
21
-7.38097
0
LINE
8
BLACK
6
CONTINUOUS
10
3.13072
20
-7.38097
11
3.12904
21
-7.37472
0
LINE
8
BLACK
6
CONTINUOUS
10
3.12904
20
-7.37472
11
3.12631
21
-7.36885
0
LINE
8
BLACK
6
CONTINUOUS
10
3.12631
20
-7.36885
11
3.12259
21
-7.36355
0
LINE
8
BLACK
6
CONTINUOUS
10
3.12259
20
-7.36355
11
3.1203
21
-7.36126
0
LINE
8
BLACK
6
CONTINUOUS
10
3.1203
20
-7.36126
11
3.1203
21
-7.36126
0
LINE
8
BLACK
6
CONTINUOUS
10
3.1203
20
-7.36126
11
3.07019
21
-7.31115
0
LINE
8
BLACK
6
CONTINUOUS
10
3.07019
20
-7.31115
11
3.07019
21
-7.31115
0
LINE
8
BLACK
6
CONTINUOUS
10
3.07019
20
-7.31115
11
3.0679
21
-7.30886
0
LINE
8
BLACK
6
CONTINUOUS
10
3.0679
20
-7.30886
11
3.0626
21
-7.30514
0
LINE
8
BLACK
6
CONTINUOUS
10
3.0626
20
-7.30514
11
3.05673
21
-7.30241
0
LINE
8
BLACK
6
CONTINUOUS
10
3.05673
20
-7.30241
11
3.05047
21
-7.30073
0
LINE
8
BLACK
6
CONTINUOUS
10
3.05047
20
-7.30073
11
3.04402
21
-7.30017
0
LINE
8
BLACK
6
CONTINUOUS
10
3.04402
20
-7.30017
11
3.03757
21
-7.30073
0
LINE
8
BLACK
6
CONTINUOUS
10
2.78908
20
-7.297
11
2.79591
21
-7.29949
0
LINE
8
BLACK
6
CONTINUOUS
10
2.79591
20
-7.29949
11
2.80221
21
-7.30313
0
LINE
8
BLACK
6
CONTINUOUS
10
2.80221
20
-7.30313
11
2.80778
21
-7.30781
0
LINE
8
BLACK
6
CONTINUOUS
10
2.80778
20
-7.30781
11
2.85789
21
-7.35792
0
LINE
8
BLACK
6
CONTINUOUS
10
2.85789
20
-7.35792
11
2.85789
21
-7.35792
0
LINE
8
BLACK
6
CONTINUOUS
10
2.85789
20
-7.35792
11
2.86257
21
-7.36349
0
LINE
8
BLACK
6
CONTINUOUS
10
2.86257
20
-7.36349
11
2.86621
21
-7.36979
0
LINE
8
BLACK
6
CONTINUOUS
10
2.86621
20
-7.36979
11
2.8687
21
-7.37662
0
LINE
8
BLACK
6
CONTINUOUS
10
2.8687
20
-7.37662
11
2.86996
21
-7.38379
0
LINE
8
BLACK
6
CONTINUOUS
10
2.86996
20
-7.38379
11
2.86996
21
-7.39106
0
LINE
8
BLACK
6
CONTINUOUS
10
2.86996
20
-7.39106
11
2.8687
21
-7.39823
0
LINE
8
BLACK
6
CONTINUOUS
10
2.8687
20
-7.39823
11
2.86621
21
-7.40506
0
LINE
8
BLACK
6
CONTINUOUS
10
2.86621
20
-7.40506
11
2.86257
21
-7.41136
0
LINE
8
BLACK
6
CONTINUOUS
10
2.86257
20
-7.41136
11
2.85789
21
-7.41693
0
LINE
8
BLACK
6
CONTINUOUS
10
2.85789
20
-7.41693
11
2.85789
21
-7.41693
0
LINE
8
BLACK
6
CONTINUOUS
10
2.85789
20
-7.41693
11
2.85789
21
-7.41693
0
LINE
8
BLACK
6
CONTINUOUS
10
2.85789
20
-7.41693
11
2.80778
21
-7.46704
0
LINE
8
BLACK
6
CONTINUOUS
10
2.80778
20
-7.46704
11
2.80778
21
-7.46704
0
LINE
8
BLACK
6
CONTINUOUS
10
2.80778
20
-7.46704
11
2.80778
21
-7.46704
0
LINE
8
BLACK
6
CONTINUOUS
10
2.80778
20
-7.46704
11
2.80221
21
-7.47172
0
LINE
8
BLACK
6
CONTINUOUS
10
2.80221
20
-7.47172
11
2.79591
21
-7.47536
0
LINE
8
BLACK
6
CONTINUOUS
10
2.79591
20
-7.47536
11
2.78908
21
-7.47785
0
LINE
8
BLACK
6
CONTINUOUS
10
2.78908
20
-7.47785
11
2.78191
21
-7.47911
0
LINE
8
BLACK
6
CONTINUOUS
10
2.78191
20
-7.47911
11
2.77464
21
-7.47911
0
LINE
8
BLACK
6
CONTINUOUS
10
2.77464
20
-7.47911
11
2.76747
21
-7.47785
0
LINE
8
BLACK
6
CONTINUOUS
10
2.76747
20
-7.47785
11
2.76064
21
-7.47536
0
LINE
8
BLACK
6
CONTINUOUS
10
2.76064
20
-7.47536
11
2.75434
21
-7.47172
0
LINE
8
BLACK
6
CONTINUOUS
10
2.75434
20
-7.47172
11
2.74877
21
-7.46704
0
LINE
8
BLACK
6
CONTINUOUS
10
2.74877
20
-7.46704
11
2.74877
21
-7.46704
0
LINE
8
BLACK
6
CONTINUOUS
10
2.74877
20
-7.46704
11
2.74877
21
-7.46704
0
LINE
8
BLACK
6
CONTINUOUS
10
2.74877
20
-7.46704
11
2.74877
21
-7.46704
0
LINE
8
BLACK
6
CONTINUOUS
10
2.74877
20
-7.46704
11
2.69866
21
-7.41693
0
LINE
8
BLACK
6
CONTINUOUS
10
2.69866
20
-7.41693
11
2.69866
21
-7.41693
0
LINE
8
BLACK
6
CONTINUOUS
10
2.69866
20
-7.41693
11
2.69866
21
-7.41693
0
LINE
8
BLACK
6
CONTINUOUS
10
2.69866
20
-7.41693
11
2.69398
21
-7.41136
0
LINE
8
BLACK
6
CONTINUOUS
10
2.69398
20
-7.41136
11
2.69034
21
-7.40506
0
LINE
8
BLACK
6
CONTINUOUS
10
2.69034
20
-7.40506
11
2.68786
21
-7.39823
0
LINE
8
BLACK
6
CONTINUOUS
10
2.68786
20
-7.39823
11
2.68659
21
-7.39106
0
LINE
8
BLACK
6
CONTINUOUS
10
2.68659
20
-7.39106
11
2.68659
21
-7.38379
0
LINE
8
BLACK
6
CONTINUOUS
10
2.68659
20
-7.38379
11
2.68786
21
-7.37662
0
LINE
8
BLACK
6
CONTINUOUS
10
2.68786
20
-7.37662
11
2.69034
21
-7.36979
0
LINE
8
BLACK
6
CONTINUOUS
10
2.69034
20
-7.36979
11
2.69398
21
-7.36349
0
LINE
8
BLACK
6
CONTINUOUS
10
2.69398
20
-7.36349
11
2.69866
21
-7.35792
0
LINE
8
BLACK
6
CONTINUOUS
10
2.69866
20
-7.35792
11
2.69866
21
-7.35792
0
LINE
8
BLACK
6
CONTINUOUS
10
2.69866
20
-7.35792
11
2.69866
21
-7.35792
0
LINE
8
BLACK
6
CONTINUOUS
10
2.69866
20
-7.35792
11
2.74877
21
-7.30781
0
LINE
8
BLACK
6
CONTINUOUS
10
2.74877
20
-7.30781
11
2.74877
21
-7.30781
0
LINE
8
BLACK
6
CONTINUOUS
10
2.74877
20
-7.30781
11
2.75434
21
-7.30313
0
LINE
8
BLACK
6
CONTINUOUS
10
2.75434
20
-7.30313
11
2.76064
21
-7.29949
0
LINE
8
BLACK
6
CONTINUOUS
10
2.76064
20
-7.29949
11
2.76747
21
-7.297
0
LINE
8
BLACK
6
CONTINUOUS
10
2.76747
20
-7.297
11
2.77464
21
-7.29574
0
LINE
8
BLACK
6
CONTINUOUS
10
2.77464
20
-7.29574
11
2.78191
21
-7.29574
0
LINE
8
BLACK
6
CONTINUOUS
10
2.78191
20
-7.29574
11
2.78908
21
-7.297
0
LINE
8
BLACK
6
CONTINUOUS
10
2.77182
20
-7.30073
11
2.76557
21
-7.30241
0
LINE
8
BLACK
6
CONTINUOUS
10
2.76557
20
-7.30241
11
2.7597
21
-7.30514
0
LINE
8
BLACK
6
CONTINUOUS
10
2.7597
20
-7.30514
11
2.7544
21
-7.30886
0
LINE
8
BLACK
6
CONTINUOUS
10
2.7544
20
-7.30886
11
2.75211
21
-7.31115
0
LINE
8
BLACK
6
CONTINUOUS
10
2.75211
20
-7.31115
11
2.75211
21
-7.31115
0
LINE
8
BLACK
6
CONTINUOUS
10
2.75211
20
-7.31115
11
2.702
21
-7.36126
0
LINE
8
BLACK
6
CONTINUOUS
10
2.702
20
-7.36126
11
2.702
21
-7.36126
0
LINE
8
BLACK
6
CONTINUOUS
10
2.702
20
-7.36126
11
2.702
21
-7.36126
0
LINE
8
BLACK
6
CONTINUOUS
10
2.702
20
-7.36126
11
2.69971
21
-7.36355
0
LINE
8
BLACK
6
CONTINUOUS
10
2.69971
20
-7.36355
11
2.69599
21
-7.36885
0
LINE
8
BLACK
6
CONTINUOUS
10
2.69599
20
-7.36885
11
2.69326
21
-7.37472
0
LINE
8
BLACK
6
CONTINUOUS
10
2.69326
20
-7.37472
11
2.69158
21
-7.38097
0
LINE
8
BLACK
6
CONTINUOUS
10
2.69158
20
-7.38097
11
2.69102
21
-7.38743
0
LINE
8
BLACK
6
CONTINUOUS
10
2.69102
20
-7.38743
11
2.69158
21
-7.39388
0
LINE
8
BLACK
6
CONTINUOUS
10
2.69158
20
-7.39388
11
2.69326
21
-7.40013
0
LINE
8
BLACK
6
CONTINUOUS
10
2.69326
20
-7.40013
11
2.69599
21
-7.406
0
LINE
8
BLACK
6
CONTINUOUS
10
2.69599
20
-7.406
11
2.69971
21
-7.4113
0
LINE
8
BLACK
6
CONTINUOUS
10
2.69971
20
-7.4113
11
2.702
21
-7.41359
0
LINE
8
BLACK
6
CONTINUOUS
10
2.702
20
-7.41359
11
2.702
21
-7.41359
0
LINE
8
BLACK
6
CONTINUOUS
10
2.702
20
-7.41359
11
2.702
21
-7.41359
0
LINE
8
BLACK
6
CONTINUOUS
10
2.702
20
-7.41359
11
2.75211
21
-7.4637
0
LINE
8
BLACK
6
CONTINUOUS
10
2.75211
20
-7.4637
11
2.75211
21
-7.4637
0
LINE
8
BLACK
6
CONTINUOUS
10
2.75211
20
-7.4637
11
2.7544
21
-7.46599
0
LINE
8
BLACK
6
CONTINUOUS
10
2.7544
20
-7.46599
11
2.7597
21
-7.46971
0
LINE
8
BLACK
6
CONTINUOUS
10
2.7597
20
-7.46971
11
2.76557
21
-7.47244
0
LINE
8
BLACK
6
CONTINUOUS
10
2.76557
20
-7.47244
11
2.77182
21
-7.47412
0
LINE
8
BLACK
6
CONTINUOUS
10
2.77182
20
-7.47412
11
2.77828
21
-7.47468
0
LINE
8
BLACK
6
CONTINUOUS
10
2.77828
20
-7.47468
11
2.78473
21
-7.47412
0
LINE
8
BLACK
6
CONTINUOUS
10
2.78473
20
-7.47412
11
2.79098
21
-7.47244
0
LINE
8
BLACK
6
CONTINUOUS
10
2.79098
20
-7.47244
11
2.79685
21
-7.46971
0
LINE
8
BLACK
6
CONTINUOUS
10
2.79685
20
-7.46971
11
2.80215
21
-7.46599
0
LINE
8
BLACK
6
CONTINUOUS
10
2.80215
20
-7.46599
11
2.80444
21
-7.4637
0
LINE
8
BLACK
6
CONTINUOUS
10
2.80444
20
-7.4637
11
2.80444
21
-7.4637
0
LINE
8
BLACK
6
CONTINUOUS
10
2.80444
20
-7.4637
11
2.80444
21
-7.4637
0
LINE
8
BLACK
6
CONTINUOUS
10
2.80444
20
-7.4637
11
2.85455
21
-7.41359
0
LINE
8
BLACK
6
CONTINUOUS
10
2.85455
20
-7.41359
11
2.85455
21
-7.41359
0
LINE
8
BLACK
6
CONTINUOUS
10
2.85455
20
-7.41359
11
2.85455
21
-7.41359
0
LINE
8
BLACK
6
CONTINUOUS
10
2.85455
20
-7.41359
11
2.85684
21
-7.4113
0
LINE
8
BLACK
6
CONTINUOUS
10
2.85684
20
-7.4113
11
2.86056
21
-7.406
0
LINE
8
BLACK
6
CONTINUOUS
10
2.86056
20
-7.406
11
2.86329
21
-7.40013
0
LINE
8
BLACK
6
CONTINUOUS
10
2.86329
20
-7.40013
11
2.86497
21
-7.39388
0
LINE
8
BLACK
6
CONTINUOUS
10
2.86497
20
-7.39388
11
2.86553
21
-7.38743
0
LINE
8
BLACK
6
CONTINUOUS
10
2.86553
20
-7.38743
11
2.86497
21
-7.38097
0
LINE
8
BLACK
6
CONTINUOUS
10
2.86497
20
-7.38097
11
2.86329
21
-7.37472
0
LINE
8
BLACK
6
CONTINUOUS
10
2.86329
20
-7.37472
11
2.86056
21
-7.36885
0
LINE
8
BLACK
6
CONTINUOUS
10
2.86056
20
-7.36885
11
2.85684
21
-7.36355
0
LINE
8
BLACK
6
CONTINUOUS
10
2.85684
20
-7.36355
11
2.85455
21
-7.36126
0
LINE
8
BLACK
6
CONTINUOUS
10
2.85455
20
-7.36126
11
2.85455
21
-7.36126
0
LINE
8
BLACK
6
CONTINUOUS
10
2.85455
20
-7.36126
11
2.80444
21
-7.31115
0
LINE
8
BLACK
6
CONTINUOUS
10
2.80444
20
-7.31115
11
2.80444
21
-7.31115
0
LINE
8
BLACK
6
CONTINUOUS
10
2.80444
20
-7.31115
11
2.80215
21
-7.30886
0
LINE
8
BLACK
6
CONTINUOUS
10
2.80215
20
-7.30886
11
2.79685
21
-7.30514
0
LINE
8
BLACK
6
CONTINUOUS
10
2.79685
20
-7.30514
11
2.79098
21
-7.30241
0
LINE
8
BLACK
6
CONTINUOUS
10
2.79098
20
-7.30241
11
2.78473
21
-7.30073
0
LINE
8
BLACK
6
CONTINUOUS
10
2.78473
20
-7.30073
11
2.77828
21
-7.30017
0
LINE
8
BLACK
6
CONTINUOUS
10
2.77828
20
-7.30017
11
2.77182
21
-7.30073
0
LINE
8
BLACK
6
CONTINUOUS
10
5.84217
20
-7.11163
11
5.84918
21
-7.11225
0
LINE
8
BLACK
6
CONTINUOUS
10
5.84918
20
-7.11225
11
5.85597
21
-7.11407
0
LINE
8
BLACK
6
CONTINUOUS
10
5.85597
20
-7.11407
11
5.86235
21
-7.11704
0
LINE
8
BLACK
6
CONTINUOUS
10
5.86235
20
-7.11704
11
5.86811
21
-7.12107
0
LINE
8
BLACK
6
CONTINUOUS
10
5.86811
20
-7.12107
11
5.87308
21
-7.12605
0
LINE
8
BLACK
6
CONTINUOUS
10
5.87308
20
-7.12605
11
5.87712
21
-7.13181
0
LINE
8
BLACK
6
CONTINUOUS
10
5.87712
20
-7.13181
11
5.88009
21
-7.13819
0
LINE
8
BLACK
6
CONTINUOUS
10
5.88009
20
-7.13819
11
5.88191
21
-7.14498
0
LINE
8
BLACK
6
CONTINUOUS
10
5.88191
20
-7.14498
11
5.88252
21
-7.15199
0
LINE
8
BLACK
6
CONTINUOUS
10
5.88252
20
-7.15199
11
5.88252
21
-7.15199
0
LINE
8
BLACK
6
CONTINUOUS
10
5.88252
20
-7.15199
11
5.88252
21
-7.35671
0
LINE
8
BLACK
6
CONTINUOUS
10
5.88252
20
-7.35671
11
5.88191
21
-7.36372
0
LINE
8
BLACK
6
CONTINUOUS
10
5.88191
20
-7.36372
11
5.88009
21
-7.37051
0
LINE
8
BLACK
6
CONTINUOUS
10
5.88009
20
-7.37051
11
5.87712
21
-7.37689
0
LINE
8
BLACK
6
CONTINUOUS
10
5.87712
20
-7.37689
11
5.87308
21
-7.38265
0
LINE
8
BLACK
6
CONTINUOUS
10
5.87308
20
-7.38265
11
5.86811
21
-7.38763
0
LINE
8
BLACK
6
CONTINUOUS
10
5.86811
20
-7.38763
11
5.86235
21
-7.39166
0
LINE
8
BLACK
6
CONTINUOUS
10
5.86235
20
-7.39166
11
5.85597
21
-7.39463
0
LINE
8
BLACK
6
CONTINUOUS
10
5.85597
20
-7.39463
11
5.84918
21
-7.39645
0
LINE
8
BLACK
6
CONTINUOUS
10
5.84918
20
-7.39645
11
5.84217
21
-7.39707
0
LINE
8
BLACK
6
CONTINUOUS
10
5.84217
20
-7.39707
11
5.36973
21
-7.39707
0
LINE
8
BLACK
6
CONTINUOUS
10
5.36973
20
-7.39707
11
5.36272
21
-7.39645
0
LINE
8
BLACK
6
CONTINUOUS
10
5.36272
20
-7.39645
11
5.35593
21
-7.39463
0
LINE
8
BLACK
6
CONTINUOUS
10
5.35593
20
-7.39463
11
5.34955
21
-7.39166
0
LINE
8
BLACK
6
CONTINUOUS
10
5.34955
20
-7.39166
11
5.34379
21
-7.38763
0
LINE
8
BLACK
6
CONTINUOUS
10
5.34379
20
-7.38763
11
5.33882
21
-7.38265
0
LINE
8
BLACK
6
CONTINUOUS
10
5.33882
20
-7.38265
11
5.33478
21
-7.37689
0
LINE
8
BLACK
6
CONTINUOUS
10
5.33478
20
-7.37689
11
5.33181
21
-7.37051
0
LINE
8
BLACK
6
CONTINUOUS
10
5.33181
20
-7.37051
11
5.32999
21
-7.36372
0
LINE
8
BLACK
6
CONTINUOUS
10
5.32999
20
-7.36372
11
5.32937
21
-7.35671
0
LINE
8
BLACK
6
CONTINUOUS
10
5.32937
20
-7.35671
11
5.32937
21
-7.35671
0
LINE
8
BLACK
6
CONTINUOUS
10
5.32937
20
-7.35671
11
5.32937
21
-7.15199
0
LINE
8
BLACK
6
CONTINUOUS
10
5.32937
20
-7.15199
11
5.32937
21
-7.15199
0
LINE
8
BLACK
6
CONTINUOUS
10
5.32937
20
-7.15199
11
5.32999
21
-7.14498
0
LINE
8
BLACK
6
CONTINUOUS
10
5.32999
20
-7.14498
11
5.33181
21
-7.13819
0
LINE
8
BLACK
6
CONTINUOUS
10
5.33181
20
-7.13819
11
5.33478
21
-7.13181
0
LINE
8
BLACK
6
CONTINUOUS
10
5.33478
20
-7.13181
11
5.33881
21
-7.12605
0
LINE
8
BLACK
6
CONTINUOUS
10
5.33881
20
-7.12605
11
5.34379
21
-7.12107
0
LINE
8
BLACK
6
CONTINUOUS
10
5.34379
20
-7.12107
11
5.34955
21
-7.11704
0
LINE
8
BLACK
6
CONTINUOUS
10
5.34955
20
-7.11704
11
5.35593
21
-7.11407
0
LINE
8
BLACK
6
CONTINUOUS
10
5.35593
20
-7.11407
11
5.36272
21
-7.11225
0
LINE
8
BLACK
6
CONTINUOUS
10
5.36272
20
-7.11225
11
5.36973
21
-7.11163
0
LINE
8
BLACK
6
CONTINUOUS
10
5.36973
20
-7.11163
11
5.84217
21
-7.11163
0
LINE
8
BLACK
6
CONTINUOUS
10
5.36973
20
-7.1136
11
5.36637
21
-7.1136
0
LINE
8
BLACK
6
CONTINUOUS
10
5.36637
20
-7.1136
11
5.35976
21
-7.11477
0
LINE
8
BLACK
6
CONTINUOUS
10
5.35976
20
-7.11477
11
5.35344
21
-7.11707
0
LINE
8
BLACK
6
CONTINUOUS
10
5.35344
20
-7.11707
11
5.34763
21
-7.12042
0
LINE
8
BLACK
6
CONTINUOUS
10
5.34763
20
-7.12042
11
5.34248
21
-7.12474
0
LINE
8
BLACK
6
CONTINUOUS
10
5.34248
20
-7.12474
11
5.33816
21
-7.12989
0
LINE
8
BLACK
6
CONTINUOUS
10
5.33816
20
-7.12989
11
5.33481
21
-7.1357
0
LINE
8
BLACK
6
CONTINUOUS
10
5.33481
20
-7.1357
11
5.33251
21
-7.14201
0
LINE
8
BLACK
6
CONTINUOUS
10
5.33251
20
-7.14201
11
5.33134
21
-7.14863
0
LINE
8
BLACK
6
CONTINUOUS
10
5.33134
20
-7.14863
11
5.33134
21
-7.15199
0
LINE
8
BLACK
6
CONTINUOUS
10
5.33134
20
-7.15199
11
5.33134
21
-7.15199
0
LINE
8
BLACK
6
CONTINUOUS
10
5.33134
20
-7.15199
11
5.33134
21
-7.35671
0
LINE
8
BLACK
6
CONTINUOUS
10
5.33134
20
-7.35671
11
5.33134
21
-7.35671
0
LINE
8
BLACK
6
CONTINUOUS
10
5.33134
20
-7.35671
11
5.33134
21
-7.36007
0
LINE
8
BLACK
6
CONTINUOUS
10
5.33134
20
-7.36007
11
5.33251
21
-7.36669
0
LINE
8
BLACK
6
CONTINUOUS
10
5.33251
20
-7.36669
11
5.33481
21
-7.373
0
LINE
8
BLACK
6
CONTINUOUS
10
5.33481
20
-7.373
11
5.33816
21
-7.37881
0
LINE
8
BLACK
6
CONTINUOUS
10
5.33816
20
-7.37881
11
5.34248
21
-7.38396
0
LINE
8
BLACK
6
CONTINUOUS
10
5.34248
20
-7.38396
11
5.34763
21
-7.38828
0
LINE
8
BLACK
6
CONTINUOUS
10
5.34763
20
-7.38828
11
5.35344
21
-7.39163
0
LINE
8
BLACK
6
CONTINUOUS
10
5.35344
20
-7.39163
11
5.35976
21
-7.39393
0
LINE
8
BLACK
6
CONTINUOUS
10
5.35976
20
-7.39393
11
5.36637
21
-7.3951
0
LINE
8
BLACK
6
CONTINUOUS
10
5.36637
20
-7.3951
11
5.36973
21
-7.3951
0
LINE
8
BLACK
6
CONTINUOUS
10
5.36973
20
-7.3951
11
5.84217
21
-7.3951
0
LINE
8
BLACK
6
CONTINUOUS
10
5.84217
20
-7.3951
11
5.84553
21
-7.3951
0
LINE
8
BLACK
6
CONTINUOUS
10
5.84553
20
-7.3951
11
5.85214
21
-7.39393
0
LINE
8
BLACK
6
CONTINUOUS
10
5.85214
20
-7.39393
11
5.85845
21
-7.39163
0
LINE
8
BLACK
6
CONTINUOUS
10
5.85845
20
-7.39163
11
5.86427
21
-7.38828
0
LINE
8
BLACK
6
CONTINUOUS
10
5.86427
20
-7.38828
11
5.86942
21
-7.38396
0
LINE
8
BLACK
6
CONTINUOUS
10
5.86942
20
-7.38396
11
5.87373
21
-7.37881
0
LINE
8
BLACK
6
CONTINUOUS
10
5.87373
20
-7.37881
11
5.87709
21
-7.373
0
LINE
8
BLACK
6
CONTINUOUS
10
5.87709
20
-7.373
11
5.87939
21
-7.36669
0
LINE
8
BLACK
6
CONTINUOUS
10
5.87939
20
-7.36669
11
5.88055
21
-7.36007
0
LINE
8
BLACK
6
CONTINUOUS
10
5.88055
20
-7.36007
11
5.88055
21
-7.35671
0
LINE
8
BLACK
6
CONTINUOUS
10
5.88055
20
-7.35671
11
5.88055
21
-7.15199
0
LINE
8
BLACK
6
CONTINUOUS
10
5.88055
20
-7.15199
11
5.88056
21
-7.15199
0
LINE
8
BLACK
6
CONTINUOUS
10
5.88056
20
-7.15199
11
5.88056
21
-7.14863
0
LINE
8
BLACK
6
CONTINUOUS
10
5.88056
20
-7.14863
11
5.87939
21
-7.14201
0
LINE
8
BLACK
6
CONTINUOUS
10
5.87939
20
-7.14201
11
5.87709
21
-7.1357
0
LINE
8
BLACK
6
CONTINUOUS
10
5.87709
20
-7.1357
11
5.87373
21
-7.12989
0
LINE
8
BLACK
6
CONTINUOUS
10
5.87373
20
-7.12989
11
5.86942
21
-7.12474
0
LINE
8
BLACK
6
CONTINUOUS
10
5.86942
20
-7.12474
11
5.86427
21
-7.12042
0
LINE
8
BLACK
6
CONTINUOUS
10
5.86427
20
-7.12042
11
5.85845
21
-7.11707
0
LINE
8
BLACK
6
CONTINUOUS
10
5.85845
20
-7.11707
11
5.85214
21
-7.11477
0
LINE
8
BLACK
6
CONTINUOUS
10
5.85214
20
-7.11477
11
5.84553
21
-7.1136
0
LINE
8
BLACK
6
CONTINUOUS
10
5.84553
20
-7.1136
11
5.84217
21
-7.1136
0
LINE
8
BLACK
6
CONTINUOUS
10
5.84217
20
-7.1136
11
5.36973
21
-7.1136
0
LINE
8
BLACK
6
CONTINUOUS
10
3.58632
20
-7.03126
11
3.59316
21
-7.03374
0
LINE
8
BLACK
6
CONTINUOUS
10
3.59316
20
-7.03374
11
3.59946
21
-7.03738
0
LINE
8
BLACK
6
CONTINUOUS
10
3.59946
20
-7.03738
11
3.60503
21
-7.04206
0
LINE
8
BLACK
6
CONTINUOUS
10
3.60503
20
-7.04206
11
3.65514
21
-7.09217
0
LINE
8
BLACK
6
CONTINUOUS
10
3.65514
20
-7.09217
11
3.65514
21
-7.09217
0
LINE
8
BLACK
6
CONTINUOUS
10
3.65514
20
-7.09217
11
3.65981
21
-7.09774
0
LINE
8
BLACK
6
CONTINUOUS
10
3.65981
20
-7.09774
11
3.66345
21
-7.10404
0
LINE
8
BLACK
6
CONTINUOUS
10
3.66345
20
-7.10404
11
3.66594
21
-7.11088
0
LINE
8
BLACK
6
CONTINUOUS
10
3.66594
20
-7.11088
11
3.6672
21
-7.11804
0
LINE
8
BLACK
6
CONTINUOUS
10
3.6672
20
-7.11804
11
3.6672
21
-7.12531
0
LINE
8
BLACK
6
CONTINUOUS
10
3.6672
20
-7.12531
11
3.66594
21
-7.13248
0
LINE
8
BLACK
6
CONTINUOUS
10
3.66594
20
-7.13248
11
3.66345
21
-7.13931
0
LINE
8
BLACK
6
CONTINUOUS
10
3.66345
20
-7.13931
11
3.65981
21
-7.14561
0
LINE
8
BLACK
6
CONTINUOUS
10
3.65981
20
-7.14561
11
3.65514
21
-7.15119
0
LINE
8
BLACK
6
CONTINUOUS
10
3.65514
20
-7.15119
11
3.65514
21
-7.15119
0
LINE
8
BLACK
6
CONTINUOUS
10
3.65514
20
-7.15119
11
3.65514
21
-7.15119
0
LINE
8
BLACK
6
CONTINUOUS
10
3.65514
20
-7.15119
11
3.60503
21
-7.2013
0
LINE
8
BLACK
6
CONTINUOUS
10
3.60503
20
-7.2013
11
3.60503
21
-7.2013
0
LINE
8
BLACK
6
CONTINUOUS
10
3.60503
20
-7.2013
11
3.60503
21
-7.2013
0
LINE
8
BLACK
6
CONTINUOUS
10
3.60503
20
-7.2013
11
3.59946
21
-7.20597
0
LINE
8
BLACK
6
CONTINUOUS
10
3.59946
20
-7.20597
11
3.59316
21
-7.20961
0
LINE
8
BLACK
6
CONTINUOUS
10
3.59316
20
-7.20961
11
3.58632
21
-7.2121
0
LINE
8
BLACK
6
CONTINUOUS
10
3.58632
20
-7.2121
11
3.57916
21
-7.21336
0
LINE
8
BLACK
6
CONTINUOUS
10
3.57916
20
-7.21336
11
3.57188
21
-7.21336
0
LINE
8
BLACK
6
CONTINUOUS
10
3.57188
20
-7.21336
11
3.56472
21
-7.2121
0
LINE
8
BLACK
6
CONTINUOUS
10
3.56472
20
-7.2121
11
3.55788
21
-7.20961
0
LINE
8
BLACK
6
CONTINUOUS
10
3.55788
20
-7.20961
11
3.55158
21
-7.20597
0
LINE
8
BLACK
6
CONTINUOUS
10
3.55158
20
-7.20597
11
3.54601
21
-7.2013
0
LINE
8
BLACK
6
CONTINUOUS
10
3.54601
20
-7.2013
11
3.54601
21
-7.2013
0
LINE
8
BLACK
6
CONTINUOUS
10
3.54601
20
-7.2013
11
3.54601
21
-7.2013
0
LINE
8
BLACK
6
CONTINUOUS
10
3.54601
20
-7.2013
11
3.54601
21
-7.2013
0
LINE
8
BLACK
6
CONTINUOUS
10
3.54601
20
-7.2013
11
3.4959
21
-7.15119
0
LINE
8
BLACK
6
CONTINUOUS
10
3.4959
20
-7.15119
11
3.4959
21
-7.15119
0
LINE
8
BLACK
6
CONTINUOUS
10
3.4959
20
-7.15119
11
3.4959
21
-7.15119
0
LINE
8
BLACK
6
CONTINUOUS
10
3.4959
20
-7.15119
11
3.49122
21
-7.14561
0
LINE
8
BLACK
6
CONTINUOUS
10
3.49122
20
-7.14561
11
3.48759
21
-7.13931
0
LINE
8
BLACK
6
CONTINUOUS
10
3.48759
20
-7.13931
11
3.4851
21
-7.13248
0
LINE
8
BLACK
6
CONTINUOUS
10
3.4851
20
-7.13248
11
3.48384
21
-7.12531
0
LINE
8
BLACK
6
CONTINUOUS
10
3.48384
20
-7.12531
11
3.48384
21
-7.11804
0
LINE
8
BLACK
6
CONTINUOUS
10
3.48384
20
-7.11804
11
3.4851
21
-7.11088
0
LINE
8
BLACK
6
CONTINUOUS
10
3.4851
20
-7.11088
11
3.48759
21
-7.10404
0
LINE
8
BLACK
6
CONTINUOUS
10
3.48759
20
-7.10404
11
3.49122
21
-7.09774
0
LINE
8
BLACK
6
CONTINUOUS
10
3.49122
20
-7.09774
11
3.4959
21
-7.09217
0
LINE
8
BLACK
6
CONTINUOUS
10
3.4959
20
-7.09217
11
3.4959
21
-7.09217
0
LINE
8
BLACK
6
CONTINUOUS
10
3.4959
20
-7.09217
11
3.4959
21
-7.09217
0
LINE
8
BLACK
6
CONTINUOUS
10
3.4959
20
-7.09217
11
3.54601
21
-7.04206
0
LINE
8
BLACK
6
CONTINUOUS
10
3.54601
20
-7.04206
11
3.54601
21
-7.04206
0
LINE
8
BLACK
6
CONTINUOUS
10
3.54601
20
-7.04206
11
3.55158
21
-7.03738
0
LINE
8
BLACK
6
CONTINUOUS
10
3.55158
20
-7.03738
11
3.55788
21
-7.03374
0
LINE
8
BLACK
6
CONTINUOUS
10
3.55788
20
-7.03374
11
3.56472
21
-7.03126
0
LINE
8
BLACK
6
CONTINUOUS
10
3.56472
20
-7.03126
11
3.57188
21
-7.02999
0
LINE
8
BLACK
6
CONTINUOUS
10
3.57188
20
-7.02999
11
3.57916
21
-7.02999
0
LINE
8
BLACK
6
CONTINUOUS
10
3.57916
20
-7.02999
11
3.58632
21
-7.03126
0
LINE
8
BLACK
6
CONTINUOUS
10
3.56907
20
-7.03498
11
3.56281
21
-7.03666
0
LINE
8
BLACK
6
CONTINUOUS
10
3.56281
20
-7.03666
11
3.55695
21
-7.0394
0
LINE
8
BLACK
6
CONTINUOUS
10
3.55695
20
-7.0394
11
3.55164
21
-7.04311
0
LINE
8
BLACK
6
CONTINUOUS
10
3.55164
20
-7.04311
11
3.54935
21
-7.0454
0
LINE
8
BLACK
6
CONTINUOUS
10
3.54935
20
-7.0454
11
3.54935
21
-7.0454
0
LINE
8
BLACK
6
CONTINUOUS
10
3.54935
20
-7.0454
11
3.49924
21
-7.09551
0
LINE
8
BLACK
6
CONTINUOUS
10
3.49924
20
-7.09551
11
3.49924
21
-7.09551
0
LINE
8
BLACK
6
CONTINUOUS
10
3.49924
20
-7.09551
11
3.49924
21
-7.09551
0
LINE
8
BLACK
6
CONTINUOUS
10
3.49924
20
-7.09551
11
3.49695
21
-7.0978
0
LINE
8
BLACK
6
CONTINUOUS
10
3.49695
20
-7.0978
11
3.49324
21
-7.1031
0
LINE
8
BLACK
6
CONTINUOUS
10
3.49324
20
-7.1031
11
3.4905
21
-7.10897
0
LINE
8
BLACK
6
CONTINUOUS
10
3.4905
20
-7.10897
11
3.48882
21
-7.11523
0
LINE
8
BLACK
6
CONTINUOUS
10
3.48882
20
-7.11523
11
3.48826
21
-7.12168
0
LINE
8
BLACK
6
CONTINUOUS
10
3.48826
20
-7.12168
11
3.48882
21
-7.12813
0
LINE
8
BLACK
6
CONTINUOUS
10
3.48882
20
-7.12813
11
3.4905
21
-7.13438
0
LINE
8
BLACK
6
CONTINUOUS
10
3.4905
20
-7.13438
11
3.49324
21
-7.14025
0
LINE
8
BLACK
6
CONTINUOUS
10
3.49324
20
-7.14025
11
3.49695
21
-7.14556
0
LINE
8
BLACK
6
CONTINUOUS
10
3.49695
20
-7.14556
11
3.49924
21
-7.14785
0
LINE
8
BLACK
6
CONTINUOUS
10
3.49924
20
-7.14785
11
3.49924
21
-7.14785
0
LINE
8
BLACK
6
CONTINUOUS
10
3.49924
20
-7.14785
11
3.49924
21
-7.14785
0
LINE
8
BLACK
6
CONTINUOUS
10
3.49924
20
-7.14785
11
3.54935
21
-7.19796
0
LINE
8
BLACK
6
CONTINUOUS
10
3.54935
20
-7.19796
11
3.54935
21
-7.19796
0
LINE
8
BLACK
6
CONTINUOUS
10
3.54935
20
-7.19796
11
3.55164
21
-7.20024
0
LINE
8
BLACK
6
CONTINUOUS
10
3.55164
20
-7.20024
11
3.55695
21
-7.20396
0
LINE
8
BLACK
6
CONTINUOUS
10
3.55695
20
-7.20396
11
3.56281
21
-7.2067
0
LINE
8
BLACK
6
CONTINUOUS
10
3.56281
20
-7.2067
11
3.56907
21
-7.20837
0
LINE
8
BLACK
6
CONTINUOUS
10
3.56907
20
-7.20837
11
3.57552
21
-7.20894
0
LINE
8
BLACK
6
CONTINUOUS
10
3.57552
20
-7.20894
11
3.58197
21
-7.20837
0
LINE
8
BLACK
6
CONTINUOUS
10
3.58197
20
-7.20837
11
3.58823
21
-7.2067
0
LINE
8
BLACK
6
CONTINUOUS
10
3.58823
20
-7.2067
11
3.59409
21
-7.20396
0
LINE
8
BLACK
6
CONTINUOUS
10
3.59409
20
-7.20396
11
3.5994
21
-7.20024
0
LINE
8
BLACK
6
CONTINUOUS
10
3.5994
20
-7.20024
11
3.60169
21
-7.19796
0
LINE
8
BLACK
6
CONTINUOUS
10
3.60169
20
-7.19796
11
3.60169
21
-7.19796
0
LINE
8
BLACK
6
CONTINUOUS
10
3.60169
20
-7.19796
11
3.60169
21
-7.19796
0
LINE
8
BLACK
6
CONTINUOUS
10
3.60169
20
-7.19796
11
3.6518
21
-7.14785
0
LINE
8
BLACK
6
CONTINUOUS
10
3.6518
20
-7.14785
11
3.6518
21
-7.14785
0
LINE
8
BLACK
6
CONTINUOUS
10
3.6518
20
-7.14785
11
3.6518
21
-7.14785
0
LINE
8
BLACK
6
CONTINUOUS
10
3.6518
20
-7.14785
11
3.65409
21
-7.14556
0
LINE
8
BLACK
6
CONTINUOUS
10
3.65409
20
-7.14556
11
3.6578
21
-7.14025
0
LINE
8
BLACK
6
CONTINUOUS
10
3.6578
20
-7.14025
11
3.66054
21
-7.13438
0
LINE
8
BLACK
6
CONTINUOUS
10
3.66054
20
-7.13438
11
3.66221
21
-7.12813
0
LINE
8
BLACK
6
CONTINUOUS
10
3.66221
20
-7.12813
11
3.66278
21
-7.12168
0
LINE
8
BLACK
6
CONTINUOUS
10
3.66278
20
-7.12168
11
3.66221
21
-7.11523
0
LINE
8
BLACK
6
CONTINUOUS
10
3.66221
20
-7.11523
11
3.66054
21
-7.10897
0
LINE
8
BLACK
6
CONTINUOUS
10
3.66054
20
-7.10897
11
3.6578
21
-7.1031
0
LINE
8
BLACK
6
CONTINUOUS
10
3.6578
20
-7.1031
11
3.65409
21
-7.0978
0
LINE
8
BLACK
6
CONTINUOUS
10
3.65409
20
-7.0978
11
3.6518
21
-7.09551
0
LINE
8
BLACK
6
CONTINUOUS
10
3.6518
20
-7.09551
11
3.6518
21
-7.09551
0
LINE
8
BLACK
6
CONTINUOUS
10
3.6518
20
-7.09551
11
3.60169
21
-7.0454
0
LINE
8
BLACK
6
CONTINUOUS
10
3.60169
20
-7.0454
11
3.5994
21
-7.04311
0
LINE
8
BLACK
6
CONTINUOUS
10
3.5994
20
-7.04311
11
3.59409
21
-7.0394
0
LINE
8
BLACK
6
CONTINUOUS
10
3.59409
20
-7.0394
11
3.58823
21
-7.03666
0
LINE
8
BLACK
6
CONTINUOUS
10
3.58823
20
-7.03666
11
3.58197
21
-7.03498
0
LINE
8
BLACK
6
CONTINUOUS
10
3.58197
20
-7.03498
11
3.57552
21
-7.03442
0
LINE
8
BLACK
6
CONTINUOUS
10
3.57552
20
-7.03442
11
3.56907
21
-7.03498
0
LINE
8
BLACK
6
CONTINUOUS
10
3.32057
20
-7.03126
11
3.32741
21
-7.03374
0
LINE
8
BLACK
6
CONTINUOUS
10
3.32741
20
-7.03374
11
3.33371
21
-7.03738
0
LINE
8
BLACK
6
CONTINUOUS
10
3.33371
20
-7.03738
11
3.33928
21
-7.04206
0
LINE
8
BLACK
6
CONTINUOUS
10
3.33928
20
-7.04206
11
3.38939
21
-7.09217
0
LINE
8
BLACK
6
CONTINUOUS
10
3.38939
20
-7.09217
11
3.38939
21
-7.09217
0
LINE
8
BLACK
6
CONTINUOUS
10
3.38939
20
-7.09217
11
3.39407
21
-7.09774
0
LINE
8
BLACK
6
CONTINUOUS
10
3.39407
20
-7.09774
11
3.3977
21
-7.10404
0
LINE
8
BLACK
6
CONTINUOUS
10
3.3977
20
-7.10404
11
3.40019
21
-7.11088
0
LINE
8
BLACK
6
CONTINUOUS
10
3.40019
20
-7.11088
11
3.40146
21
-7.11804
0
LINE
8
BLACK
6
CONTINUOUS
10
3.40146
20
-7.11804
11
3.40146
21
-7.12531
0
LINE
8
BLACK
6
CONTINUOUS
10
3.40146
20
-7.12531
11
3.40019
21
-7.13248
0
LINE
8
BLACK
6
CONTINUOUS
10
3.40019
20
-7.13248
11
3.3977
21
-7.13931
0
LINE
8
BLACK
6
CONTINUOUS
10
3.3977
20
-7.13931
11
3.39407
21
-7.14561
0
LINE
8
BLACK
6
CONTINUOUS
10
3.39407
20
-7.14561
11
3.38939
21
-7.15119
0
LINE
8
BLACK
6
CONTINUOUS
10
3.38939
20
-7.15119
11
3.38939
21
-7.15119
0
LINE
8
BLACK
6
CONTINUOUS
10
3.38939
20
-7.15119
11
3.38939
21
-7.15119
0
LINE
8
BLACK
6
CONTINUOUS
10
3.38939
20
-7.15119
11
3.33928
21
-7.2013
0
LINE
8
BLACK
6
CONTINUOUS
10
3.33928
20
-7.2013
11
3.33928
21
-7.2013
0
LINE
8
BLACK
6
CONTINUOUS
10
3.33928
20
-7.2013
11
3.33928
21
-7.2013
0
LINE
8
BLACK
6
CONTINUOUS
10
3.33928
20
-7.2013
11
3.33371
21
-7.20597
0
LINE
8
BLACK
6
CONTINUOUS
10
3.33371
20
-7.20597
11
3.32741
21
-7.20961
0
LINE
8
BLACK
6
CONTINUOUS
10
3.32741
20
-7.20961
11
3.32057
21
-7.2121
0
LINE
8
BLACK
6
CONTINUOUS
10
3.32057
20
-7.2121
11
3.31341
21
-7.21336
0
LINE
8
BLACK
6
CONTINUOUS
10
3.31341
20
-7.21336
11
3.30613
21
-7.21336
0
LINE
8
BLACK
6
CONTINUOUS
10
3.30613
20
-7.21336
11
3.29897
21
-7.2121
0
LINE
8
BLACK
6
CONTINUOUS
10
3.29897
20
-7.2121
11
3.29214
21
-7.20961
0
LINE
8
BLACK
6
CONTINUOUS
10
3.29214
20
-7.20961
11
3.28584
21
-7.20597
0
LINE
8
BLACK
6
CONTINUOUS
10
3.28584
20
-7.20597
11
3.28026
21
-7.2013
0
LINE
8
BLACK
6
CONTINUOUS
10
3.28026
20
-7.2013
11
3.28026
21
-7.2013
0
LINE
8
BLACK
6
CONTINUOUS
10
3.28026
20
-7.2013
11
3.28026
21
-7.2013
0
LINE
8
BLACK
6
CONTINUOUS
10
3.28026
20
-7.2013
11
3.28026
21
-7.2013
0
LINE
8
BLACK
6
CONTINUOUS
10
3.28026
20
-7.2013
11
3.23015
21
-7.15119
0
LINE
8
BLACK
6
CONTINUOUS
10
3.23015
20
-7.15119
11
3.23015
21
-7.15119
0
LINE
8
BLACK
6
CONTINUOUS
10
3.23015
20
-7.15119
11
3.23015
21
-7.15119
0
LINE
8
BLACK
6
CONTINUOUS
10
3.23015
20
-7.15119
11
3.22548
21
-7.14561
0
LINE
8
BLACK
6
CONTINUOUS
10
3.22548
20
-7.14561
11
3.22184
21
-7.13931
0
LINE
8
BLACK
6
CONTINUOUS
10
3.22184
20
-7.13931
11
3.21935
21
-7.13248
0
LINE
8
BLACK
6
CONTINUOUS
10
3.21935
20
-7.13248
11
3.21809
21
-7.12531
0
LINE
8
BLACK
6
CONTINUOUS
10
3.21809
20
-7.12531
11
3.21809
21
-7.11804
0
LINE
8
BLACK
6
CONTINUOUS
10
3.21809
20
-7.11804
11
3.21935
21
-7.11088
0
LINE
8
BLACK
6
CONTINUOUS
10
3.21935
20
-7.11088
11
3.22184
21
-7.10404
0
LINE
8
BLACK
6
CONTINUOUS
10
3.22184
20
-7.10404
11
3.22548
21
-7.09774
0
LINE
8
BLACK
6
CONTINUOUS
10
3.22548
20
-7.09774
11
3.23015
21
-7.09217
0
LINE
8
BLACK
6
CONTINUOUS
10
3.23015
20
-7.09217
11
3.23015
21
-7.09217
0
LINE
8
BLACK
6
CONTINUOUS
10
3.23015
20
-7.09217
11
3.23015
21
-7.09217
0
LINE
8
BLACK
6
CONTINUOUS
10
3.23015
20
-7.09217
11
3.28026
21
-7.04206
0
LINE
8
BLACK
6
CONTINUOUS
10
3.28026
20
-7.04206
11
3.28026
21
-7.04206
0
LINE
8
BLACK
6
CONTINUOUS
10
3.28026
20
-7.04206
11
3.28584
21
-7.03738
0
LINE
8
BLACK
6
CONTINUOUS
10
3.28584
20
-7.03738
11
3.29213
21
-7.03374
0
LINE
8
BLACK
6
CONTINUOUS
10
3.29213
20
-7.03374
11
3.29897
21
-7.03126
0
LINE
8
BLACK
6
CONTINUOUS
10
3.29897
20
-7.03126
11
3.30613
21
-7.02999
0
LINE
8
BLACK
6
CONTINUOUS
10
3.30613
20
-7.02999
11
3.31341
21
-7.02999
0
LINE
8
BLACK
6
CONTINUOUS
10
3.31341
20
-7.02999
11
3.32057
21
-7.03126
0
LINE
8
BLACK
6
CONTINUOUS
10
3.30332
20
-7.03498
11
3.29707
21
-7.03666
0
LINE
8
BLACK
6
CONTINUOUS
10
3.29707
20
-7.03666
11
3.2912
21
-7.0394
0
LINE
8
BLACK
6
CONTINUOUS
10
3.2912
20
-7.0394
11
3.28589
21
-7.04311
0
LINE
8
BLACK
6
CONTINUOUS
10
3.28589
20
-7.04311
11
3.2836
21
-7.0454
0
LINE
8
BLACK
6
CONTINUOUS
10
3.2836
20
-7.0454
11
3.2836
21
-7.0454
0
LINE
8
BLACK
6
CONTINUOUS
10
3.2836
20
-7.0454
11
3.23349
21
-7.09551
0
LINE
8
BLACK
6
CONTINUOUS
10
3.23349
20
-7.09551
11
3.23349
21
-7.09551
0
LINE
8
BLACK
6
CONTINUOUS
10
3.23349
20
-7.09551
11
3.23349
21
-7.09551
0
LINE
8
BLACK
6
CONTINUOUS
10
3.23349
20
-7.09551
11
3.2312
21
-7.0978
0
LINE
8
BLACK
6
CONTINUOUS
10
3.2312
20
-7.0978
11
3.22749
21
-7.1031
0
LINE
8
BLACK
6
CONTINUOUS
10
3.22749
20
-7.1031
11
3.22475
21
-7.10897
0
LINE
8
BLACK
6
CONTINUOUS
10
3.22475
20
-7.10897
11
3.22308
21
-7.11523
0
LINE
8
BLACK
6
CONTINUOUS
10
3.22308
20
-7.11523
11
3.22251
21
-7.12168
0
LINE
8
BLACK
6
CONTINUOUS
10
3.22251
20
-7.12168
11
3.22308
21
-7.12813
0
LINE
8
BLACK
6
CONTINUOUS
10
3.22308
20
-7.12813
11
3.22475
21
-7.13438
0
LINE
8
BLACK
6
CONTINUOUS
10
3.22475
20
-7.13438
11
3.22749
21
-7.14025
0
LINE
8
BLACK
6
CONTINUOUS
10
3.22749
20
-7.14025
11
3.2312
21
-7.14556
0
LINE
8
BLACK
6
CONTINUOUS
10
3.2312
20
-7.14556
11
3.23349
21
-7.14785
0
LINE
8
BLACK
6
CONTINUOUS
10
3.23349
20
-7.14785
11
3.23349
21
-7.14785
0
LINE
8
BLACK
6
CONTINUOUS
10
3.23349
20
-7.14785
11
3.23349
21
-7.14785
0
LINE
8
BLACK
6
CONTINUOUS
10
3.23349
20
-7.14785
11
3.2836
21
-7.19796
0
LINE
8
BLACK
6
CONTINUOUS
10
3.2836
20
-7.19796
11
3.2836
21
-7.19796
0
LINE
8
BLACK
6
CONTINUOUS
10
3.2836
20
-7.19796
11
3.28589
21
-7.20024
0
LINE
8
BLACK
6
CONTINUOUS
10
3.28589
20
-7.20024
11
3.2912
21
-7.20396
0
LINE
8
BLACK
6
CONTINUOUS
10
3.2912
20
-7.20396
11
3.29707
21
-7.2067
0
LINE
8
BLACK
6
CONTINUOUS
10
3.29707
20
-7.2067
11
3.30332
21
-7.20837
0
LINE
8
BLACK
6
CONTINUOUS
10
3.30332
20
-7.20837
11
3.30977
21
-7.20894
0
LINE
8
BLACK
6
CONTINUOUS
10
3.30977
20
-7.20894
11
3.31622
21
-7.20837
0
LINE
8
BLACK
6
CONTINUOUS
10
3.31622
20
-7.20837
11
3.32248
21
-7.2067
0
LINE
8
BLACK
6
CONTINUOUS
10
3.32248
20
-7.2067
11
3.32835
21
-7.20396
0
LINE
8
BLACK
6
CONTINUOUS
10
3.32835
20
-7.20396
11
3.33365
21
-7.20024
0
LINE
8
BLACK
6
CONTINUOUS
10
3.33365
20
-7.20024
11
3.33594
21
-7.19796
0
LINE
8
BLACK
6
CONTINUOUS
10
3.33594
20
-7.19796
11
3.33594
21
-7.19796
0
LINE
8
BLACK
6
CONTINUOUS
10
3.33594
20
-7.19796
11
3.33594
21
-7.19796
0
LINE
8
BLACK
6
CONTINUOUS
10
3.33594
20
-7.19796
11
3.38605
21
-7.14785
0
LINE
8
BLACK
6
CONTINUOUS
10
3.38605
20
-7.14785
11
3.38605
21
-7.14785
0
LINE
8
BLACK
6
CONTINUOUS
10
3.38605
20
-7.14785
11
3.38605
21
-7.14785
0
LINE
8
BLACK
6
CONTINUOUS
10
3.38605
20
-7.14785
11
3.38834
21
-7.14556
0
LINE
8
BLACK
6
CONTINUOUS
10
3.38834
20
-7.14556
11
3.39205
21
-7.14025
0
LINE
8
BLACK
6
CONTINUOUS
10
3.39205
20
-7.14025
11
3.39479
21
-7.13438
0
LINE
8
BLACK
6
CONTINUOUS
10
3.39479
20
-7.13438
11
3.39647
21
-7.12813
0
LINE
8
BLACK
6
CONTINUOUS
10
3.39647
20
-7.12813
11
3.39703
21
-7.12168
0
LINE
8
BLACK
6
CONTINUOUS
10
3.39703
20
-7.12168
11
3.39647
21
-7.11523
0
LINE
8
BLACK
6
CONTINUOUS
10
3.39647
20
-7.11523
11
3.39479
21
-7.10897
0
LINE
8
BLACK
6
CONTINUOUS
10
3.39479
20
-7.10897
11
3.39205
21
-7.1031
0
LINE
8
BLACK
6
CONTINUOUS
10
3.39205
20
-7.1031
11
3.38834
21
-7.0978
0
LINE
8
BLACK
6
CONTINUOUS
10
3.38834
20
-7.0978
11
3.38605
21
-7.09551
0
LINE
8
BLACK
6
CONTINUOUS
10
3.38605
20
-7.09551
11
3.38605
21
-7.09551
0
LINE
8
BLACK
6
CONTINUOUS
10
3.38605
20
-7.09551
11
3.33594
21
-7.0454
0
LINE
8
BLACK
6
CONTINUOUS
10
3.33594
20
-7.0454
11
3.33365
21
-7.04311
0
LINE
8
BLACK
6
CONTINUOUS
10
3.33365
20
-7.04311
11
3.32835
21
-7.0394
0
LINE
8
BLACK
6
CONTINUOUS
10
3.32835
20
-7.0394
11
3.32248
21
-7.03666
0
LINE
8
BLACK
6
CONTINUOUS
10
3.32248
20
-7.03666
11
3.31622
21
-7.03498
0
LINE
8
BLACK
6
CONTINUOUS
10
3.31622
20
-7.03498
11
3.30977
21
-7.03442
0
LINE
8
BLACK
6
CONTINUOUS
10
3.30977
20
-7.03442
11
3.30332
21
-7.03498
0
LINE
8
BLACK
6
CONTINUOUS
10
3.05482
20
-7.03126
11
3.06166
21
-7.03374
0
LINE
8
BLACK
6
CONTINUOUS
10
3.06166
20
-7.03374
11
3.06796
21
-7.03738
0
LINE
8
BLACK
6
CONTINUOUS
10
3.06796
20
-7.03738
11
3.07353
21
-7.04206
0
LINE
8
BLACK
6
CONTINUOUS
10
3.07353
20
-7.04206
11
3.12364
21
-7.09217
0
LINE
8
BLACK
6
CONTINUOUS
10
3.12364
20
-7.09217
11
3.12364
21
-7.09217
0
LINE
8
BLACK
6
CONTINUOUS
10
3.12364
20
-7.09217
11
3.12832
21
-7.09774
0
LINE
8
BLACK
6
CONTINUOUS
10
3.12832
20
-7.09774
11
3.13196
21
-7.10404
0
LINE
8
BLACK
6
CONTINUOUS
10
3.13196
20
-7.10404
11
3.13444
21
-7.11088
0
LINE
8
BLACK
6
CONTINUOUS
10
3.13444
20
-7.11088
11
3.13571
21
-7.11804
0
LINE
8
BLACK
6
CONTINUOUS
10
3.13571
20
-7.11804
11
3.13571
21
-7.12531
0
LINE
8
BLACK
6
CONTINUOUS
10
3.13571
20
-7.12531
11
3.13444
21
-7.13248
0
LINE
8
BLACK
6
CONTINUOUS
10
3.13444
20
-7.13248
11
3.13196
21
-7.13931
0
LINE
8
BLACK
6
CONTINUOUS
10
3.13196
20
-7.13931
11
3.12832
21
-7.14561
0
LINE
8
BLACK
6
CONTINUOUS
10
3.12832
20
-7.14561
11
3.12364
21
-7.15119
0
LINE
8
BLACK
6
CONTINUOUS
10
3.12364
20
-7.15119
11
3.12364
21
-7.15119
0
LINE
8
BLACK
6
CONTINUOUS
10
3.12364
20
-7.15119
11
3.12364
21
-7.15119
0
LINE
8
BLACK
6
CONTINUOUS
10
3.12364
20
-7.15119
11
3.07353
21
-7.2013
0
LINE
8
BLACK
6
CONTINUOUS
10
3.07353
20
-7.2013
11
3.07353
21
-7.2013
0
LINE
8
BLACK
6
CONTINUOUS
10
3.07353
20
-7.2013
11
3.07353
21
-7.2013
0
LINE
8
BLACK
6
CONTINUOUS
10
3.07353
20
-7.2013
11
3.06796
21
-7.20597
0
LINE
8
BLACK
6
CONTINUOUS
10
3.06796
20
-7.20597
11
3.06166
21
-7.20961
0
LINE
8
BLACK
6
CONTINUOUS
10
3.06166
20
-7.20961
11
3.05482
21
-7.2121
0
LINE
8
BLACK
6
CONTINUOUS
10
3.05482
20
-7.2121
11
3.04766
21
-7.21336
0
LINE
8
BLACK
6
CONTINUOUS
10
3.04766
20
-7.21336
11
3.04039
21
-7.21336
0
LINE
8
BLACK
6
CONTINUOUS
10
3.04039
20
-7.21336
11
3.03322
21
-7.2121
0
LINE
8
BLACK
6
CONTINUOUS
10
3.03322
20
-7.2121
11
3.02639
21
-7.20961
0
LINE
8
BLACK
6
CONTINUOUS
10
3.02639
20
-7.20961
11
3.02009
21
-7.20597
0
LINE
8
BLACK
6
CONTINUOUS
10
3.02009
20
-7.20597
11
3.01451
21
-7.2013
0
LINE
8
BLACK
6
CONTINUOUS
10
3.01451
20
-7.2013
11
3.01451
21
-7.2013
0
LINE
8
BLACK
6
CONTINUOUS
10
3.01451
20
-7.2013
11
3.01451
21
-7.2013
0
LINE
8
BLACK
6
CONTINUOUS
10
3.01451
20
-7.2013
11
3.01451
21
-7.2013
0
LINE
8
BLACK
6
CONTINUOUS
10
3.01451
20
-7.2013
11
2.9644
21
-7.15119
0
LINE
8
BLACK
6
CONTINUOUS
10
2.9644
20
-7.15119
11
2.9644
21
-7.15119
0
LINE
8
BLACK
6
CONTINUOUS
10
2.9644
20
-7.15119
11
2.9644
21
-7.15119
0
LINE
8
BLACK
6
CONTINUOUS
10
2.9644
20
-7.15119
11
2.95973
21
-7.14561
0
LINE
8
BLACK
6
CONTINUOUS
10
2.95973
20
-7.14561
11
2.95609
21
-7.13931
0
LINE
8
BLACK
6
CONTINUOUS
10
2.95609
20
-7.13931
11
2.9536
21
-7.13248
0
LINE
8
BLACK
6
CONTINUOUS
10
2.9536
20
-7.13248
11
2.95234
21
-7.12531
0
LINE
8
BLACK
6
CONTINUOUS
10
2.95234
20
-7.12531
11
2.95234
21
-7.11804
0
LINE
8
BLACK
6
CONTINUOUS
10
2.95234
20
-7.11804
11
2.9536
21
-7.11088
0
LINE
8
BLACK
6
CONTINUOUS
10
2.9536
20
-7.11088
11
2.95609
21
-7.10404
0
LINE
8
BLACK
6
CONTINUOUS
10
2.95609
20
-7.10404
11
2.95973
21
-7.09774
0
LINE
8
BLACK
6
CONTINUOUS
10
2.95973
20
-7.09774
11
2.9644
21
-7.09217
0
LINE
8
BLACK
6
CONTINUOUS
10
2.9644
20
-7.09217
11
2.9644
21
-7.09217
0
LINE
8
BLACK
6
CONTINUOUS
10
2.9644
20
-7.09217
11
2.9644
21
-7.09217
0
LINE
8
BLACK
6
CONTINUOUS
10
2.9644
20
-7.09217
11
3.01451
21
-7.04206
0
LINE
8
BLACK
6
CONTINUOUS
10
3.01451
20
-7.04206
11
3.01451
21
-7.04206
0
LINE
8
BLACK
6
CONTINUOUS
10
3.01451
20
-7.04206
11
3.02009
21
-7.03738
0
LINE
8
BLACK
6
CONTINUOUS
10
3.02009
20
-7.03738
11
3.02639
21
-7.03374
0
LINE
8
BLACK
6
CONTINUOUS
10
3.02639
20
-7.03374
11
3.03322
21
-7.03126
0
LINE
8
BLACK
6
CONTINUOUS
10
3.03322
20
-7.03126
11
3.04039
21
-7.02999
0
LINE
8
BLACK
6
CONTINUOUS
10
3.04039
20
-7.02999
11
3.04766
21
-7.02999
0
LINE
8
BLACK
6
CONTINUOUS
10
3.04766
20
-7.02999
11
3.05482
21
-7.03126
0
LINE
8
BLACK
6
CONTINUOUS
10
3.03757
20
-7.03498
11
3.03132
21
-7.03666
0
LINE
8
BLACK
6
CONTINUOUS
10
3.03132
20
-7.03666
11
3.02545
21
-7.0394
0
LINE
8
BLACK
6
CONTINUOUS
10
3.02545
20
-7.0394
11
3.02014
21
-7.04311
0
LINE
8
BLACK
6
CONTINUOUS
10
3.02014
20
-7.04311
11
3.01786
21
-7.0454
0
LINE
8
BLACK
6
CONTINUOUS
10
3.01786
20
-7.0454
11
3.01786
21
-7.0454
0
LINE
8
BLACK
6
CONTINUOUS
10
3.01786
20
-7.0454
11
2.96775
21
-7.09551
0
LINE
8
BLACK
6
CONTINUOUS
10
2.96775
20
-7.09551
11
2.96775
21
-7.09551
0
LINE
8
BLACK
6
CONTINUOUS
10
2.96775
20
-7.09551
11
2.96775
21
-7.09551
0
LINE
8
BLACK
6
CONTINUOUS
10
2.96775
20
-7.09551
11
2.96546
21
-7.0978
0
LINE
8
BLACK
6
CONTINUOUS
10
2.96546
20
-7.0978
11
2.96174
21
-7.1031
0
LINE
8
BLACK
6
CONTINUOUS
10
2.96174
20
-7.1031
11
2.959
21
-7.10897
0
LINE
8
BLACK
6
CONTINUOUS
10
2.959
20
-7.10897
11
2.95733
21
-7.11523
0
LINE
8
BLACK
6
CONTINUOUS
10
2.95733
20
-7.11523
11
2.95676
21
-7.12168
0
LINE
8
BLACK
6
CONTINUOUS
10
2.95676
20
-7.12168
11
2.95733
21
-7.12813
0
LINE
8
BLACK
6
CONTINUOUS
10
2.95733
20
-7.12813
11
2.959
21
-7.13438
0
LINE
8
BLACK
6
CONTINUOUS
10
2.959
20
-7.13438
11
2.96174
21
-7.14025
0
LINE
8
BLACK
6
CONTINUOUS
10
2.96174
20
-7.14025
11
2.96546
21
-7.14556
0
LINE
8
BLACK
6
CONTINUOUS
10
2.96546
20
-7.14556
11
2.96775
21
-7.14785
0
LINE
8
BLACK
6
CONTINUOUS
10
2.96775
20
-7.14785
11
2.96775
21
-7.14785
0
LINE
8
BLACK
6
CONTINUOUS
10
2.96775
20
-7.14785
11
2.96775
21
-7.14785
0
LINE
8
BLACK
6
CONTINUOUS
10
2.96775
20
-7.14785
11
3.01786
21
-7.19796
0
LINE
8
BLACK
6
CONTINUOUS
10
3.01786
20
-7.19796
11
3.01786
21
-7.19796
0
LINE
8
BLACK
6
CONTINUOUS
10
3.01786
20
-7.19796
11
3.02014
21
-7.20024
0
LINE
8
BLACK
6
CONTINUOUS
10
3.02014
20
-7.20024
11
3.02545
21
-7.20396
0
LINE
8
BLACK
6
CONTINUOUS
10
3.02545
20
-7.20396
11
3.03132
21
-7.2067
0
LINE
8
BLACK
6
CONTINUOUS
10
3.03132
20
-7.2067
11
3.03757
21
-7.20837
0
LINE
8
BLACK
6
CONTINUOUS
10
3.03757
20
-7.20837
11
3.04402
21
-7.20894
0
LINE
8
BLACK
6
CONTINUOUS
10
3.04402
20
-7.20894
11
3.05047
21
-7.20837
0
LINE
8
BLACK
6
CONTINUOUS
10
3.05047
20
-7.20837
11
3.05673
21
-7.2067
0
LINE
8
BLACK
6
CONTINUOUS
10
3.05673
20
-7.2067
11
3.0626
21
-7.20396
0
LINE
8
BLACK
6
CONTINUOUS
10
3.0626
20
-7.20396
11
3.0679
21
-7.20024
0
LINE
8
BLACK
6
CONTINUOUS
10
3.0679
20
-7.20024
11
3.07019
21
-7.19796
0
LINE
8
BLACK
6
CONTINUOUS
10
3.07019
20
-7.19796
11
3.07019
21
-7.19796
0
LINE
8
BLACK
6
CONTINUOUS
10
3.07019
20
-7.19796
11
3.07019
21
-7.19796
0
LINE
8
BLACK
6
CONTINUOUS
10
3.07019
20
-7.19796
11
3.1203
21
-7.14785
0
LINE
8
BLACK
6
CONTINUOUS
10
3.1203
20
-7.14785
11
3.1203
21
-7.14785
0
LINE
8
BLACK
6
CONTINUOUS
10
3.1203
20
-7.14785
11
3.1203
21
-7.14785
0
LINE
8
BLACK
6
CONTINUOUS
10
3.1203
20
-7.14785
11
3.12259
21
-7.14556
0
LINE
8
BLACK
6
CONTINUOUS
10
3.12259
20
-7.14556
11
3.12631
21
-7.14025
0
LINE
8
BLACK
6
CONTINUOUS
10
3.12631
20
-7.14025
11
3.12904
21
-7.13438
0
LINE
8
BLACK
6
CONTINUOUS
10
3.12904
20
-7.13438
11
3.13072
21
-7.12813
0
LINE
8
BLACK
6
CONTINUOUS
10
3.13072
20
-7.12813
11
3.13128
21
-7.12168
0
LINE
8
BLACK
6
CONTINUOUS
10
3.13128
20
-7.12168
11
3.13072
21
-7.11523
0
LINE
8
BLACK
6
CONTINUOUS
10
3.13072
20
-7.11523
11
3.12904
21
-7.10897
0
LINE
8
BLACK
6
CONTINUOUS
10
3.12904
20
-7.10897
11
3.12631
21
-7.1031
0
LINE
8
BLACK
6
CONTINUOUS
10
3.12631
20
-7.1031
11
3.12259
21
-7.0978
0
LINE
8
BLACK
6
CONTINUOUS
10
3.12259
20
-7.0978
11
3.1203
21
-7.09551
0
LINE
8
BLACK
6
CONTINUOUS
10
3.1203
20
-7.09551
11
3.1203
21
-7.09551
0
LINE
8
BLACK
6
CONTINUOUS
10
3.1203
20
-7.09551
11
3.07019
21
-7.0454
0
LINE
8
BLACK
6
CONTINUOUS
10
3.07019
20
-7.0454
11
3.0679
21
-7.04311
0
LINE
8
BLACK
6
CONTINUOUS
10
3.0679
20
-7.04311
11
3.0626
21
-7.0394
0
LINE
8
BLACK
6
CONTINUOUS
10
3.0626
20
-7.0394
11
3.05673
21
-7.03666
0
LINE
8
BLACK
6
CONTINUOUS
10
3.05673
20
-7.03666
11
3.05047
21
-7.03498
0
LINE
8
BLACK
6
CONTINUOUS
10
3.05047
20
-7.03498
11
3.04402
21
-7.03442
0
LINE
8
BLACK
6
CONTINUOUS
10
3.04402
20
-7.03442
11
3.03757
21
-7.03498
0
LINE
8
BLACK
6
CONTINUOUS
10
2.78908
20
-7.03126
11
2.79591
21
-7.03374
0
LINE
8
BLACK
6
CONTINUOUS
10
2.79591
20
-7.03374
11
2.80221
21
-7.03738
0
LINE
8
BLACK
6
CONTINUOUS
10
2.80221
20
-7.03738
11
2.80778
21
-7.04206
0
LINE
8
BLACK
6
CONTINUOUS
10
2.80778
20
-7.04206
11
2.85789
21
-7.09217
0
LINE
8
BLACK
6
CONTINUOUS
10
2.85789
20
-7.09217
11
2.85789
21
-7.09217
0
LINE
8
BLACK
6
CONTINUOUS
10
2.85789
20
-7.09217
11
2.86257
21
-7.09774
0
LINE
8
BLACK
6
CONTINUOUS
10
2.86257
20
-7.09774
11
2.86621
21
-7.10404
0
LINE
8
BLACK
6
CONTINUOUS
10
2.86621
20
-7.10404
11
2.8687
21
-7.11088
0
LINE
8
BLACK
6
CONTINUOUS
10
2.8687
20
-7.11088
11
2.86996
21
-7.11804
0
LINE
8
BLACK
6
CONTINUOUS
10
2.86996
20
-7.11804
11
2.86996
21
-7.12531
0
LINE
8
BLACK
6
CONTINUOUS
10
2.86996
20
-7.12531
11
2.8687
21
-7.13248
0
LINE
8
BLACK
6
CONTINUOUS
10
2.8687
20
-7.13248
11
2.86621
21
-7.13931
0
LINE
8
BLACK
6
CONTINUOUS
10
2.86621
20
-7.13931
11
2.86257
21
-7.14561
0
LINE
8
BLACK
6
CONTINUOUS
10
2.86257
20
-7.14561
11
2.85789
21
-7.15119
0
LINE
8
BLACK
6
CONTINUOUS
10
2.85789
20
-7.15119
11
2.85789
21
-7.15119
0
LINE
8
BLACK
6
CONTINUOUS
10
2.85789
20
-7.15119
11
2.85789
21
-7.15119
0
LINE
8
BLACK
6
CONTINUOUS
10
2.85789
20
-7.15119
11
2.80778
21
-7.2013
0
LINE
8
BLACK
6
CONTINUOUS
10
2.80778
20
-7.2013
11
2.80778
21
-7.2013
0
LINE
8
BLACK
6
CONTINUOUS
10
2.80778
20
-7.2013
11
2.80778
21
-7.2013
0
LINE
8
BLACK
6
CONTINUOUS
10
2.80778
20
-7.2013
11
2.80221
21
-7.20597
0
LINE
8
BLACK
6
CONTINUOUS
10
2.80221
20
-7.20597
11
2.79591
21
-7.20961
0
LINE
8
BLACK
6
CONTINUOUS
10
2.79591
20
-7.20961
11
2.78908
21
-7.2121
0
LINE
8
BLACK
6
CONTINUOUS
10
2.78908
20
-7.2121
11
2.78191
21
-7.21336
0
LINE
8
BLACK
6
CONTINUOUS
10
2.78191
20
-7.21336
11
2.77464
21
-7.21336
0
LINE
8
BLACK
6
CONTINUOUS
10
2.77464
20
-7.21336
11
2.76747
21
-7.2121
0
LINE
8
BLACK
6
CONTINUOUS
10
2.76747
20
-7.2121
11
2.76064
21
-7.20961
0
LINE
8
BLACK
6
CONTINUOUS
10
2.76064
20
-7.20961
11
2.75434
21
-7.20597
0
LINE
8
BLACK
6
CONTINUOUS
10
2.75434
20
-7.20597
11
2.74877
21
-7.2013
0
LINE
8
BLACK
6
CONTINUOUS
10
2.74877
20
-7.2013
11
2.74877
21
-7.2013
0
LINE
8
BLACK
6
CONTINUOUS
10
2.74877
20
-7.2013
11
2.74877
21
-7.2013
0
LINE
8
BLACK
6
CONTINUOUS
10
2.74877
20
-7.2013
11
2.74877
21
-7.2013
0
LINE
8
BLACK
6
CONTINUOUS
10
2.74877
20
-7.2013
11
2.69866
21
-7.15119
0
LINE
8
BLACK
6
CONTINUOUS
10
2.69866
20
-7.15119
11
2.69866
21
-7.15119
0
LINE
8
BLACK
6
CONTINUOUS
10
2.69866
20
-7.15119
11
2.69866
21
-7.15119
0
LINE
8
BLACK
6
CONTINUOUS
10
2.69866
20
-7.15119
11
2.69398
21
-7.14561
0
LINE
8
BLACK
6
CONTINUOUS
10
2.69398
20
-7.14561
11
2.69034
21
-7.13931
0
LINE
8
BLACK
6
CONTINUOUS
10
2.69034
20
-7.13931
11
2.68786
21
-7.13248
0
LINE
8
BLACK
6
CONTINUOUS
10
2.68786
20
-7.13248
11
2.68659
21
-7.12531
0
LINE
8
BLACK
6
CONTINUOUS
10
2.68659
20
-7.12531
11
2.68659
21
-7.11804
0
LINE
8
BLACK
6
CONTINUOUS
10
2.68659
20
-7.11804
11
2.68786
21
-7.11088
0
LINE
8
BLACK
6
CONTINUOUS
10
2.68786
20
-7.11088
11
2.69034
21
-7.10404
0
LINE
8
BLACK
6
CONTINUOUS
10
2.69034
20
-7.10404
11
2.69398
21
-7.09774
0
LINE
8
BLACK
6
CONTINUOUS
10
2.69398
20
-7.09774
11
2.69866
21
-7.09217
0
LINE
8
BLACK
6
CONTINUOUS
10
2.69866
20
-7.09217
11
2.69866
21
-7.09217
0
LINE
8
BLACK
6
CONTINUOUS
10
2.69866
20
-7.09217
11
2.69866
21
-7.09217
0
LINE
8
BLACK
6
CONTINUOUS
10
2.69866
20
-7.09217
11
2.74877
21
-7.04206
0
LINE
8
BLACK
6
CONTINUOUS
10
2.74877
20
-7.04206
11
2.74877
21
-7.04206
0
LINE
8
BLACK
6
CONTINUOUS
10
2.74877
20
-7.04206
11
2.75434
21
-7.03738
0
LINE
8
BLACK
6
CONTINUOUS
10
2.75434
20
-7.03738
11
2.76064
21
-7.03374
0
LINE
8
BLACK
6
CONTINUOUS
10
2.76064
20
-7.03374
11
2.76747
21
-7.03126
0
LINE
8
BLACK
6
CONTINUOUS
10
2.76747
20
-7.03126
11
2.77464
21
-7.02999
0
LINE
8
BLACK
6
CONTINUOUS
10
2.77464
20
-7.02999
11
2.78191
21
-7.02999
0
LINE
8
BLACK
6
CONTINUOUS
10
2.78191
20
-7.02999
11
2.78908
21
-7.03126
0
LINE
8
BLACK
6
CONTINUOUS
10
2.77182
20
-7.03498
11
2.76557
21
-7.03666
0
LINE
8
BLACK
6
CONTINUOUS
10
2.76557
20
-7.03666
11
2.7597
21
-7.0394
0
LINE
8
BLACK
6
CONTINUOUS
10
2.7597
20
-7.0394
11
2.7544
21
-7.04311
0
LINE
8
BLACK
6
CONTINUOUS
10
2.7544
20
-7.04311
11
2.75211
21
-7.0454
0
LINE
8
BLACK
6
CONTINUOUS
10
2.75211
20
-7.0454
11
2.75211
21
-7.0454
0
LINE
8
BLACK
6
CONTINUOUS
10
2.75211
20
-7.0454
11
2.702
21
-7.09551
0
LINE
8
BLACK
6
CONTINUOUS
10
2.702
20
-7.09551
11
2.702
21
-7.09551
0
LINE
8
BLACK
6
CONTINUOUS
10
2.702
20
-7.09551
11
2.702
21
-7.09551
0
LINE
8
BLACK
6
CONTINUOUS
10
2.702
20
-7.09551
11
2.69971
21
-7.0978
0
LINE
8
BLACK
6
CONTINUOUS
10
2.69971
20
-7.0978
11
2.69599
21
-7.1031
0
LINE
8
BLACK
6
CONTINUOUS
10
2.69599
20
-7.1031
11
2.69326
21
-7.10897
0
LINE
8
BLACK
6
CONTINUOUS
10
2.69326
20
-7.10897
11
2.69158
21
-7.11523
0
LINE
8
BLACK
6
CONTINUOUS
10
2.69158
20
-7.11523
11
2.69102
21
-7.12168
0
LINE
8
BLACK
6
CONTINUOUS
10
2.69102
20
-7.12168
11
2.69158
21
-7.12813
0
LINE
8
BLACK
6
CONTINUOUS
10
2.69158
20
-7.12813
11
2.69326
21
-7.13438
0
LINE
8
BLACK
6
CONTINUOUS
10
2.69326
20
-7.13438
11
2.69599
21
-7.14025
0
LINE
8
BLACK
6
CONTINUOUS
10
2.69599
20
-7.14025
11
2.69971
21
-7.14556
0
LINE
8
BLACK
6
CONTINUOUS
10
2.69971
20
-7.14556
11
2.702
21
-7.14785
0
LINE
8
BLACK
6
CONTINUOUS
10
2.702
20
-7.14785
11
2.702
21
-7.14785
0
LINE
8
BLACK
6
CONTINUOUS
10
2.702
20
-7.14785
11
2.702
21
-7.14785
0
LINE
8
BLACK
6
CONTINUOUS
10
2.702
20
-7.14785
11
2.75211
21
-7.19796
0
LINE
8
BLACK
6
CONTINUOUS
10
2.75211
20
-7.19796
11
2.75211
21
-7.19796
0
LINE
8
BLACK
6
CONTINUOUS
10
2.75211
20
-7.19796
11
2.7544
21
-7.20024
0
LINE
8
BLACK
6
CONTINUOUS
10
2.7544
20
-7.20024
11
2.7597
21
-7.20396
0
LINE
8
BLACK
6
CONTINUOUS
10
2.7597
20
-7.20396
11
2.76557
21
-7.2067
0
LINE
8
BLACK
6
CONTINUOUS
10
2.76557
20
-7.2067
11
2.77182
21
-7.20837
0
LINE
8
BLACK
6
CONTINUOUS
10
2.77182
20
-7.20837
11
2.77828
21
-7.20894
0
LINE
8
BLACK
6
CONTINUOUS
10
2.77828
20
-7.20894
11
2.78473
21
-7.20837
0
LINE
8
BLACK
6
CONTINUOUS
10
2.78473
20
-7.20837
11
2.79098
21
-7.2067
0
LINE
8
BLACK
6
CONTINUOUS
10
2.79098
20
-7.2067
11
2.79685
21
-7.20396
0
LINE
8
BLACK
6
CONTINUOUS
10
2.79685
20
-7.20396
11
2.80215
21
-7.20024
0
LINE
8
BLACK
6
CONTINUOUS
10
2.80215
20
-7.20024
11
2.80444
21
-7.19796
0
LINE
8
BLACK
6
CONTINUOUS
10
2.80444
20
-7.19796
11
2.80444
21
-7.19796
0
LINE
8
BLACK
6
CONTINUOUS
10
2.80444
20
-7.19796
11
2.80444
21
-7.19796
0
LINE
8
BLACK
6
CONTINUOUS
10
2.80444
20
-7.19796
11
2.85455
21
-7.14785
0
LINE
8
BLACK
6
CONTINUOUS
10
2.85455
20
-7.14785
11
2.85455
21
-7.14785
0
LINE
8
BLACK
6
CONTINUOUS
10
2.85455
20
-7.14785
11
2.85455
21
-7.14785
0
LINE
8
BLACK
6
CONTINUOUS
10
2.85455
20
-7.14785
11
2.85684
21
-7.14556
0
LINE
8
BLACK
6
CONTINUOUS
10
2.85684
20
-7.14556
11
2.86056
21
-7.14025
0
LINE
8
BLACK
6
CONTINUOUS
10
2.86056
20
-7.14025
11
2.86329
21
-7.13438
0
LINE
8
BLACK
6
CONTINUOUS
10
2.86329
20
-7.13438
11
2.86497
21
-7.12813
0
LINE
8
BLACK
6
CONTINUOUS
10
2.86497
20
-7.12813
11
2.86553
21
-7.12168
0
LINE
8
BLACK
6
CONTINUOUS
10
2.86553
20
-7.12168
11
2.86497
21
-7.11523
0
LINE
8
BLACK
6
CONTINUOUS
10
2.86497
20
-7.11523
11
2.86329
21
-7.10897
0
LINE
8
BLACK
6
CONTINUOUS
10
2.86329
20
-7.10897
11
2.86056
21
-7.1031
0
LINE
8
BLACK
6
CONTINUOUS
10
2.86056
20
-7.1031
11
2.85684
21
-7.0978
0
LINE
8
BLACK
6
CONTINUOUS
10
2.85684
20
-7.0978
11
2.85455
21
-7.09551
0
LINE
8
BLACK
6
CONTINUOUS
10
2.85455
20
-7.09551
11
2.85455
21
-7.09551
0
LINE
8
BLACK
6
CONTINUOUS
10
2.85455
20
-7.09551
11
2.80444
21
-7.0454
0
LINE
8
BLACK
6
CONTINUOUS
10
2.80444
20
-7.0454
11
2.80215
21
-7.04311
0
LINE
8
BLACK
6
CONTINUOUS
10
2.80215
20
-7.04311
11
2.79685
21
-7.0394
0
LINE
8
BLACK
6
CONTINUOUS
10
2.79685
20
-7.0394
11
2.79098
21
-7.03666
0
LINE
8
BLACK
6
CONTINUOUS
10
2.79098
20
-7.03666
11
2.78473
21
-7.03498
0
LINE
8
BLACK
6
CONTINUOUS
10
2.78473
20
-7.03498
11
2.77828
21
-7.03442
0
LINE
8
BLACK
6
CONTINUOUS
10
2.77828
20
-7.03442
11
2.77182
21
-7.03498
0
LINE
8
BLACK
6
CONTINUOUS
10
3.58632
20
-6.76551
11
3.59316
21
-6.768
0
LINE
8
BLACK
6
CONTINUOUS
10
3.59316
20
-6.768
11
3.59946
21
-6.77163
0
LINE
8
BLACK
6
CONTINUOUS
10
3.59946
20
-6.77163
11
3.60503
21
-6.77631
0
LINE
8
BLACK
6
CONTINUOUS
10
3.60503
20
-6.77631
11
3.65514
21
-6.82642
0
LINE
8
BLACK
6
CONTINUOUS
10
3.65514
20
-6.82642
11
3.65514
21
-6.82642
0
LINE
8
BLACK
6
CONTINUOUS
10
3.65514
20
-6.82642
11
3.65981
21
-6.83199
0
LINE
8
BLACK
6
CONTINUOUS
10
3.65981
20
-6.83199
11
3.66345
21
-6.83829
0
LINE
8
BLACK
6
CONTINUOUS
10
3.66345
20
-6.83829
11
3.66594
21
-6.84513
0
LINE
8
BLACK
6
CONTINUOUS
10
3.66594
20
-6.84513
11
3.6672
21
-6.85229
0
LINE
8
BLACK
6
CONTINUOUS
10
3.6672
20
-6.85229
11
3.6672
21
-6.85957
0
LINE
8
BLACK
6
CONTINUOUS
10
3.6672
20
-6.85957
11
3.66594
21
-6.86673
0
LINE
8
BLACK
6
CONTINUOUS
10
3.66594
20
-6.86673
11
3.66345
21
-6.87357
0
LINE
8
BLACK
6
CONTINUOUS
10
3.66345
20
-6.87357
11
3.65981
21
-6.87987
0
LINE
8
BLACK
6
CONTINUOUS
10
3.65981
20
-6.87987
11
3.65514
21
-6.88544
0
LINE
8
BLACK
6
CONTINUOUS
10
3.65514
20
-6.88544
11
3.65514
21
-6.88544
0
LINE
8
BLACK
6
CONTINUOUS
10
3.65514
20
-6.88544
11
3.65514
21
-6.88544
0
LINE
8
BLACK
6
CONTINUOUS
10
3.65514
20
-6.88544
11
3.60503
21
-6.93555
0
LINE
8
BLACK
6
CONTINUOUS
10
3.60503
20
-6.93555
11
3.60503
21
-6.93555
0
LINE
8
BLACK
6
CONTINUOUS
10
3.60503
20
-6.93555
11
3.60503
21
-6.93555
0
LINE
8
BLACK
6
CONTINUOUS
10
3.60503
20
-6.93555
11
3.59946
21
-6.94022
0
LINE
8
BLACK
6
CONTINUOUS
10
3.59946
20
-6.94022
11
3.59316
21
-6.94386
0
LINE
8
BLACK
6
CONTINUOUS
10
3.59316
20
-6.94386
11
3.58632
21
-6.94635
0
LINE
8
BLACK
6
CONTINUOUS
10
3.58632
20
-6.94635
11
3.57916
21
-6.94761
0
LINE
8
BLACK
6
CONTINUOUS
10
3.57916
20
-6.94761
11
3.57188
21
-6.94761
0
LINE
8
BLACK
6
CONTINUOUS
10
3.57188
20
-6.94761
11
3.56472
21
-6.94635
0
LINE
8
BLACK
6
CONTINUOUS
10
3.56472
20
-6.94635
11
3.55788
21
-6.94386
0
LINE
8
BLACK
6
CONTINUOUS
10
3.55788
20
-6.94386
11
3.55158
21
-6.94022
0
LINE
8
BLACK
6
CONTINUOUS
10
3.55158
20
-6.94022
11
3.54601
21
-6.93555
0
LINE
8
BLACK
6
CONTINUOUS
10
3.54601
20
-6.93555
11
3.54601
21
-6.93555
0
LINE
8
BLACK
6
CONTINUOUS
10
3.54601
20
-6.93555
11
3.54601
21
-6.93555
0
LINE
8
BLACK
6
CONTINUOUS
10
3.54601
20
-6.93555
11
3.54601
21
-6.93555
0
LINE
8
BLACK
6
CONTINUOUS
10
3.54601
20
-6.93555
11
3.4959
21
-6.88544
0
LINE
8
BLACK
6
CONTINUOUS
10
3.4959
20
-6.88544
11
3.4959
21
-6.88544
0
LINE
8
BLACK
6
CONTINUOUS
10
3.4959
20
-6.88544
11
3.4959
21
-6.88544
0
LINE
8
BLACK
6
CONTINUOUS
10
3.4959
20
-6.88544
11
3.49122
21
-6.87987
0
LINE
8
BLACK
6
CONTINUOUS
10
3.49122
20
-6.87987
11
3.48759
21
-6.87357
0
LINE
8
BLACK
6
CONTINUOUS
10
3.48759
20
-6.87357
11
3.4851
21
-6.86673
0
LINE
8
BLACK
6
CONTINUOUS
10
3.4851
20
-6.86673
11
3.48384
21
-6.85957
0
LINE
8
BLACK
6
CONTINUOUS
10
3.48384
20
-6.85957
11
3.48384
21
-6.85229
0
LINE
8
BLACK
6
CONTINUOUS
10
3.48384
20
-6.85229
11
3.4851
21
-6.84513
0
LINE
8
BLACK
6
CONTINUOUS
10
3.4851
20
-6.84513
11
3.48759
21
-6.83829
0
LINE
8
BLACK
6
CONTINUOUS
10
3.48759
20
-6.83829
11
3.49122
21
-6.83199
0
LINE
8
BLACK
6
CONTINUOUS
10
3.49122
20
-6.83199
11
3.4959
21
-6.82642
0
LINE
8
BLACK
6
CONTINUOUS
10
3.4959
20
-6.82642
11
3.4959
21
-6.82642
0
LINE
8
BLACK
6
CONTINUOUS
10
3.4959
20
-6.82642
11
3.4959
21
-6.82642
0
LINE
8
BLACK
6
CONTINUOUS
10
3.4959
20
-6.82642
11
3.54601
21
-6.77631
0
LINE
8
BLACK
6
CONTINUOUS
10
3.54601
20
-6.77631
11
3.54601
21
-6.77631
0
LINE
8
BLACK
6
CONTINUOUS
10
3.54601
20
-6.77631
11
3.55158
21
-6.77163
0
LINE
8
BLACK
6
CONTINUOUS
10
3.55158
20
-6.77163
11
3.55788
21
-6.768
0
LINE
8
BLACK
6
CONTINUOUS
10
3.55788
20
-6.768
11
3.56472
21
-6.76551
0
LINE
8
BLACK
6
CONTINUOUS
10
3.56472
20
-6.76551
11
3.57188
21
-6.76425
0
LINE
8
BLACK
6
CONTINUOUS
10
3.57188
20
-6.76425
11
3.57916
21
-6.76425
0
LINE
8
BLACK
6
CONTINUOUS
10
3.57916
20
-6.76425
11
3.58632
21
-6.76551
0
LINE
8
BLACK
6
CONTINUOUS
10
3.56907
20
-6.76923
11
3.56281
21
-6.77091
0
LINE
8
BLACK
6
CONTINUOUS
10
3.56281
20
-6.77091
11
3.55695
21
-6.77365
0
LINE
8
BLACK
6
CONTINUOUS
10
3.55695
20
-6.77365
11
3.55164
21
-6.77736
0
LINE
8
BLACK
6
CONTINUOUS
10
3.55164
20
-6.77736
11
3.54935
21
-6.77965
0
LINE
8
BLACK
6
CONTINUOUS
10
3.54935
20
-6.77965
11
3.54935
21
-6.77965
0
LINE
8
BLACK
6
CONTINUOUS
10
3.54935
20
-6.77965
11
3.49924
21
-6.82976
0
LINE
8
BLACK
6
CONTINUOUS
10
3.49924
20
-6.82976
11
3.49924
21
-6.82976
0
LINE
8
BLACK
6
CONTINUOUS
10
3.49924
20
-6.82976
11
3.49924
21
-6.82976
0
LINE
8
BLACK
6
CONTINUOUS
10
3.49924
20
-6.82976
11
3.49695
21
-6.83205
0
LINE
8
BLACK
6
CONTINUOUS
10
3.49695
20
-6.83205
11
3.49324
21
-6.83735
0
LINE
8
BLACK
6
CONTINUOUS
10
3.49324
20
-6.83735
11
3.4905
21
-6.84322
0
LINE
8
BLACK
6
CONTINUOUS
10
3.4905
20
-6.84322
11
3.48882
21
-6.84948
0
LINE
8
BLACK
6
CONTINUOUS
10
3.48882
20
-6.84948
11
3.48826
21
-6.85593
0
LINE
8
BLACK
6
CONTINUOUS
10
3.48826
20
-6.85593
11
3.48882
21
-6.86238
0
LINE
8
BLACK
6
CONTINUOUS
10
3.48882
20
-6.86238
11
3.4905
21
-6.86863
0
LINE
8
BLACK
6
CONTINUOUS
10
3.4905
20
-6.86863
11
3.49324
21
-6.8745
0
LINE
8
BLACK
6
CONTINUOUS
10
3.49324
20
-6.8745
11
3.49695
21
-6.87981
0
LINE
8
BLACK
6
CONTINUOUS
10
3.49695
20
-6.87981
11
3.49924
21
-6.8821
0
LINE
8
BLACK
6
CONTINUOUS
10
3.49924
20
-6.8821
11
3.49924
21
-6.8821
0
LINE
8
BLACK
6
CONTINUOUS
10
3.49924
20
-6.8821
11
3.49924
21
-6.8821
0
LINE
8
BLACK
6
CONTINUOUS
10
3.49924
20
-6.8821
11
3.54935
21
-6.93221
0
LINE
8
BLACK
6
CONTINUOUS
10
3.54935
20
-6.93221
11
3.54935
21
-6.93221
0
LINE
8
BLACK
6
CONTINUOUS
10
3.54935
20
-6.93221
11
3.55164
21
-6.9345
0
LINE
8
BLACK
6
CONTINUOUS
10
3.55164
20
-6.9345
11
3.55695
21
-6.93821
0
LINE
8
BLACK
6
CONTINUOUS
10
3.55695
20
-6.93821
11
3.56281
21
-6.94095
0
LINE
8
BLACK
6
CONTINUOUS
10
3.56281
20
-6.94095
11
3.56907
21
-6.94262
0
LINE
8
BLACK
6
CONTINUOUS
10
3.56907
20
-6.94262
11
3.57552
21
-6.94319
0
LINE
8
BLACK
6
CONTINUOUS
10
3.57552
20
-6.94319
11
3.58197
21
-6.94262
0
LINE
8
BLACK
6
CONTINUOUS
10
3.58197
20
-6.94262
11
3.58823
21
-6.94095
0
LINE
8
BLACK
6
CONTINUOUS
10
3.58823
20
-6.94095
11
3.59409
21
-6.93821
0
LINE
8
BLACK
6
CONTINUOUS
10
3.59409
20
-6.93821
11
3.5994
21
-6.9345
0
LINE
8
BLACK
6
CONTINUOUS
10
3.5994
20
-6.9345
11
3.60169
21
-6.93221
0
LINE
8
BLACK
6
CONTINUOUS
10
3.60169
20
-6.93221
11
3.60169
21
-6.93221
0
LINE
8
BLACK
6
CONTINUOUS
10
3.60169
20
-6.93221
11
3.60169
21
-6.93221
0
LINE
8
BLACK
6
CONTINUOUS
10
3.60169
20
-6.93221
11
3.6518
21
-6.8821
0
LINE
8
BLACK
6
CONTINUOUS
10
3.6518
20
-6.8821
11
3.6518
21
-6.8821
0
LINE
8
BLACK
6
CONTINUOUS
10
3.6518
20
-6.8821
11
3.6518
21
-6.8821
0
LINE
8
BLACK
6
CONTINUOUS
10
3.6518
20
-6.8821
11
3.65409
21
-6.87981
0
LINE
8
BLACK
6
CONTINUOUS
10
3.65409
20
-6.87981
11
3.6578
21
-6.8745
0
LINE
8
BLACK
6
CONTINUOUS
10
3.6578
20
-6.8745
11
3.66054
21
-6.86863
0
LINE
8
BLACK
6
CONTINUOUS
10
3.66054
20
-6.86863
11
3.66221
21
-6.86238
0
LINE
8
BLACK
6
CONTINUOUS
10
3.66221
20
-6.86238
11
3.66278
21
-6.85593
0
LINE
8
BLACK
6
CONTINUOUS
10
3.66278
20
-6.85593
11
3.66221
21
-6.84948
0
LINE
8
BLACK
6
CONTINUOUS
10
3.66221
20
-6.84948
11
3.66054
21
-6.84322
0
LINE
8
BLACK
6
CONTINUOUS
10
3.66054
20
-6.84322
11
3.6578
21
-6.83735
0
LINE
8
BLACK
6
CONTINUOUS
10
3.6578
20
-6.83735
11
3.65409
21
-6.83205
0
LINE
8
BLACK
6
CONTINUOUS
10
3.65409
20
-6.83205
11
3.6518
21
-6.82976
0
LINE
8
BLACK
6
CONTINUOUS
10
3.6518
20
-6.82976
11
3.6518
21
-6.82976
0
LINE
8
BLACK
6
CONTINUOUS
10
3.6518
20
-6.82976
11
3.60169
21
-6.77965
0
LINE
8
BLACK
6
CONTINUOUS
10
3.60169
20
-6.77965
11
3.5994
21
-6.77736
0
LINE
8
BLACK
6
CONTINUOUS
10
3.5994
20
-6.77736
11
3.59409
21
-6.77365
0
LINE
8
BLACK
6
CONTINUOUS
10
3.59409
20
-6.77365
11
3.58823
21
-6.77091
0
LINE
8
BLACK
6
CONTINUOUS
10
3.58823
20
-6.77091
11
3.58197
21
-6.76923
0
LINE
8
BLACK
6
CONTINUOUS
10
3.58197
20
-6.76923
11
3.57552
21
-6.76867
0
LINE
8
BLACK
6
CONTINUOUS
10
3.57552
20
-6.76867
11
3.56907
21
-6.76923
0
LINE
8
BLACK
6
CONTINUOUS
10
3.32057
20
-6.76551
11
3.32741
21
-6.768
0
LINE
8
BLACK
6
CONTINUOUS
10
3.32741
20
-6.768
11
3.33371
21
-6.77163
0
LINE
8
BLACK
6
CONTINUOUS
10
3.33371
20
-6.77163
11
3.33928
21
-6.77631
0
LINE
8
BLACK
6
CONTINUOUS
10
3.33928
20
-6.77631
11
3.38939
21
-6.82642
0
LINE
8
BLACK
6
CONTINUOUS
10
3.38939
20
-6.82642
11
3.38939
21
-6.82642
0
LINE
8
BLACK
6
CONTINUOUS
10
3.38939
20
-6.82642
11
3.39407
21
-6.83199
0
LINE
8
BLACK
6
CONTINUOUS
10
3.39407
20
-6.83199
11
3.3977
21
-6.83829
0
LINE
8
BLACK
6
CONTINUOUS
10
3.3977
20
-6.83829
11
3.40019
21
-6.84513
0
LINE
8
BLACK
6
CONTINUOUS
10
3.40019
20
-6.84513
11
3.40146
21
-6.85229
0
LINE
8
BLACK
6
CONTINUOUS
10
3.40146
20
-6.85229
11
3.40146
21
-6.85957
0
LINE
8
BLACK
6
CONTINUOUS
10
3.40146
20
-6.85957
11
3.40019
21
-6.86673
0
LINE
8
BLACK
6
CONTINUOUS
10
3.40019
20
-6.86673
11
3.3977
21
-6.87357
0
LINE
8
BLACK
6
CONTINUOUS
10
3.3977
20
-6.87357
11
3.39407
21
-6.87987
0
LINE
8
BLACK
6
CONTINUOUS
10
3.39407
20
-6.87987
11
3.38939
21
-6.88544
0
LINE
8
BLACK
6
CONTINUOUS
10
3.38939
20
-6.88544
11
3.38939
21
-6.88544
0
LINE
8
BLACK
6
CONTINUOUS
10
3.38939
20
-6.88544
11
3.38939
21
-6.88544
0
LINE
8
BLACK
6
CONTINUOUS
10
3.38939
20
-6.88544
11
3.33928
21
-6.93555
0
LINE
8
BLACK
6
CONTINUOUS
10
3.33928
20
-6.93555
11
3.33928
21
-6.93555
0
LINE
8
BLACK
6
CONTINUOUS
10
3.33928
20
-6.93555
11
3.33928
21
-6.93555
0
LINE
8
BLACK
6
CONTINUOUS
10
3.33928
20
-6.93555
11
3.33371
21
-6.94022
0
LINE
8
BLACK
6
CONTINUOUS
10
3.33371
20
-6.94022
11
3.32741
21
-6.94386
0
LINE
8
BLACK
6
CONTINUOUS
10
3.32741
20
-6.94386
11
3.32057
21
-6.94635
0
LINE
8
BLACK
6
CONTINUOUS
10
3.32057
20
-6.94635
11
3.31341
21
-6.94761
0
LINE
8
BLACK
6
CONTINUOUS
10
3.31341
20
-6.94761
11
3.30613
21
-6.94761
0
LINE
8
BLACK
6
CONTINUOUS
10
3.30613
20
-6.94761
11
3.29897
21
-6.94635
0
LINE
8
BLACK
6
CONTINUOUS
10
3.29897
20
-6.94635
11
3.29214
21
-6.94386
0
LINE
8
BLACK
6
CONTINUOUS
10
3.29214
20
-6.94386
11
3.28584
21
-6.94022
0
LINE
8
BLACK
6
CONTINUOUS
10
3.28584
20
-6.94022
11
3.28026
21
-6.93555
0
LINE
8
BLACK
6
CONTINUOUS
10
3.28026
20
-6.93555
11
3.28026
21
-6.93555
0
LINE
8
BLACK
6
CONTINUOUS
10
3.28026
20
-6.93555
11
3.28026
21
-6.93555
0
LINE
8
BLACK
6
CONTINUOUS
10
3.28026
20
-6.93555
11
3.28026
21
-6.93555
0
LINE
8
BLACK
6
CONTINUOUS
10
3.28026
20
-6.93555
11
3.23015
21
-6.88544
0
LINE
8
BLACK
6
CONTINUOUS
10
3.23015
20
-6.88544
11
3.23015
21
-6.88544
0
LINE
8
BLACK
6
CONTINUOUS
10
3.23015
20
-6.88544
11
3.23015
21
-6.88544
0
LINE
8
BLACK
6
CONTINUOUS
10
3.23015
20
-6.88544
11
3.22548
21
-6.87987
0
LINE
8
BLACK
6
CONTINUOUS
10
3.22548
20
-6.87987
11
3.22184
21
-6.87357
0
LINE
8
BLACK
6
CONTINUOUS
10
3.22184
20
-6.87357
11
3.21935
21
-6.86673
0
LINE
8
BLACK
6
CONTINUOUS
10
3.21935
20
-6.86673
11
3.21809
21
-6.85957
0
LINE
8
BLACK
6
CONTINUOUS
10
3.21809
20
-6.85957
11
3.21809
21
-6.85229
0
LINE
8
BLACK
6
CONTINUOUS
10
3.21809
20
-6.85229
11
3.21935
21
-6.84513
0
LINE
8
BLACK
6
CONTINUOUS
10
3.21935
20
-6.84513
11
3.22184
21
-6.83829
0
LINE
8
BLACK
6
CONTINUOUS
10
3.22184
20
-6.83829
11
3.22548
21
-6.83199
0
LINE
8
BLACK
6
CONTINUOUS
10
3.22548
20
-6.83199
11
3.23015
21
-6.82642
0
LINE
8
BLACK
6
CONTINUOUS
10
3.23015
20
-6.82642
11
3.23015
21
-6.82642
0
LINE
8
BLACK
6
CONTINUOUS
10
3.23015
20
-6.82642
11
3.23015
21
-6.82642
0
LINE
8
BLACK
6
CONTINUOUS
10
3.23015
20
-6.82642
11
3.28026
21
-6.77631
0
LINE
8
BLACK
6
CONTINUOUS
10
3.28026
20
-6.77631
11
3.28026
21
-6.77631
0
LINE
8
BLACK
6
CONTINUOUS
10
3.28026
20
-6.77631
11
3.28584
21
-6.77163
0
LINE
8
BLACK
6
CONTINUOUS
10
3.28584
20
-6.77163
11
3.29213
21
-6.768
0
LINE
8
BLACK
6
CONTINUOUS
10
3.29213
20
-6.768
11
3.29897
21
-6.76551
0
LINE
8
BLACK
6
CONTINUOUS
10
3.29897
20
-6.76551
11
3.30613
21
-6.76425
0
LINE
8
BLACK
6
CONTINUOUS
10
3.30613
20
-6.76425
11
3.31341
21
-6.76425
0
LINE
8
BLACK
6
CONTINUOUS
10
3.31341
20
-6.76425
11
3.32057
21
-6.76551
0
LINE
8
BLACK
6
CONTINUOUS
10
3.30332
20
-6.76923
11
3.29707
21
-6.77091
0
LINE
8
BLACK
6
CONTINUOUS
10
3.29707
20
-6.77091
11
3.2912
21
-6.77365
0
LINE
8
BLACK
6
CONTINUOUS
10
3.2912
20
-6.77365
11
3.28589
21
-6.77736
0
LINE
8
BLACK
6
CONTINUOUS
10
3.28589
20
-6.77736
11
3.2836
21
-6.77965
0
LINE
8
BLACK
6
CONTINUOUS
10
3.2836
20
-6.77965
11
3.2836
21
-6.77965
0
LINE
8
BLACK
6
CONTINUOUS
10
3.2836
20
-6.77965
11
3.23349
21
-6.82976
0
LINE
8
BLACK
6
CONTINUOUS
10
3.23349
20
-6.82976
11
3.23349
21
-6.82976
0
LINE
8
BLACK
6
CONTINUOUS
10
3.23349
20
-6.82976
11
3.23349
21
-6.82976
0
LINE
8
BLACK
6
CONTINUOUS
10
3.23349
20
-6.82976
11
3.2312
21
-6.83205
0
LINE
8
BLACK
6
CONTINUOUS
10
3.2312
20
-6.83205
11
3.22749
21
-6.83735
0
LINE
8
BLACK
6
CONTINUOUS
10
3.22749
20
-6.83735
11
3.22475
21
-6.84322
0
LINE
8
BLACK
6
CONTINUOUS
10
3.22475
20
-6.84322
11
3.22308
21
-6.84948
0
LINE
8
BLACK
6
CONTINUOUS
10
3.22308
20
-6.84948
11
3.22251
21
-6.85593
0
LINE
8
BLACK
6
CONTINUOUS
10
3.22251
20
-6.85593
11
3.22308
21
-6.86238
0
LINE
8
BLACK
6
CONTINUOUS
10
3.22308
20
-6.86238
11
3.22475
21
-6.86863
0
LINE
8
BLACK
6
CONTINUOUS
10
3.22475
20
-6.86863
11
3.22749
21
-6.8745
0
LINE
8
BLACK
6
CONTINUOUS
10
3.22749
20
-6.8745
11
3.2312
21
-6.87981
0
LINE
8
BLACK
6
CONTINUOUS
10
3.2312
20
-6.87981
11
3.23349
21
-6.8821
0
LINE
8
BLACK
6
CONTINUOUS
10
3.23349
20
-6.8821
11
3.23349
21
-6.8821
0
LINE
8
BLACK
6
CONTINUOUS
10
3.23349
20
-6.8821
11
3.23349
21
-6.8821
0
LINE
8
BLACK
6
CONTINUOUS
10
3.23349
20
-6.8821
11
3.2836
21
-6.93221
0
LINE
8
BLACK
6
CONTINUOUS
10
3.2836
20
-6.93221
11
3.2836
21
-6.93221
0
LINE
8
BLACK
6
CONTINUOUS
10
3.2836
20
-6.93221
11
3.28589
21
-6.9345
0
LINE
8
BLACK
6
CONTINUOUS
10
3.28589
20
-6.9345
11
3.2912
21
-6.93821
0
LINE
8
BLACK
6
CONTINUOUS
10
3.2912
20
-6.93821
11
3.29707
21
-6.94095
0
LINE
8
BLACK
6
CONTINUOUS
10
3.29707
20
-6.94095
11
3.30332
21
-6.94262
0
LINE
8
BLACK
6
CONTINUOUS
10
3.30332
20
-6.94262
11
3.30977
21
-6.94319
0
LINE
8
BLACK
6
CONTINUOUS
10
3.30977
20
-6.94319
11
3.31622
21
-6.94262
0
LINE
8
BLACK
6
CONTINUOUS
10
3.31622
20
-6.94262
11
3.32248
21
-6.94095
0
LINE
8
BLACK
6
CONTINUOUS
10
3.32248
20
-6.94095
11
3.32835
21
-6.93821
0
LINE
8
BLACK
6
CONTINUOUS
10
3.32835
20
-6.93821
11
3.33365
21
-6.9345
0
LINE
8
BLACK
6
CONTINUOUS
10
3.33365
20
-6.9345
11
3.33594
21
-6.93221
0
LINE
8
BLACK
6
CONTINUOUS
10
3.33594
20
-6.93221
11
3.33594
21
-6.93221
0
LINE
8
BLACK
6
CONTINUOUS
10
3.33594
20
-6.93221
11
3.33594
21
-6.93221
0
LINE
8
BLACK
6
CONTINUOUS
10
3.33594
20
-6.93221
11
3.38605
21
-6.8821
0
LINE
8
BLACK
6
CONTINUOUS
10
3.38605
20
-6.8821
11
3.38605
21
-6.8821
0
LINE
8
BLACK
6
CONTINUOUS
10
3.38605
20
-6.8821
11
3.38605
21
-6.8821
0
LINE
8
BLACK
6
CONTINUOUS
10
3.38605
20
-6.8821
11
3.38834
21
-6.87981
0
LINE
8
BLACK
6
CONTINUOUS
10
3.38834
20
-6.87981
11
3.39205
21
-6.8745
0
LINE
8
BLACK
6
CONTINUOUS
10
3.39205
20
-6.8745
11
3.39479
21
-6.86863
0
LINE
8
BLACK
6
CONTINUOUS
10
3.39479
20
-6.86863
11
3.39647
21
-6.86238
0
LINE
8
BLACK
6
CONTINUOUS
10
3.39647
20
-6.86238
11
3.39703
21
-6.85593
0
LINE
8
BLACK
6
CONTINUOUS
10
3.39703
20
-6.85593
11
3.39647
21
-6.84948
0
LINE
8
BLACK
6
CONTINUOUS
10
3.39647
20
-6.84948
11
3.39479
21
-6.84322
0
LINE
8
BLACK
6
CONTINUOUS
10
3.39479
20
-6.84322
11
3.39205
21
-6.83735
0
LINE
8
BLACK
6
CONTINUOUS
10
3.39205
20
-6.83735
11
3.38834
21
-6.83205
0
LINE
8
BLACK
6
CONTINUOUS
10
3.38834
20
-6.83205
11
3.38605
21
-6.82976
0
LINE
8
BLACK
6
CONTINUOUS
10
3.38605
20
-6.82976
11
3.38605
21
-6.82976
0
LINE
8
BLACK
6
CONTINUOUS
10
3.38605
20
-6.82976
11
3.33594
21
-6.77965
0
LINE
8
BLACK
6
CONTINUOUS
10
3.33594
20
-6.77965
11
3.33365
21
-6.77736
0
LINE
8
BLACK
6
CONTINUOUS
10
3.33365
20
-6.77736
11
3.32835
21
-6.77365
0
LINE
8
BLACK
6
CONTINUOUS
10
3.32835
20
-6.77365
11
3.32248
21
-6.77091
0
LINE
8
BLACK
6
CONTINUOUS
10
3.32248
20
-6.77091
11
3.31622
21
-6.76923
0
LINE
8
BLACK
6
CONTINUOUS
10
3.31622
20
-6.76923
11
3.30977
21
-6.76867
0
LINE
8
BLACK
6
CONTINUOUS
10
3.30977
20
-6.76867
11
3.30332
21
-6.76923
0
LINE
8
BLACK
6
CONTINUOUS
10
3.05482
20
-6.76551
11
3.06166
21
-6.768
0
LINE
8
BLACK
6
CONTINUOUS
10
3.06166
20
-6.768
11
3.06796
21
-6.77163
0
LINE
8
BLACK
6
CONTINUOUS
10
3.06796
20
-6.77163
11
3.07353
21
-6.77631
0
LINE
8
BLACK
6
CONTINUOUS
10
3.07353
20
-6.77631
11
3.12364
21
-6.82642
0
LINE
8
BLACK
6
CONTINUOUS
10
3.12364
20
-6.82642
11
3.12364
21
-6.82642
0
LINE
8
BLACK
6
CONTINUOUS
10
3.12364
20
-6.82642
11
3.12832
21
-6.83199
0
LINE
8
BLACK
6
CONTINUOUS
10
3.12832
20
-6.83199
11
3.13196
21
-6.83829
0
LINE
8
BLACK
6
CONTINUOUS
10
3.13196
20
-6.83829
11
3.13444
21
-6.84513
0
LINE
8
BLACK
6
CONTINUOUS
10
3.13444
20
-6.84513
11
3.13571
21
-6.85229
0
LINE
8
BLACK
6
CONTINUOUS
10
3.13571
20
-6.85229
11
3.13571
21
-6.85957
0
LINE
8
BLACK
6
CONTINUOUS
10
3.13571
20
-6.85957
11
3.13444
21
-6.86673
0
LINE
8
BLACK
6
CONTINUOUS
10
3.13444
20
-6.86673
11
3.13196
21
-6.87357
0
LINE
8
BLACK
6
CONTINUOUS
10
3.13196
20
-6.87357
11
3.12832
21
-6.87987
0
LINE
8
BLACK
6
CONTINUOUS
10
3.12832
20
-6.87987
11
3.12364
21
-6.88544
0
LINE
8
BLACK
6
CONTINUOUS
10
3.12364
20
-6.88544
11
3.12364
21
-6.88544
0
LINE
8
BLACK
6
CONTINUOUS
10
3.12364
20
-6.88544
11
3.12364
21
-6.88544
0
LINE
8
BLACK
6
CONTINUOUS
10
3.12364
20
-6.88544
11
3.07353
21
-6.93555
0
LINE
8
BLACK
6
CONTINUOUS
10
3.07353
20
-6.93555
11
3.07353
21
-6.93555
0
LINE
8
BLACK
6
CONTINUOUS
10
3.07353
20
-6.93555
11
3.07353
21
-6.93555
0
LINE
8
BLACK
6
CONTINUOUS
10
3.07353
20
-6.93555
11
3.06796
21
-6.94022
0
LINE
8
BLACK
6
CONTINUOUS
10
3.06796
20
-6.94022
11
3.06166
21
-6.94386
0
LINE
8
BLACK
6
CONTINUOUS
10
3.06166
20
-6.94386
11
3.05482
21
-6.94635
0
LINE
8
BLACK
6
CONTINUOUS
10
3.05482
20
-6.94635
11
3.04766
21
-6.94761
0
LINE
8
BLACK
6
CONTINUOUS
10
3.04766
20
-6.94761
11
3.04039
21
-6.94761
0
LINE
8
BLACK
6
CONTINUOUS
10
3.04039
20
-6.94761
11
3.03322
21
-6.94635
0
LINE
8
BLACK
6
CONTINUOUS
10
3.03322
20
-6.94635
11
3.02639
21
-6.94386
0
LINE
8
BLACK
6
CONTINUOUS
10
3.02639
20
-6.94386
11
3.02009
21
-6.94022
0
LINE
8
BLACK
6
CONTINUOUS
10
3.02009
20
-6.94022
11
3.01451
21
-6.93555
0
LINE
8
BLACK
6
CONTINUOUS
10
3.01451
20
-6.93555
11
3.01451
21
-6.93555
0
LINE
8
BLACK
6
CONTINUOUS
10
3.01451
20
-6.93555
11
3.01451
21
-6.93555
0
LINE
8
BLACK
6
CONTINUOUS
10
3.01451
20
-6.93555
11
3.01451
21
-6.93555
0
LINE
8
BLACK
6
CONTINUOUS
10
3.01451
20
-6.93555
11
2.9644
21
-6.88544
0
LINE
8
BLACK
6
CONTINUOUS
10
2.9644
20
-6.88544
11
2.9644
21
-6.88544
0
LINE
8
BLACK
6
CONTINUOUS
10
2.9644
20
-6.88544
11
2.9644
21
-6.88544
0
LINE
8
BLACK
6
CONTINUOUS
10
2.9644
20
-6.88544
11
2.95973
21
-6.87987
0
LINE
8
BLACK
6
CONTINUOUS
10
2.95973
20
-6.87987
11
2.95609
21
-6.87357
0
LINE
8
BLACK
6
CONTINUOUS
10
2.95609
20
-6.87357
11
2.9536
21
-6.86673
0
LINE
8
BLACK
6
CONTINUOUS
10
2.9536
20
-6.86673
11
2.95234
21
-6.85957
0
LINE
8
BLACK
6
CONTINUOUS
10
2.95234
20
-6.85957
11
2.95234
21
-6.85229
0
LINE
8
BLACK
6
CONTINUOUS
10
2.95234
20
-6.85229
11
2.9536
21
-6.84513
0
LINE
8
BLACK
6
CONTINUOUS
10
2.9536
20
-6.84513
11
2.95609
21
-6.83829
0
LINE
8
BLACK
6
CONTINUOUS
10
2.95609
20
-6.83829
11
2.95973
21
-6.83199
0
LINE
8
BLACK
6
CONTINUOUS
10
2.95973
20
-6.83199
11
2.9644
21
-6.82642
0
LINE
8
BLACK
6
CONTINUOUS
10
2.9644
20
-6.82642
11
2.9644
21
-6.82642
0
LINE
8
BLACK
6
CONTINUOUS
10
2.9644
20
-6.82642
11
2.9644
21
-6.82642
0
LINE
8
BLACK
6
CONTINUOUS
10
2.9644
20
-6.82642
11
3.01451
21
-6.77631
0
LINE
8
BLACK
6
CONTINUOUS
10
3.01451
20
-6.77631
11
3.01451
21
-6.77631
0
LINE
8
BLACK
6
CONTINUOUS
10
3.01451
20
-6.77631
11
3.02009
21
-6.77163
0
LINE
8
BLACK
6
CONTINUOUS
10
3.02009
20
-6.77163
11
3.02639
21
-6.768
0
LINE
8
BLACK
6
CONTINUOUS
10
3.02639
20
-6.768
11
3.03322
21
-6.76551
0
LINE
8
BLACK
6
CONTINUOUS
10
3.03322
20
-6.76551
11
3.04039
21
-6.76425
0
LINE
8
BLACK
6
CONTINUOUS
10
3.04039
20
-6.76425
11
3.04766
21
-6.76425
0
LINE
8
BLACK
6
CONTINUOUS
10
3.04766
20
-6.76425
11
3.05482
21
-6.76551
0
LINE
8
BLACK
6
CONTINUOUS
10
3.03757
20
-6.76923
11
3.03132
21
-6.77091
0
LINE
8
BLACK
6
CONTINUOUS
10
3.03132
20
-6.77091
11
3.02545
21
-6.77365
0
LINE
8
BLACK
6
CONTINUOUS
10
3.02545
20
-6.77365
11
3.02014
21
-6.77736
0
LINE
8
BLACK
6
CONTINUOUS
10
3.02014
20
-6.77736
11
3.01786
21
-6.77965
0
LINE
8
BLACK
6
CONTINUOUS
10
3.01786
20
-6.77965
11
3.01786
21
-6.77965
0
LINE
8
BLACK
6
CONTINUOUS
10
3.01786
20
-6.77965
11
2.96775
21
-6.82976
0
LINE
8
BLACK
6
CONTINUOUS
10
2.96775
20
-6.82976
11
2.96775
21
-6.82976
0
LINE
8
BLACK
6
CONTINUOUS
10
2.96775
20
-6.82976
11
2.96775
21
-6.82976
0
LINE
8
BLACK
6
CONTINUOUS
10
2.96775
20
-6.82976
11
2.96546
21
-6.83205
0
LINE
8
BLACK
6
CONTINUOUS
10
2.96546
20
-6.83205
11
2.96174
21
-6.83735
0
LINE
8
BLACK
6
CONTINUOUS
10
2.96174
20
-6.83735
11
2.959
21
-6.84322
0
LINE
8
BLACK
6
CONTINUOUS
10
2.959
20
-6.84322
11
2.95733
21
-6.84948
0
LINE
8
BLACK
6
CONTINUOUS
10
2.95733
20
-6.84948
11
2.95676
21
-6.85593
0
LINE
8
BLACK
6
CONTINUOUS
10
2.95676
20
-6.85593
11
2.95733
21
-6.86238
0
LINE
8
BLACK
6
CONTINUOUS
10
2.95733
20
-6.86238
11
2.959
21
-6.86863
0
LINE
8
BLACK
6
CONTINUOUS
10
2.959
20
-6.86863
11
2.96174
21
-6.8745
0
LINE
8
BLACK
6
CONTINUOUS
10
2.96174
20
-6.8745
11
2.96546
21
-6.87981
0
LINE
8
BLACK
6
CONTINUOUS
10
2.96546
20
-6.87981
11
2.96775
21
-6.8821
0
LINE
8
BLACK
6
CONTINUOUS
10
2.96775
20
-6.8821
11
2.96775
21
-6.8821
0
LINE
8
BLACK
6
CONTINUOUS
10
2.96775
20
-6.8821
11
2.96775
21
-6.8821
0
LINE
8
BLACK
6
CONTINUOUS
10
2.96775
20
-6.8821
11
3.01786
21
-6.93221
0
LINE
8
BLACK
6
CONTINUOUS
10
3.01786
20
-6.93221
11
3.01786
21
-6.93221
0
LINE
8
BLACK
6
CONTINUOUS
10
3.01786
20
-6.93221
11
3.02014
21
-6.9345
0
LINE
8
BLACK
6
CONTINUOUS
10
3.02014
20
-6.9345
11
3.02545
21
-6.93821
0
LINE
8
BLACK
6
CONTINUOUS
10
3.02545
20
-6.93821
11
3.03132
21
-6.94095
0
LINE
8
BLACK
6
CONTINUOUS
10
3.03132
20
-6.94095
11
3.03757
21
-6.94262
0
LINE
8
BLACK
6
CONTINUOUS
10
3.03757
20
-6.94262
11
3.04402
21
-6.94319
0
LINE
8
BLACK
6
CONTINUOUS
10
3.04402
20
-6.94319
11
3.05047
21
-6.94262
0
LINE
8
BLACK
6
CONTINUOUS
10
3.05047
20
-6.94262
11
3.05673
21
-6.94095
0
LINE
8
BLACK
6
CONTINUOUS
10
3.05673
20
-6.94095
11
3.0626
21
-6.93821
0
LINE
8
BLACK
6
CONTINUOUS
10
3.0626
20
-6.93821
11
3.0679
21
-6.9345
0
LINE
8
BLACK
6
CONTINUOUS
10
3.0679
20
-6.9345
11
3.07019
21
-6.93221
0
LINE
8
BLACK
6
CONTINUOUS
10
3.07019
20
-6.93221
11
3.07019
21
-6.93221
0
LINE
8
BLACK
6
CONTINUOUS
10
3.07019
20
-6.93221
11
3.07019
21
-6.93221
0
LINE
8
BLACK
6
CONTINUOUS
10
3.07019
20
-6.93221
11
3.1203
21
-6.8821
0
LINE
8
BLACK
6
CONTINUOUS
10
3.1203
20
-6.8821
11
3.1203
21
-6.8821
0
LINE
8
BLACK
6
CONTINUOUS
10
3.1203
20
-6.8821
11
3.1203
21
-6.8821
0
LINE
8
BLACK
6
CONTINUOUS
10
3.1203
20
-6.8821
11
3.12259
21
-6.87981
0
LINE
8
BLACK
6
CONTINUOUS
10
3.12259
20
-6.87981
11
3.12631
21
-6.8745
0
LINE
8
BLACK
6
CONTINUOUS
10
3.12631
20
-6.8745
11
3.12904
21
-6.86863
0
LINE
8
BLACK
6
CONTINUOUS
10
3.12904
20
-6.86863
11
3.13072
21
-6.86238
0
LINE
8
BLACK
6
CONTINUOUS
10
3.13072
20
-6.86238
11
3.13128
21
-6.85593
0
LINE
8
BLACK
6
CONTINUOUS
10
3.13128
20
-6.85593
11
3.13072
21
-6.84948
0
LINE
8
BLACK
6
CONTINUOUS
10
3.13072
20
-6.84948
11
3.12904
21
-6.84322
0
LINE
8
BLACK
6
CONTINUOUS
10
3.12904
20
-6.84322
11
3.12631
21
-6.83735
0
LINE
8
BLACK
6
CONTINUOUS
10
3.12631
20
-6.83735
11
3.12259
21
-6.83205
0
LINE
8
BLACK
6
CONTINUOUS
10
3.12259
20
-6.83205
11
3.1203
21
-6.82976
0
LINE
8
BLACK
6
CONTINUOUS
10
3.1203
20
-6.82976
11
3.1203
21
-6.82976
0
LINE
8
BLACK
6
CONTINUOUS
10
3.1203
20
-6.82976
11
3.07019
21
-6.77965
0
LINE
8
BLACK
6
CONTINUOUS
10
3.07019
20
-6.77965
11
3.0679
21
-6.77736
0
LINE
8
BLACK
6
CONTINUOUS
10
3.0679
20
-6.77736
11
3.0626
21
-6.77365
0
LINE
8
BLACK
6
CONTINUOUS
10
3.0626
20
-6.77365
11
3.05673
21
-6.77091
0
LINE
8
BLACK
6
CONTINUOUS
10
3.05673
20
-6.77091
11
3.05047
21
-6.76923
0
LINE
8
BLACK
6
CONTINUOUS
10
3.05047
20
-6.76923
11
3.04402
21
-6.76867
0
LINE
8
BLACK
6
CONTINUOUS
10
3.04402
20
-6.76867
11
3.03757
21
-6.76923
0
LINE
8
BLACK
6
CONTINUOUS
10
2.78908
20
-6.76551
11
2.79591
21
-6.768
0
LINE
8
BLACK
6
CONTINUOUS
10
2.79591
20
-6.768
11
2.80221
21
-6.77163
0
LINE
8
BLACK
6
CONTINUOUS
10
2.80221
20
-6.77163
11
2.80778
21
-6.77631
0
LINE
8
BLACK
6
CONTINUOUS
10
2.80778
20
-6.77631
11
2.85789
21
-6.82642
0
LINE
8
BLACK
6
CONTINUOUS
10
2.85789
20
-6.82642
11
2.85789
21
-6.82642
0
LINE
8
BLACK
6
CONTINUOUS
10
2.85789
20
-6.82642
11
2.86257
21
-6.83199
0
LINE
8
BLACK
6
CONTINUOUS
10
2.86257
20
-6.83199
11
2.86621
21
-6.83829
0
LINE
8
BLACK
6
CONTINUOUS
10
2.86621
20
-6.83829
11
2.8687
21
-6.84513
0
LINE
8
BLACK
6
CONTINUOUS
10
2.8687
20
-6.84513
11
2.86996
21
-6.85229
0
LINE
8
BLACK
6
CONTINUOUS
10
2.86996
20
-6.85229
11
2.86996
21
-6.85957
0
LINE
8
BLACK
6
CONTINUOUS
10
2.86996
20
-6.85957
11
2.8687
21
-6.86673
0
LINE
8
BLACK
6
CONTINUOUS
10
2.8687
20
-6.86673
11
2.86621
21
-6.87357
0
LINE
8
BLACK
6
CONTINUOUS
10
2.86621
20
-6.87357
11
2.86257
21
-6.87987
0
LINE
8
BLACK
6
CONTINUOUS
10
2.86257
20
-6.87987
11
2.85789
21
-6.88544
0
LINE
8
BLACK
6
CONTINUOUS
10
2.85789
20
-6.88544
11
2.85789
21
-6.88544
0
LINE
8
BLACK
6
CONTINUOUS
10
2.85789
20
-6.88544
11
2.85789
21
-6.88544
0
LINE
8
BLACK
6
CONTINUOUS
10
2.85789
20
-6.88544
11
2.80778
21
-6.93555
0
LINE
8
BLACK
6
CONTINUOUS
10
2.80778
20
-6.93555
11
2.80778
21
-6.93555
0
LINE
8
BLACK
6
CONTINUOUS
10
2.80778
20
-6.93555
11
2.80778
21
-6.93555
0
LINE
8
BLACK
6
CONTINUOUS
10
2.80778
20
-6.93555
11
2.80221
21
-6.94022
0
LINE
8
BLACK
6
CONTINUOUS
10
2.80221
20
-6.94022
11
2.79591
21
-6.94386
0
LINE
8
BLACK
6
CONTINUOUS
10
2.79591
20
-6.94386
11
2.78908
21
-6.94635
0
LINE
8
BLACK
6
CONTINUOUS
10
2.78908
20
-6.94635
11
2.78191
21
-6.94761
0
LINE
8
BLACK
6
CONTINUOUS
10
2.78191
20
-6.94761
11
2.77464
21
-6.94761
0
LINE
8
BLACK
6
CONTINUOUS
10
2.77464
20
-6.94761
11
2.76747
21
-6.94635
0
LINE
8
BLACK
6
CONTINUOUS
10
2.76747
20
-6.94635
11
2.76064
21
-6.94386
0
LINE
8
BLACK
6
CONTINUOUS
10
2.76064
20
-6.94386
11
2.75434
21
-6.94022
0
LINE
8
BLACK
6
CONTINUOUS
10
2.75434
20
-6.94022
11
2.74877
21
-6.93555
0
LINE
8
BLACK
6
CONTINUOUS
10
2.74877
20
-6.93555
11
2.74877
21
-6.93555
0
LINE
8
BLACK
6
CONTINUOUS
10
2.74877
20
-6.93555
11
2.74877
21
-6.93555
0
LINE
8
BLACK
6
CONTINUOUS
10
2.74877
20
-6.93555
11
2.74877
21
-6.93555
0
LINE
8
BLACK
6
CONTINUOUS
10
2.74877
20
-6.93555
11
2.69866
21
-6.88544
0
LINE
8
BLACK
6
CONTINUOUS
10
2.69866
20
-6.88544
11
2.69866
21
-6.88544
0
LINE
8
BLACK
6
CONTINUOUS
10
2.69866
20
-6.88544
11
2.69866
21
-6.88544
0
LINE
8
BLACK
6
CONTINUOUS
10
2.69866
20
-6.88544
11
2.69398
21
-6.87987
0
LINE
8
BLACK
6
CONTINUOUS
10
2.69398
20
-6.87987
11
2.69034
21
-6.87357
0
LINE
8
BLACK
6
CONTINUOUS
10
2.69034
20
-6.87357
11
2.68786
21
-6.86673
0
LINE
8
BLACK
6
CONTINUOUS
10
2.68786
20
-6.86673
11
2.68659
21
-6.85957
0
LINE
8
BLACK
6
CONTINUOUS
10
2.68659
20
-6.85957
11
2.68659
21
-6.85229
0
LINE
8
BLACK
6
CONTINUOUS
10
2.68659
20
-6.85229
11
2.68786
21
-6.84513
0
LINE
8
BLACK
6
CONTINUOUS
10
2.68786
20
-6.84513
11
2.69034
21
-6.83829
0
LINE
8
BLACK
6
CONTINUOUS
10
2.69034
20
-6.83829
11
2.69398
21
-6.83199
0
LINE
8
BLACK
6
CONTINUOUS
10
2.69398
20
-6.83199
11
2.69866
21
-6.82642
0
LINE
8
BLACK
6
CONTINUOUS
10
2.69866
20
-6.82642
11
2.69866
21
-6.82642
0
LINE
8
BLACK
6
CONTINUOUS
10
2.69866
20
-6.82642
11
2.69866
21
-6.82642
0
LINE
8
BLACK
6
CONTINUOUS
10
2.69866
20
-6.82642
11
2.74877
21
-6.77631
0
LINE
8
BLACK
6
CONTINUOUS
10
2.74877
20
-6.77631
11
2.74877
21
-6.77631
0
LINE
8
BLACK
6
CONTINUOUS
10
2.74877
20
-6.77631
11
2.75434
21
-6.77163
0
LINE
8
BLACK
6
CONTINUOUS
10
2.75434
20
-6.77163
11
2.76064
21
-6.768
0
LINE
8
BLACK
6
CONTINUOUS
10
2.76064
20
-6.768
11
2.76747
21
-6.76551
0
LINE
8
BLACK
6
CONTINUOUS
10
2.76747
20
-6.76551
11
2.77464
21
-6.76425
0
LINE
8
BLACK
6
CONTINUOUS
10
2.77464
20
-6.76425
11
2.78191
21
-6.76425
0
LINE
8
BLACK
6
CONTINUOUS
10
2.78191
20
-6.76425
11
2.78908
21
-6.76551
0
LINE
8
BLACK
6
CONTINUOUS
10
2.77182
20
-6.76923
11
2.76557
21
-6.77091
0
LINE
8
BLACK
6
CONTINUOUS
10
2.76557
20
-6.77091
11
2.7597
21
-6.77365
0
LINE
8
BLACK
6
CONTINUOUS
10
2.7597
20
-6.77365
11
2.7544
21
-6.77736
0
LINE
8
BLACK
6
CONTINUOUS
10
2.7544
20
-6.77736
11
2.75211
21
-6.77965
0
LINE
8
BLACK
6
CONTINUOUS
10
2.75211
20
-6.77965
11
2.75211
21
-6.77965
0
LINE
8
BLACK
6
CONTINUOUS
10
2.75211
20
-6.77965
11
2.702
21
-6.82976
0
LINE
8
BLACK
6
CONTINUOUS
10
2.702
20
-6.82976
11
2.702
21
-6.82976
0
LINE
8
BLACK
6
CONTINUOUS
10
2.702
20
-6.82976
11
2.702
21
-6.82976
0
LINE
8
BLACK
6
CONTINUOUS
10
2.702
20
-6.82976
11
2.69971
21
-6.83205
0
LINE
8
BLACK
6
CONTINUOUS
10
2.69971
20
-6.83205
11
2.69599
21
-6.83735
0
LINE
8
BLACK
6
CONTINUOUS
10
2.69599
20
-6.83735
11
2.69326
21
-6.84322
0
LINE
8
BLACK
6
CONTINUOUS
10
2.69326
20
-6.84322
11
2.69158
21
-6.84948
0
LINE
8
BLACK
6
CONTINUOUS
10
2.69158
20
-6.84948
11
2.69102
21
-6.85593
0
LINE
8
BLACK
6
CONTINUOUS
10
2.69102
20
-6.85593
11
2.69158
21
-6.86238
0
LINE
8
BLACK
6
CONTINUOUS
10
2.69158
20
-6.86238
11
2.69326
21
-6.86863
0
LINE
8
BLACK
6
CONTINUOUS
10
2.69326
20
-6.86863
11
2.69599
21
-6.8745
0
LINE
8
BLACK
6
CONTINUOUS
10
2.69599
20
-6.8745
11
2.69971
21
-6.87981
0
LINE
8
BLACK
6
CONTINUOUS
10
2.69971
20
-6.87981
11
2.702
21
-6.8821
0
LINE
8
BLACK
6
CONTINUOUS
10
2.702
20
-6.8821
11
2.702
21
-6.8821
0
LINE
8
BLACK
6
CONTINUOUS
10
2.702
20
-6.8821
11
2.702
21
-6.8821
0
LINE
8
BLACK
6
CONTINUOUS
10
2.702
20
-6.8821
11
2.75211
21
-6.93221
0
LINE
8
BLACK
6
CONTINUOUS
10
2.75211
20
-6.93221
11
2.75211
21
-6.93221
0
LINE
8
BLACK
6
CONTINUOUS
10
2.75211
20
-6.93221
11
2.7544
21
-6.9345
0
LINE
8
BLACK
6
CONTINUOUS
10
2.7544
20
-6.9345
11
2.7597
21
-6.93821
0
LINE
8
BLACK
6
CONTINUOUS
10
2.7597
20
-6.93821
11
2.76557
21
-6.94095
0
LINE
8
BLACK
6
CONTINUOUS
10
2.76557
20
-6.94095
11
2.77182
21
-6.94262
0
LINE
8
BLACK
6
CONTINUOUS
10
2.77182
20
-6.94262
11
2.77828
21
-6.94319
0
LINE
8
BLACK
6
CONTINUOUS
10
2.77828
20
-6.94319
11
2.78473
21
-6.94262
0
LINE
8
BLACK
6
CONTINUOUS
10
2.78473
20
-6.94262
11
2.79098
21
-6.94095
0
LINE
8
BLACK
6
CONTINUOUS
10
2.79098
20
-6.94095
11
2.79685
21
-6.93821
0
LINE
8
BLACK
6
CONTINUOUS
10
2.79685
20
-6.93821
11
2.80215
21
-6.9345
0
LINE
8
BLACK
6
CONTINUOUS
10
2.80215
20
-6.9345
11
2.80444
21
-6.93221
0
LINE
8
BLACK
6
CONTINUOUS
10
2.80444
20
-6.93221
11
2.80444
21
-6.93221
0
LINE
8
BLACK
6
CONTINUOUS
10
2.80444
20
-6.93221
11
2.80444
21
-6.93221
0
LINE
8
BLACK
6
CONTINUOUS
10
2.80444
20
-6.93221
11
2.85455
21
-6.8821
0
LINE
8
BLACK
6
CONTINUOUS
10
2.85455
20
-6.8821
11
2.85455
21
-6.8821
0
LINE
8
BLACK
6
CONTINUOUS
10
2.85455
20
-6.8821
11
2.85455
21
-6.8821
0
LINE
8
BLACK
6
CONTINUOUS
10
2.85455
20
-6.8821
11
2.85684
21
-6.87981
0
LINE
8
BLACK
6
CONTINUOUS
10
2.85684
20
-6.87981
11
2.86056
21
-6.8745
0
LINE
8
BLACK
6
CONTINUOUS
10
2.86056
20
-6.8745
11
2.86329
21
-6.86863
0
LINE
8
BLACK
6
CONTINUOUS
10
2.86329
20
-6.86863
11
2.86497
21
-6.86238
0
LINE
8
BLACK
6
CONTINUOUS
10
2.86497
20
-6.86238
11
2.86553
21
-6.85593
0
LINE
8
BLACK
6
CONTINUOUS
10
2.86553
20
-6.85593
11
2.86497
21
-6.84948
0
LINE
8
BLACK
6
CONTINUOUS
10
2.86497
20
-6.84948
11
2.86329
21
-6.84322
0
LINE
8
BLACK
6
CONTINUOUS
10
2.86329
20
-6.84322
11
2.86056
21
-6.83735
0
LINE
8
BLACK
6
CONTINUOUS
10
2.86056
20
-6.83735
11
2.85684
21
-6.83205
0
LINE
8
BLACK
6
CONTINUOUS
10
2.85684
20
-6.83205
11
2.85455
21
-6.82976
0
LINE
8
BLACK
6
CONTINUOUS
10
2.85455
20
-6.82976
11
2.85455
21
-6.82976
0
LINE
8
BLACK
6
CONTINUOUS
10
2.85455
20
-6.82976
11
2.80444
21
-6.77965
0
LINE
8
BLACK
6
CONTINUOUS
10
2.80444
20
-6.77965
11
2.80215
21
-6.77736
0
LINE
8
BLACK
6
CONTINUOUS
10
2.80215
20
-6.77736
11
2.79685
21
-6.77365
0
LINE
8
BLACK
6
CONTINUOUS
10
2.79685
20
-6.77365
11
2.79098
21
-6.77091
0
LINE
8
BLACK
6
CONTINUOUS
10
2.79098
20
-6.77091
11
2.78473
21
-6.76923
0
LINE
8
BLACK
6
CONTINUOUS
10
2.78473
20
-6.76923
11
2.77828
21
-6.76867
0
LINE
8
BLACK
6
CONTINUOUS
10
2.77828
20
-6.76867
11
2.77182
21
-6.76923
0
LINE
8
BLACK
6
CONTINUOUS
10
5.933
20
-6.25357
11
5.94098
21
-6.25419
0
LINE
8
BLACK
6
CONTINUOUS
10
5.94098
20
-6.25419
11
5.94876
21
-6.25606
0
LINE
8
BLACK
6
CONTINUOUS
10
5.94876
20
-6.25606
11
5.95615
21
-6.25912
0
LINE
8
BLACK
6
CONTINUOUS
10
5.95615
20
-6.25912
11
5.96297
21
-6.2633
0
LINE
8
BLACK
6
CONTINUOUS
10
5.96297
20
-6.2633
11
5.96905
21
-6.2685
0
LINE
8
BLACK
6
CONTINUOUS
10
5.96905
20
-6.2685
11
5.97425
21
-6.27458
0
LINE
8
BLACK
6
CONTINUOUS
10
5.97425
20
-6.27458
11
5.97843
21
-6.2814
0
LINE
8
BLACK
6
CONTINUOUS
10
5.97843
20
-6.2814
11
5.98149
21
-6.2888
0
LINE
8
BLACK
6
CONTINUOUS
10
5.98149
20
-6.2888
11
5.98336
21
-6.29658
0
LINE
8
BLACK
6
CONTINUOUS
10
5.98336
20
-6.29658
11
5.98398
21
-6.30455
0
LINE
8
BLACK
6
CONTINUOUS
10
5.98398
20
-6.30455
11
5.98398
21
-8.20455
0
LINE
8
BLACK
6
CONTINUOUS
10
5.98398
20
-8.20455
11
5.98336
21
-8.21253
0
LINE
8
BLACK
6
CONTINUOUS
10
5.98336
20
-8.21253
11
5.98149
21
-8.22031
0
LINE
8
BLACK
6
CONTINUOUS
10
5.98149
20
-8.22031
11
5.97843
21
-8.2277
0
LINE
8
BLACK
6
CONTINUOUS
10
5.97843
20
-8.2277
11
5.97425
21
-8.23452
0
LINE
8
BLACK
6
CONTINUOUS
10
5.97425
20
-8.23452
11
5.96905
21
-8.2406
0
LINE
8
BLACK
6
CONTINUOUS
10
5.96905
20
-8.2406
11
5.96297
21
-8.2458
0
LINE
8
BLACK
6
CONTINUOUS
10
5.96297
20
-8.2458
11
5.95615
21
-8.24998
0
LINE
8
BLACK
6
CONTINUOUS
10
5.95615
20
-8.24998
11
5.94876
21
-8.25304
0
LINE
8
BLACK
6
CONTINUOUS
10
5.94876
20
-8.25304
11
5.94098
21
-8.25491
0
LINE
8
BLACK
6
CONTINUOUS
10
5.94098
20
-8.25491
11
5.933
21
-8.25554
0
LINE
8
BLACK
6
CONTINUOUS
10
5.933
20
-8.25554
11
2.533
21
-8.25554
0
LINE
8
BLACK
6
CONTINUOUS
10
2.533
20
-8.25554
11
2.52502
21
-8.25491
0
LINE
8
BLACK
6
CONTINUOUS
10
2.52502
20
-8.25491
11
2.51724
21
-8.25304
0
LINE
8
BLACK
6
CONTINUOUS
10
2.51724
20
-8.25304
11
2.50985
21
-8.24998
0
LINE
8
BLACK
6
CONTINUOUS
10
2.50985
20
-8.24998
11
2.50303
21
-8.2458
0
LINE
8
BLACK
6
CONTINUOUS
10
2.50303
20
-8.2458
11
2.49695
21
-8.2406
0
LINE
8
BLACK
6
CONTINUOUS
10
2.49695
20
-8.2406
11
2.49175
21
-8.23452
0
LINE
8
BLACK
6
CONTINUOUS
10
2.49175
20
-8.23452
11
2.48757
21
-8.2277
0
LINE
8
BLACK
6
CONTINUOUS
10
2.48757
20
-8.2277
11
2.48451
21
-8.22031
0
LINE
8
BLACK
6
CONTINUOUS
10
2.48451
20
-8.22031
11
2.48264
21
-8.21253
0
LINE
8
BLACK
6
CONTINUOUS
10
2.48264
20
-8.21253
11
2.48202
21
-8.20455
0
LINE
8
BLACK
6
CONTINUOUS
10
2.48202
20
-8.20455
11
2.48202
21
-6.30455
0
LINE
8
BLACK
6
CONTINUOUS
10
2.48202
20
-6.30455
11
2.48264
21
-6.29658
0
LINE
8
BLACK
6
CONTINUOUS
10
2.48264
20
-6.29658
11
2.48451
21
-6.2888
0
LINE
8
BLACK
6
CONTINUOUS
10
2.48451
20
-6.2888
11
2.48757
21
-6.2814
0
LINE
8
BLACK
6
CONTINUOUS
10
2.48757
20
-6.2814
11
2.49175
21
-6.27458
0
LINE
8
BLACK
6
CONTINUOUS
10
2.49175
20
-6.27458
11
2.49695
21
-6.2685
0
LINE
8
BLACK
6
CONTINUOUS
10
2.49695
20
-6.2685
11
2.50303
21
-6.2633
0
LINE
8
BLACK
6
CONTINUOUS
10
2.50303
20
-6.2633
11
2.50985
21
-6.25912
0
LINE
8
BLACK
6
CONTINUOUS
10
2.50985
20
-6.25912
11
2.51724
21
-6.25606
0
LINE
8
BLACK
6
CONTINUOUS
10
2.51724
20
-6.25606
11
2.52502
21
-6.25419
0
LINE
8
BLACK
6
CONTINUOUS
10
2.52502
20
-6.25419
11
2.533
21
-6.25357
0
LINE
8
BLACK
6
CONTINUOUS
10
2.533
20
-6.25357
11
5.933
21
-6.25357
0
LINE
8
BLACK
6
CONTINUOUS
10
2.533
20
-6.25554
11
2.52914
21
-6.25554
0
LINE
8
BLACK
6
CONTINUOUS
10
2.52914
20
-6.25554
11
2.52152
21
-6.25674
0
LINE
8
BLACK
6
CONTINUOUS
10
2.52152
20
-6.25674
11
2.51418
21
-6.25913
0
LINE
8
BLACK
6
CONTINUOUS
10
2.51418
20
-6.25913
11
2.50731
21
-6.26263
0
LINE
8
BLACK
6
CONTINUOUS
10
2.50731
20
-6.26263
11
2.50107
21
-6.26716
0
LINE
8
BLACK
6
CONTINUOUS
10
2.50107
20
-6.26716
11
2.49561
21
-6.27262
0
LINE
8
BLACK
6
CONTINUOUS
10
2.49561
20
-6.27262
11
2.49108
21
-6.27886
0
LINE
8
BLACK
6
CONTINUOUS
10
2.49108
20
-6.27886
11
2.48758
21
-6.28574
0
LINE
8
BLACK
6
CONTINUOUS
10
2.48758
20
-6.28574
11
2.48519
21
-6.29307
0
LINE
8
BLACK
6
CONTINUOUS
10
2.48519
20
-6.29307
11
2.48398
21
-6.30069
0
LINE
8
BLACK
6
CONTINUOUS
10
2.48398
20
-6.30069
11
2.48398
21
-6.30455
0
LINE
8
BLACK
6
CONTINUOUS
10
2.48398
20
-6.30455
11
2.48398
21
-8.20455
0
LINE
8
BLACK
6
CONTINUOUS
10
2.48398
20
-8.20455
11
2.48398
21
-8.20841
0
LINE
8
BLACK
6
CONTINUOUS
10
2.48398
20
-8.20841
11
2.48519
21
-8.21603
0
LINE
8
BLACK
6
CONTINUOUS
10
2.48519
20
-8.21603
11
2.48758
21
-8.22337
0
LINE
8
BLACK
6
CONTINUOUS
10
2.48758
20
-8.22337
11
2.49108
21
-8.23024
0
LINE
8
BLACK
6
CONTINUOUS
10
2.49108
20
-8.23024
11
2.49561
21
-8.23648
0
LINE
8
BLACK
6
CONTINUOUS
10
2.49561
20
-8.23648
11
2.50107
21
-8.24194
0
LINE
8
BLACK
6
CONTINUOUS
10
2.50107
20
-8.24194
11
2.50731
21
-8.24647
0
LINE
8
BLACK
6
CONTINUOUS
10
2.50731
20
-8.24647
11
2.51418
21
-8.24998
0
LINE
8
BLACK
6
CONTINUOUS
10
2.51418
20
-8.24998
11
2.52152
21
-8.25236
0
LINE
8
BLACK
6
CONTINUOUS
10
2.52152
20
-8.25236
11
2.52914
21
-8.25357
0
LINE
8
BLACK
6
CONTINUOUS
10
2.52914
20
-8.25357
11
2.533
21
-8.25357
0
LINE
8
BLACK
6
CONTINUOUS
10
2.533
20
-8.25357
11
5.933
21
-8.25357
0
LINE
8
BLACK
6
CONTINUOUS
10
5.933
20
-8.25357
11
5.93686
21
-8.25357
0
LINE
8
BLACK
6
CONTINUOUS
10
5.93686
20
-8.25357
11
5.94448
21
-8.25236
0
LINE
8
BLACK
6
CONTINUOUS
10
5.94448
20
-8.25236
11
5.95182
21
-8.24998
0
LINE
8
BLACK
6
CONTINUOUS
10
5.95182
20
-8.24998
11
5.95869
21
-8.24647
0
LINE
8
BLACK
6
CONTINUOUS
10
5.95869
20
-8.24647
11
5.96493
21
-8.24194
0
LINE
8
BLACK
6
CONTINUOUS
10
5.96493
20
-8.24194
11
5.97039
21
-8.23648
0
LINE
8
BLACK
6
CONTINUOUS
10
5.97039
20
-8.23648
11
5.97492
21
-8.23024
0
LINE
8
BLACK
6
CONTINUOUS
10
5.97492
20
-8.23024
11
5.97842
21
-8.22337
0
LINE
8
BLACK
6
CONTINUOUS
10
5.97842
20
-8.22337
11
5.98081
21
-8.21603
0
LINE
8
BLACK
6
CONTINUOUS
10
5.98081
20
-8.21603
11
5.98202
21
-8.20841
0
LINE
8
BLACK
6
CONTINUOUS
10
5.98202
20
-8.20841
11
5.98202
21
-8.20455
0
LINE
8
BLACK
6
CONTINUOUS
10
5.98202
20
-8.20455
11
5.98202
21
-6.30455
0
LINE
8
BLACK
6
CONTINUOUS
10
5.98202
20
-6.30455
11
5.98202
21
-6.30069
0
LINE
8
BLACK
6
CONTINUOUS
10
5.98202
20
-6.30069
11
5.98081
21
-6.29307
0
LINE
8
BLACK
6
CONTINUOUS
10
5.98081
20
-6.29307
11
5.97842
21
-6.28574
0
LINE
8
BLACK
6
CONTINUOUS
10
5.97842
20
-6.28574
11
5.97492
21
-6.27886
0
LINE
8
BLACK
6
CONTINUOUS
10
5.97492
20
-6.27886
11
5.97039
21
-6.27262
0
LINE
8
BLACK
6
CONTINUOUS
10
5.97039
20
-6.27262
11
5.96493
21
-6.26716
0
LINE
8
BLACK
6
CONTINUOUS
10
5.96493
20
-6.26716
11
5.95869
21
-6.26263
0
LINE
8
BLACK
6
CONTINUOUS
10
5.95869
20
-6.26263
11
5.95182
21
-6.25913
0
LINE
8
BLACK
6
CONTINUOUS
10
5.95182
20
-6.25913
11
5.94448
21
-6.25674
0
LINE
8
BLACK
6
CONTINUOUS
10
5.94448
20
-6.25674
11
5.93686
21
-6.25554
0
LINE
8
BLACK
6
CONTINUOUS
10
5.93686
20
-6.25554
11
5.933
21
-6.25554
0
LINE
8
BLACK
6
CONTINUOUS
10
5.933
20
-6.25554
11
2.533
21
-6.25554
  0
ENDSEC
  0
EOF
